<svg width="31" height="31" viewBox="0 0 31 31" fill="none" xmlns="http://www.w3.org/2000/svg">
<path d="M28.1266 11.5477H2.16317C1.29258 11.5477 0.584351 12.2561 0.584351 13.1267V28.0737C0.584351 28.9443 1.29258 29.6526 2.16317 29.6526H28.1266C28.9972 29.6526 29.7054 28.9443 29.7054 28.0737V13.1267C29.7054 12.2561 28.9972 11.5477 28.1266 11.5477Z" fill="#CC4444"/>
<path d="M2.22147 28.0738V13.1267C2.22147 12.2561 2.92969 11.5477 3.80028 11.5477H2.16317C1.29258 11.5477 0.584351 12.2561 0.584351 13.1267V28.0737C0.584351 28.9443 1.29258 29.6526 2.16317 29.6526H3.80028C2.92969 29.6526 2.22147 28.9443 2.22147 28.0738Z" fill="#B53C3C"/>
<path d="M28.0683 27.3124C28.0683 27.7007 27.7536 28.0155 27.3651 28.0155H2.92465C2.53635 28.0155 2.22147 27.7007 2.22147 27.3124V13.8881C2.22147 13.4998 2.53629 13.1849 2.92465 13.1849H27.3651C27.7535 13.1849 28.0683 13.4998 28.0683 13.8881V27.3124Z" fill="#F95C4B"/>
<path d="M3.66686 27.3124V13.8881C3.66686 13.4998 3.98169 13.1849 4.37005 13.1849H2.92465C2.53635 13.1849 2.22147 13.4998 2.22147 13.8881V27.3124C2.22147 27.7007 2.53629 28.0155 2.92465 28.0155H4.37005C3.98169 28.0155 3.66686 27.7007 3.66686 27.3124Z" fill="#F44B34"/>
<path d="M9.13369 22.1813H6.71041V21.2241H8.68087C8.81031 21.2241 8.91525 21.1192 8.91525 20.9898V20.2255C8.91525 20.096 8.81031 19.9911 8.68087 19.9911H6.71041V19.0193H9.05681C9.18624 19.0193 9.29119 18.9144 9.29119 18.7849V17.8009C9.29119 17.6715 9.18624 17.5665 9.05681 17.5665H5.27826C5.14883 17.5665 5.04388 17.6715 5.04388 17.8009V23.3997C5.04388 23.5291 5.14883 23.6341 5.27826 23.6341H9.13369C9.26312 23.6341 9.36806 23.5291 9.36806 23.3997V22.4157C9.36812 22.2862 9.26312 22.1813 9.13369 22.1813Z" fill="#F5F5F5"/>
<path d="M15.777 17.5663H14.5528C14.469 17.5663 14.3916 17.611 14.3497 17.6837L13.315 19.4805L12.2801 17.6837C12.2383 17.611 12.1608 17.5663 12.077 17.5663H10.8443C10.6585 17.5663 10.546 17.7737 10.6486 17.9295L12.4348 20.6428L10.7151 23.2712C10.668 23.3432 10.6641 23.4353 10.7051 23.511C10.746 23.5867 10.8251 23.6339 10.9113 23.6339H12.1442C12.2287 23.6339 12.3066 23.5885 12.3482 23.5149L13.3151 21.8051L14.2818 23.5149C14.3234 23.5885 14.4013 23.6339 14.4858 23.6339H15.7102C15.7962 23.6339 15.8754 23.5867 15.9163 23.511C15.9573 23.4353 15.9534 23.3432 15.9063 23.2712L14.1867 20.6428L15.9729 17.9295C16.0203 17.8575 16.0244 17.7653 15.9834 17.6894C15.9424 17.6136 15.8632 17.5663 15.777 17.5663Z" fill="#F5F5F5"/>
<path d="M18.7159 17.5663H17.5182C17.3888 17.5663 17.2838 17.6712 17.2838 17.8007V23.3995C17.2838 23.5289 17.3888 23.6339 17.5182 23.6339H18.7159C18.8453 23.6339 18.9502 23.5289 18.9502 23.3995V17.8007C18.9502 17.6712 18.8453 17.5663 18.7159 17.5663Z" fill="#F5F5F5"/>
<path d="M25.0115 17.5663H20.3186C20.1891 17.5663 20.0842 17.6712 20.0842 17.8007V18.7847C20.0842 18.9141 20.1891 19.0191 20.3186 19.0191H21.8361V23.3995C21.8361 23.5289 21.941 23.6339 22.0705 23.6339H23.2681C23.3976 23.6339 23.5025 23.5289 23.5025 23.3995V19.0191H25.0115C25.141 19.0191 25.2459 18.9141 25.2459 18.7847V17.8007C25.2459 17.6712 25.141 17.5663 25.0115 17.5663Z" fill="#F5F5F5"/>
<path d="M8.19173 0.531372C6.69893 0.531372 5.48891 1.74145 5.48891 3.23425C5.48891 4.72705 6.69893 5.93725 8.19173 5.93725C9.68453 5.93725 10.8946 4.72705 10.8946 3.23425C10.8946 1.74145 9.68453 0.531372 8.19173 0.531372ZM8.19173 4.3292C7.5871 4.3292 7.09678 3.839 7.09678 3.23425C7.09678 2.62962 7.5871 2.13937 8.19173 2.13937C8.79636 2.13937 9.28656 2.62962 9.28656 3.23425C9.28656 3.839 8.79642 4.3292 8.19173 4.3292Z" fill="#474B63"/>
<path d="M22.0981 0.531372C20.6054 0.531372 19.3952 1.74145 19.3952 3.23425C19.3952 4.72705 20.6054 5.93725 22.0981 5.93725C23.591 5.93725 24.8009 4.72705 24.8009 3.23425C24.8009 1.74145 23.5909 0.531372 22.0981 0.531372ZM22.0981 4.3292C21.4934 4.3292 21.0032 3.839 21.0032 3.23425C21.0032 2.62962 21.4934 2.13937 22.0981 2.13937C22.7028 2.13937 23.193 2.62962 23.193 3.23425C23.193 3.839 22.7028 4.3292 22.0981 4.3292Z" fill="#474B63"/>
<path d="M7.10333 3.1167C7.15308 1.95624 7.93402 0.985283 8.99744 0.653582C7.25509 0.110182 5.48895 1.41554 5.48895 3.2343C5.48895 5.05264 7.25486 6.35864 8.9975 5.81513C7.67849 5.40368 6.99974 4.08801 7.10333 3.1167Z" fill="#3E4356"/>
<path d="M21.0032 3.2343C21.0032 2.05703 21.7785 1.00462 22.9039 0.653582C21.1615 0.110182 19.3952 1.41554 19.3952 3.2343C19.3952 5.05264 21.1613 6.35853 22.9039 5.81513C21.7796 5.4645 21.0032 4.41274 21.0032 3.2343Z" fill="#3E4356"/>
<path d="M9.29113 19.4574C9.53388 19.4574 9.73058 19.2607 9.73058 19.018V17.5652C9.73058 17.3224 9.53388 17.1257 9.29113 17.1257H5.04382C4.80107 17.1257 4.60437 17.3224 4.60437 17.5652V23.6328C4.60437 23.8755 4.80107 24.0722 5.04382 24.0722H9.368C9.61076 24.0722 9.80746 23.8755 9.80746 23.6328V22.18C9.80746 21.9372 9.61076 21.7405 9.368 21.7405H7.14981V21.6624H8.91519C9.15794 21.6624 9.35464 21.4657 9.35464 21.2229V19.9899C9.35464 19.7471 9.15794 19.5504 8.91519 19.5504H7.14981V19.4576L9.29113 19.4574ZM6.71035 20.4292H8.47573V20.7833H6.71035C6.4676 20.7833 6.2709 20.98 6.2709 21.2227V22.1799C6.2709 22.4226 6.4676 22.6193 6.71035 22.6193H8.92855V23.1932H5.48334V18.0046H8.85161V18.5785H6.7103C6.46754 18.5785 6.27084 18.7752 6.27084 19.0179V19.9897C6.27084 20.2324 6.4676 20.4292 6.71035 20.4292Z" fill="black"/>
<path d="M16.2119 17.1257H14.4173C14.2601 17.1257 14.1149 17.2097 14.0365 17.3459L13.3149 18.5988L12.5933 17.3459C12.5148 17.2097 12.3697 17.1257 12.2125 17.1257H10.4094C10.0599 17.1257 9.85028 17.5153 10.0423 17.8069L11.9091 20.6425L10.1099 23.3922C9.91889 23.6842 10.1291 24.0723 10.4776 24.0723H12.2808C12.4391 24.0723 12.5853 23.9871 12.6633 23.8492L13.3149 22.697L13.9664 23.8492C14.0443 23.9871 14.1905 24.0723 14.3489 24.0723H16.1434C16.4923 24.0723 16.7021 23.684 16.5112 23.3922L14.7121 20.6425L16.5789 17.8069C16.7712 17.5149 16.561 17.1257 16.2119 17.1257ZM13.8194 20.4001C13.7232 20.5463 13.7229 20.7358 13.8187 20.8823L15.3308 23.1933H14.6053L13.6974 21.5877C13.5295 21.2905 13.1003 21.2906 12.9323 21.5877L12.0244 23.1933H11.2903L12.8025 20.8823C12.8983 20.7358 12.898 20.5463 12.8018 20.4001L11.2248 18.0047H11.9584L12.9341 19.6988C13.1034 19.9926 13.5275 19.9911 13.6957 19.6988L14.6713 18.0047H15.3964L13.8194 20.4001Z" fill="black"/>
<path d="M18.9502 24.0723C19.193 24.0723 19.3897 23.8756 19.3897 23.6328V17.5652C19.3897 17.3224 19.193 17.1257 18.9502 17.1257H17.2838C17.041 17.1257 16.8443 17.3224 16.8443 17.5652V23.6328C16.8443 23.8755 17.041 24.0722 17.2838 24.0722H18.9502V24.0723ZM17.7232 18.0047H18.5107V23.1933H17.7232V18.0047Z" fill="black"/>
<path d="M21.836 24.0723H23.5025C23.7453 24.0723 23.942 23.8756 23.942 23.6328V19.4575H25.2459C25.4886 19.4575 25.6853 19.2608 25.6853 19.0181V17.5653C25.6853 17.3226 25.4886 17.1259 25.2459 17.1259H20.0841C19.8414 17.1259 19.6447 17.3226 19.6447 17.5653V19.0181C19.6447 19.2608 19.8414 19.4575 20.0841 19.4575H21.3965V23.6328C21.3966 23.8755 21.5933 24.0723 21.836 24.0723ZM20.5237 18.5785V18.0046H24.8064V18.5785H23.5025C23.2598 18.5785 23.0631 18.7752 23.0631 19.018V23.1933H22.2756V19.018C22.2756 18.7752 22.0789 18.5785 21.8361 18.5785H20.5237Z" fill="black"/>
<path d="M9.72607 3.23313C9.72607 2.38709 9.03777 1.69873 8.19173 1.69873C7.34569 1.69873 6.65727 2.38703 6.65727 3.23313C6.65727 4.07923 7.34563 4.76759 8.19173 4.76759C9.03777 4.76759 9.72607 4.07917 9.72607 3.23313ZM7.53636 3.23313C7.53636 2.87178 7.83038 2.5777 8.19185 2.5777C8.5532 2.5777 8.84722 2.87172 8.84722 3.23313C8.84722 3.59454 8.55326 3.88862 8.19185 3.88862C7.83032 3.88862 7.53636 3.5946 7.53636 3.23313Z" fill="black"/>
<path d="M23.6324 3.23313C23.6324 2.38709 22.9441 1.69873 22.098 1.69873C21.2519 1.69873 20.5636 2.38703 20.5636 3.23313C20.5636 4.07923 21.2519 4.76759 22.098 4.76759C22.9441 4.76759 23.6324 4.07917 23.6324 3.23313ZM21.4427 3.23313C21.4427 2.87178 21.7367 2.5777 22.0981 2.5777C22.4595 2.5777 22.7536 2.87172 22.7536 3.23313C22.7536 3.59454 22.4595 3.88862 22.0981 3.88862C21.7367 3.88862 21.4427 3.5946 21.4427 3.23313Z" fill="black"/>
<path d="M2.22141 16.4409C1.97865 16.4409 1.78195 16.6376 1.78195 16.8804V28.0143C1.78195 28.2571 1.97865 28.4538 2.22141 28.4538H28.0683C28.3111 28.4538 28.5078 28.2571 28.5078 28.0143V13.1837C28.5078 12.941 28.3111 12.7443 28.0683 12.7443H2.22141C1.97865 12.7443 1.78195 12.941 1.78195 13.1837V14.8295C1.78195 15.0723 1.97865 15.269 2.22141 15.269C2.46416 15.269 2.66086 15.0723 2.66086 14.8295V13.6232H27.6288V27.5749H2.66092V16.8804C2.66092 16.6377 2.46416 16.4409 2.22141 16.4409Z" fill="black"/>
<path d="M28.1266 11.1071H22.5375V6.3442C24.0628 6.12969 25.2403 4.81666 25.2403 3.23316C25.2403 1.50047 23.8307 0.0908203 22.0981 0.0908203C20.3654 0.0908203 18.9558 1.50047 18.9558 3.23316C18.9558 4.81672 20.1333 6.12975 21.6586 6.3442V11.1071H8.63124V6.3442C10.1566 6.12969 11.3341 4.81666 11.3341 3.23316C11.3341 1.50047 9.92447 0.0908203 8.19173 0.0908203C6.45898 0.0908203 5.04945 1.50047 5.04945 3.23316C5.04945 4.81672 6.22695 6.12975 7.75227 6.3442V11.1071H2.16317C1.05029 11.1071 0.144897 12.0125 0.144897 13.1255V28.0725C0.144897 29.1854 1.05029 30.0908 2.16317 30.0908H24.0255C24.2683 30.0908 24.465 29.8941 24.465 29.6514C24.465 29.4086 24.2683 29.2119 24.0255 29.2119H2.16317C1.53492 29.2119 1.02387 28.7007 1.02387 28.0726V13.1255C1.02387 12.4971 1.53504 11.986 2.16317 11.986H28.1266C28.7548 11.986 29.2659 12.4972 29.2659 13.1255V28.0725C29.2659 28.7008 28.7547 29.2119 28.1266 29.2119H26.0764C25.8337 29.2119 25.637 29.4086 25.637 29.6513C25.637 29.8941 25.8337 30.0908 26.0764 30.0908H28.1266C29.2394 30.0908 30.1448 29.1854 30.1448 28.0724V13.1255C30.1449 12.0125 29.2395 11.1071 28.1266 11.1071ZM19.8347 3.23316C19.8347 1.98511 20.85 0.969789 22.098 0.969789C23.346 0.969789 24.3613 1.98511 24.3613 3.23316C24.3613 4.48127 23.346 5.49664 22.098 5.49664C20.85 5.4967 19.8347 4.48133 19.8347 3.23316ZM5.92842 3.23316C5.92842 1.98511 6.94373 0.969789 8.19173 0.969789C9.43972 0.969789 10.455 1.98511 10.455 3.23316C10.455 4.48127 9.43972 5.49664 8.19173 5.49664C6.94373 5.49664 5.92842 4.48133 5.92842 3.23316Z" fill="black"/>
</svg>
