<svg width="32" height="30" viewBox="0 0 32 30" fill="none" xmlns="http://www.w3.org/2000/svg">
<path d="M27.3475 0.667023V17.1289L25.3064 16.0083L19.3033 19.3433C19.8436 22.485 19.9703 24.8995 22.3983 27.3475H0.667023V0.667023H27.3475Z" fill="#EDB996"/>
<path d="M27.3475 0.667023V17.1289L25.3064 16.0083C21.3377 18.2361 28.7749 14.0072 17.9693 20.0103C18.4762 22.9719 18.5563 24.1925 19.5034 25.8934C14.8964 25.4371 10.6231 23.2859 7.51241 19.8572C4.40168 16.4285 2.67528 11.9667 2.66806 7.33714V0.667023H27.3475Z" fill="#F6CCAF"/>
<path d="M31.3495 19.3433C30.8559 22.4249 30.7759 24.446 28.8816 26.7472C27.9526 27.9037 26.7582 28.819 25.3998 29.4152C23.9677 28.8062 22.7105 27.849 21.7425 26.6305C20.7745 25.412 20.1263 23.971 19.8569 22.4383L19.3433 19.3767L25.3464 16.0416L31.3495 19.3433Z" fill="#9DCC6B"/>
<path d="M31.3495 19.3433C30.8559 22.4249 30.7759 24.446 28.8816 26.7472C28.2291 27.2867 27.5066 27.7354 26.7338 28.0812C25.3017 27.4722 24.0445 26.515 23.0765 25.2965C22.1085 24.078 21.4603 22.6369 21.1909 21.1042L20.7707 18.643L25.3064 16.0083L31.3495 19.3433Z" fill="#B5E08C"/>
<path d="M9.33817 0.667023H18.6763V7.33714H9.33817V0.667023Z" fill="#A87E6B"/>
<path d="M18.6763 0.667023V5.3361H16.0083C14.77 5.3361 13.5824 4.84418 12.7067 3.96856C11.8311 3.09294 11.3392 1.90534 11.3392 0.667023H18.6763Z" fill="#BE927C"/>
<path d="M3.33505 19.3433H11.3392V24.6794H3.33505V19.3433Z" fill="#DAD7E5"/>
<path d="M11.3392 19.3433V23.3454H8.67114C7.60972 23.3454 6.59178 22.9237 5.84125 22.1732C5.09071 21.4227 4.66907 20.4047 4.66907 19.3433H11.3392Z" fill="#EDEBF2"/>
<path d="M31.6497 18.723L28.0145 16.722V0.667011C28.0145 0.490109 27.9442 0.320452 27.8191 0.195363C27.694 0.0702742 27.5244 0 27.3475 0H0.667011C0.490109 0 0.320452 0.0702742 0.195363 0.195363C0.0702742 0.320452 0 0.490109 0 0.667011L0 27.3475C0 27.5244 0.0702742 27.694 0.195363 27.8191C0.320452 27.9442 0.490109 28.0145 0.667011 28.0145H22.1381C22.7117 28.5548 24.9262 30.2756 25.6466 29.9621C27.1803 29.2996 28.5215 28.2599 29.5455 26.9398C30.5694 25.6196 31.2428 24.0619 31.5029 22.4116C32.0165 19.3433 32.1966 19.0232 31.6497 18.723ZM18.0093 1.33402V6.67011H10.0052V1.33402H18.0093ZM1.33402 1.33402H8.67115V7.33712C8.67115 7.51403 8.74142 7.68368 8.86651 7.80877C8.9916 7.93386 9.16126 8.00414 9.33816 8.00414H18.6763C18.8532 8.00414 19.0229 7.93386 19.148 7.80877C19.2731 7.68368 19.3433 7.51403 19.3433 7.33712V1.33402H26.6805V16.0083C25.6533 15.4413 25.5399 15.3413 25.3464 15.3413C25.153 15.3413 25.4331 15.1878 19.0298 18.7897C18.4829 19.0965 18.683 19.39 19.2166 22.4783C19.4669 23.9951 20.0651 25.4334 20.9642 26.6805H1.33402V1.33402ZM30.1889 22.1981C29.9692 23.5763 29.4163 24.88 28.5782 25.996C27.7401 27.1119 26.6421 28.0063 25.3798 28.6014C24.1092 28.0241 22.9996 27.1439 22.1483 26.038C21.2971 24.9321 20.7302 23.6342 20.4973 22.2582L20.057 19.7302L25.3464 16.7687L30.6292 19.6702L30.1889 22.1981Z" fill="black"/>
<path d="M11.3392 18.6763H3.33507C3.15817 18.6763 2.98851 18.7466 2.86342 18.8717C2.73833 18.9968 2.66806 19.1664 2.66806 19.3433V24.6794C2.66806 24.8563 2.73833 25.026 2.86342 25.1511C2.98851 25.2761 3.15817 25.3464 3.33507 25.3464H11.3392C11.5161 25.3464 11.6858 25.2761 11.8109 25.1511C11.9359 25.026 12.0062 24.8563 12.0062 24.6794V19.3433C12.0062 19.1664 11.9359 18.9968 11.8109 18.8717C11.6858 18.7466 11.5161 18.6763 11.3392 18.6763ZM10.6722 24.0124H4.00208V20.0103H10.6722V24.0124Z" fill="black"/>
<path d="M6.0031 22.6784H8.67115C8.84805 22.6784 9.01771 22.6081 9.14279 22.483C9.26788 22.3579 9.33816 22.1883 9.33816 22.0114C9.33816 21.8345 9.26788 21.6648 9.14279 21.5397C9.01771 21.4146 8.84805 21.3444 8.67115 21.3444H6.0031C5.8262 21.3444 5.65654 21.4146 5.53145 21.5397C5.40636 21.6648 5.33609 21.8345 5.33609 22.0114C5.33609 22.1883 5.40636 22.3579 5.53145 22.483C5.65654 22.6081 5.8262 22.6784 6.0031 22.6784Z" fill="black"/>
<path d="M24.6794 23.7389L23.152 22.2048C23.0264 22.0792 22.856 22.0086 22.6784 22.0086C22.5008 22.0086 22.3304 22.0792 22.2048 22.2048C22.0792 22.3304 22.0086 22.5007 22.0086 22.6784C22.0086 22.856 22.0792 23.0264 22.2048 23.152L24.2058 25.153C24.2678 25.2155 24.3416 25.2651 24.4229 25.299C24.5042 25.3329 24.5914 25.3503 24.6794 25.3503C24.7675 25.3503 24.8546 25.3329 24.9359 25.299C25.0172 25.2651 25.091 25.2155 25.153 25.153L29.1551 21.1509C29.2807 21.0253 29.3512 20.855 29.3512 20.6773C29.3512 20.4997 29.2807 20.3294 29.1551 20.2038C29.0295 20.0782 28.8591 20.0076 28.6815 20.0076C28.5039 20.0076 28.3335 20.0782 28.2079 20.2038L24.6794 23.7389Z" fill="black"/>
</svg>
