<svg width="33" height="30" viewBox="0 0 33 30" fill="none" xmlns="http://www.w3.org/2000/svg">
<path d="M32.5252 6.80457V25.26C32.5252 25.9818 31.9394 26.5676 31.2176 26.5676H24.9451V19.9486C24.9451 19.5877 24.6522 19.2948 24.2913 19.2948H8.56086C8.19996 19.2948 7.90706 19.5864 7.90706 19.9486V26.5676C4.24055 26.5676 1.6345 26.5676 1.6345 26.5676C0.912709 26.5676 0.326904 25.9818 0.326904 25.26V6.80457C0.326904 6.08278 0.912709 5.49567 1.6345 5.49567H31.2176C31.9394 5.49567 32.5252 6.08278 32.5252 6.80457Z" fill="#72C2E9"/>
<path d="M19.913 11.9955L16.4261 7.34503L12.9391 11.9955H15.0154V14.7548H17.8367V11.9955H19.913Z" fill="#F0C020"/>
<path d="M22.1566 1.74736V5.49638H20.3099V2.17351H12.5422V5.49638H10.6956V1.74736C10.6956 0.962799 11.3317 0.326782 12.1162 0.326782H20.7361C21.5206 0.326782 22.1566 0.962799 22.1566 1.74736Z" fill="#FC5D3D"/>
<path d="M6.95513 3.66113H4.30724C3.94621 3.66113 3.65344 3.9539 3.65344 4.31493V5.49635H7.60893V4.31493C7.60893 3.9539 7.31616 3.66113 6.95513 3.66113Z" fill="#7D7B79"/>
<path d="M28.5449 3.66113H25.897C25.536 3.66113 25.2432 3.9539 25.2432 4.31493V5.49635H29.1987V4.31493C29.1987 3.9539 28.9059 3.66113 28.5449 3.66113Z" fill="#7D7B79"/>
<path d="M30.3993 15.3898L27.8555 12.0707L25.3119 15.3898H26.8266V19.9941H28.8846V15.3898H30.3993Z" fill="#F0C020"/>
<path d="M7.54027 15.3898L4.99659 12.0707L2.45279 15.3898H3.96751V19.9941H6.02554V15.3898H7.54027Z" fill="#F0C020"/>
<path d="M24.9451 19.9486V29.0194C24.9451 29.3803 24.6535 29.6732 24.2913 29.6732H8.56084C8.19995 29.6732 7.90704 29.3803 7.90704 29.0194V19.9486C7.90704 19.5864 8.19995 19.2948 8.56084 19.2948H24.2913C24.6522 19.2948 24.9451 19.5877 24.9451 19.9486Z" fill="#13BF6D"/>
<path d="M24.9451 17.6381V19.9486C24.9451 19.5877 24.6522 19.2948 24.2913 19.2948H8.56084C8.19995 19.2948 7.90704 19.5864 7.90704 19.9486V17.6381C7.90704 17.2758 8.19995 16.9843 8.56084 16.9843H24.2913C24.6522 16.9843 24.9451 17.2772 24.9451 17.6381Z" fill="#13BF6D"/>
<path d="M24.9451 18.9457V19.9487C24.9451 19.5878 24.6522 19.2949 24.2913 19.2949H8.56084C8.19995 19.2949 7.90704 19.5865 7.90704 19.9487V18.9457C7.90704 18.5835 8.19995 18.2919 8.56084 18.2919H24.2913C24.6522 18.2919 24.9451 18.5848 24.9451 18.9457Z" fill="#139C6E"/>
<path d="M23.2661 22.9464V26.0206C23.217 26.0157 23.1665 26.0134 23.1161 26.0134C22.1058 26.0134 21.2863 26.833 21.2863 27.8432C21.2863 27.8936 21.2886 27.944 21.2935 27.9932H11.5597C11.5645 27.944 11.5669 27.8936 11.5669 27.8432C11.5669 26.8328 10.7473 26.0134 9.73705 26.0134C9.68671 26.0134 9.63623 26.0157 9.58707 26.0206V22.9464C9.63623 22.9512 9.68671 22.9536 9.73705 22.9536C10.7474 22.9536 11.5669 22.134 11.5669 21.1237C11.5669 21.0734 11.5645 21.0229 11.5597 20.9738H21.2935C21.2886 21.0229 21.2863 21.0734 21.2863 21.1237C21.2863 22.1341 22.1059 22.9536 23.1161 22.9536C23.1665 22.9536 23.217 22.9512 23.2661 22.9464Z" fill="#76FFBB"/>
<path d="M16.4266 25.8234C17.1666 25.8234 17.7665 25.2235 17.7665 24.4835C17.7665 23.7435 17.1666 23.1436 16.4266 23.1436C15.6866 23.1436 15.0867 23.7435 15.0867 24.4835C15.0867 25.2235 15.6866 25.8234 16.4266 25.8234Z" fill="#13BF6D"/>
<path d="M7.90706 25.4564H3.98426C3.80368 25.4564 3.65736 25.31 3.65736 25.1295C3.65736 24.9489 3.80368 24.8026 3.98426 24.8026H7.90706C8.08764 24.8026 8.23396 24.9489 8.23396 25.1295C8.23396 25.31 8.08764 25.4564 7.90706 25.4564ZM2.67666 25.4564H2.08563C1.90505 25.4564 1.75873 25.31 1.75873 25.1295C1.75873 24.9489 1.90505 24.8026 2.08563 24.8026H2.67666C2.85724 24.8026 3.00356 24.9489 3.00356 25.1295C3.00356 25.31 2.85724 25.4564 2.67666 25.4564Z" fill="#C5E5FE"/>
<path d="M31.2451 25.4563H24.9451C24.7645 25.4563 24.6182 25.31 24.6182 25.1294C24.6182 24.9488 24.7645 24.8025 24.9451 24.8025H30.9182V6.93548C30.9182 6.7549 31.0645 6.60858 31.2451 6.60858C31.4257 6.60858 31.572 6.7549 31.572 6.93548V25.1294C31.572 25.31 31.4257 25.4563 31.2451 25.4563Z" fill="#C5E5FE"/>
<path d="M7.90706 25.4564H3.98426C3.80368 25.4564 3.65736 25.31 3.65736 25.1295C3.65736 24.9489 3.80368 24.8026 3.98426 24.8026H7.90706C8.08764 24.8026 8.23396 24.9489 8.23396 25.1295C8.23396 25.31 8.08764 25.4564 7.90706 25.4564ZM2.67666 25.4564H2.08563C1.90505 25.4564 1.75873 25.31 1.75873 25.1295C1.75873 24.9489 1.90505 24.8026 2.08563 24.8026H2.67666C2.85724 24.8026 3.00356 24.9489 3.00356 25.1295C3.00356 25.31 2.85724 25.4564 2.67666 25.4564Z" fill="#C5E5FE"/>
<path d="M31.2451 25.4563H24.9451C24.7645 25.4563 24.6182 25.31 24.6182 25.1294C24.6182 24.9488 24.7645 24.8025 24.9451 24.8025H30.9182V6.93548C30.9182 6.7549 31.0645 6.60858 31.2451 6.60858C31.4257 6.60858 31.572 6.7549 31.572 6.93548V25.1294C31.572 25.31 31.4257 25.4563 31.2451 25.4563Z" fill="#C5E5FE"/>
<path d="M17.5098 11.9957V14.755C17.5098 14.9356 17.6561 15.0819 17.8367 15.0819C18.0173 15.0819 18.1636 14.9356 18.1636 14.755V12.3226H19.913C20.1821 12.3226 20.3358 12.0145 20.1745 11.7995L16.6876 7.14906C16.5571 6.97476 16.2949 6.97502 16.1645 7.14906L12.6776 11.7995C12.5161 12.0149 12.6704 12.3226 12.9391 12.3226H14.6885V14.755C14.6885 14.9356 14.8348 15.0819 15.0154 15.0819C15.196 15.0819 15.3423 14.9356 15.3423 14.755V11.9957C15.3423 11.8151 15.196 11.6688 15.0154 11.6688H13.5927L16.4261 7.89008L19.2592 11.6688H17.8366C17.6561 11.6688 17.5098 11.8152 17.5098 11.9957Z" fill="black"/>
<path d="M31.2176 5.16881H29.5256V4.31508C29.5256 3.77491 29.0862 3.33438 28.5449 3.33438H25.897C25.3557 3.33438 24.9163 3.77491 24.9163 4.31508V5.16881H22.4829V1.74682C22.4829 0.78456 21.6996 0 20.7359 0H19.5852C19.4048 0 19.2583 0.14632 19.2583 0.3269C19.2583 0.507349 19.4048 0.6538 19.5852 0.6538H19.5865H20.7359C21.3374 0.655107 21.8291 1.14546 21.8304 1.74682V5.16881H20.6365V2.1731C20.6365 1.99893 20.4944 1.8462 20.3096 1.8462H12.5425C12.3577 1.8462 12.2156 1.99893 12.2156 2.1731V5.16881H11.0231V1.74682C11.0231 1.14533 11.5147 0.654977 12.1162 0.6538H16.9687C17.1492 0.6538 17.2956 0.507349 17.2956 0.3269C17.2956 0.14632 17.1492 0 16.9687 0H12.1162C11.1525 0 10.3693 0.78456 10.3693 1.74682V5.16881H7.93582V4.31508C7.93582 3.77491 7.49516 3.33438 6.95512 3.33438H4.30723C3.76589 3.33438 3.32653 3.77491 3.32653 4.31508V5.16881H1.6345C0.733563 5.16881 0 5.90368 0 6.80475V25.2602C0 26.1611 0.733563 26.8947 1.6345 26.8947H7.58016V29.0193C7.58016 29.5601 8.02003 30 8.56086 30H24.2913C24.8321 30 25.272 29.5601 25.272 29.0193C25.272 28.2936 25.272 27.7447 25.272 26.8947H31.2176C32.1186 26.8947 32.8521 26.1611 32.8521 25.2602V6.80475C32.8521 5.90381 32.1186 5.16881 31.2176 5.16881ZM25.5701 4.31508C25.5701 4.13594 25.7166 3.98818 25.897 3.98818H28.5449C28.7253 3.98818 28.8718 4.1345 28.8718 4.31508V5.16881H25.5701V4.31508ZM12.8694 2.5H19.9827V5.16881H12.8694V2.5ZM3.98033 4.31508C3.98033 4.1345 4.12678 3.98818 4.30723 3.98818H6.95512C7.13557 3.98818 7.28202 4.13594 7.28202 4.31508V5.16881H3.98033V4.31508ZM24.6182 19.9487V29.0193C24.6182 29.1996 24.4715 29.3462 24.2913 29.3462H8.56086C8.38067 29.3462 8.23395 29.1996 8.23395 29.0193C8.23395 27.3566 8.23395 20.7075 8.23395 19.9485C8.23395 19.7682 8.38067 19.6216 8.56086 19.6216H24.2913C24.4715 19.6216 24.6182 19.7682 24.6182 19.9485V19.9487ZM24.6182 19.0249C24.5158 18.9886 24.4061 18.9676 24.2913 18.9676C23.7158 18.9676 9.08756 18.9676 8.56086 18.9676C8.44605 18.9676 8.33634 18.9884 8.23395 19.0249V17.6382C8.23395 17.4579 8.38067 17.3113 8.56086 17.3113H24.2913C24.4715 17.3113 24.6182 17.4579 24.6182 17.6382V19.0249ZM32.1983 25.2602C32.197 25.8003 31.7577 26.2396 31.2176 26.2409H25.272C25.272 25.4747 25.272 19.1319 25.272 17.6382C25.272 17.0974 24.8321 16.6575 24.2913 16.6575H8.56086C8.02003 16.6575 7.58016 17.0974 7.58016 17.6382V26.2409H1.6345C1.09446 26.2396 0.655107 25.8003 0.6538 25.2602V6.80475C0.655107 6.26458 1.09446 5.82405 1.6345 5.82261H31.2176C31.7577 5.82405 32.197 6.26458 32.1983 6.80475V25.2602Z" fill="black"/>
<path d="M18.2763 0.6538C18.4569 0.6538 18.6032 0.507442 18.6032 0.3269C18.6032 0.146358 18.4569 0 18.2763 0C18.0958 0 17.9494 0.146358 17.9494 0.3269C17.9494 0.507442 18.0958 0.6538 18.2763 0.6538Z" fill="black"/>
<path d="M28.5577 15.3899V19.9941C28.5577 20.1747 28.704 20.321 28.8846 20.321C29.0652 20.321 29.2115 20.1747 29.2115 19.9941V15.7168H30.3992C30.6695 15.7168 30.8233 15.4059 30.6586 15.191L28.115 11.8718C27.9841 11.701 27.7267 11.7013 27.596 11.8718L25.0523 15.191C24.8878 15.4056 25.0412 15.7168 25.3117 15.7168H26.4994V19.9941C26.4994 20.1747 26.6457 20.321 26.8263 20.321C27.0069 20.321 27.1532 20.1747 27.1532 19.9941V15.3899C27.1532 15.2093 27.0069 15.063 26.8263 15.063H25.974L27.8554 12.6083L29.7368 15.063H28.8845C28.704 15.063 28.5577 15.2095 28.5577 15.3899Z" fill="black"/>
<path d="M5.69876 15.3899V19.9941C5.69876 20.1747 5.84508 20.321 6.02566 20.321C6.20624 20.321 6.35256 20.1747 6.35256 19.9941V15.7168H7.54026C7.81054 15.7168 7.96431 15.4059 7.79968 15.191L5.25601 11.8718C5.12512 11.701 4.86778 11.7013 4.73702 11.8718L2.19335 15.191C2.02885 15.4056 2.18224 15.7168 2.45278 15.7168H3.64047V19.9941C3.64047 20.1747 3.78679 20.321 3.96737 20.321C4.14795 20.321 4.29427 20.1747 4.29427 19.9941V15.3899C4.29427 15.2093 4.14795 15.063 3.96737 15.063H3.11508L4.99645 12.6083L6.87783 15.063H6.02553C5.84508 15.063 5.69876 15.2095 5.69876 15.3899Z" fill="black"/>
<path d="M11.5401 24.1237V24.8436C11.5401 25.0242 11.6864 25.1705 11.867 25.1705C12.0476 25.1705 12.1939 25.0242 12.1939 24.8436V24.1237C12.1939 23.9431 12.0476 23.7968 11.867 23.7968C11.6864 23.7968 11.5401 23.9432 11.5401 24.1237Z" fill="black"/>
<path d="M21.3132 24.8436V24.1237C21.3132 23.9431 21.1669 23.7968 20.9863 23.7968C20.8057 23.7968 20.6594 23.9431 20.6594 24.1237V24.8436C20.6594 25.0242 20.8057 25.1705 20.9863 25.1705C21.1669 25.1705 21.3132 25.0242 21.3132 24.8436Z" fill="black"/>
<path d="M23.2348 22.6215C22.3405 22.706 21.5321 21.9195 21.6186 21.0053C21.6377 20.8132 21.4851 20.647 21.293 20.647H11.5592C11.3701 20.647 11.2154 20.8102 11.2349 21.0053C11.3041 21.9731 10.4804 22.703 9.61872 22.6215C9.42467 22.6018 9.26044 22.7558 9.26044 22.947V26.0213C9.26044 26.216 9.42938 26.3648 9.61872 26.3454C10.5544 26.2883 11.2388 27.0177 11.2401 27.8426C11.2401 27.9734 11.2056 28.3199 11.5592 28.3199H13.1597C13.3401 28.3199 13.4866 28.1734 13.4866 27.993C13.4866 27.8139 13.3415 27.6674 13.1623 27.6674C13.161 27.6661 13.161 27.6661 13.1597 27.6661H11.8861C11.8021 26.6152 10.9601 25.7777 9.91424 25.6942V23.2737C10.9662 23.1872 11.8025 22.3464 11.8861 21.3006H20.9661C21.0526 22.3494 21.8892 23.1873 22.9392 23.2737V25.6942C21.8937 25.7777 21.0529 26.6139 20.9661 27.6661H15.7749C15.5944 27.6661 15.448 27.8124 15.448 27.993C15.448 28.1734 15.5944 28.3199 15.7749 28.3199H21.293C21.4847 28.3199 21.6378 28.154 21.6186 27.9616C21.5375 27.1304 22.2284 26.284 23.2348 26.3454C23.4244 26.3648 23.593 26.2157 23.593 26.0213V22.947C23.593 22.7561 23.4291 22.6018 23.2348 22.6215Z" fill="black"/>
<path d="M14.4673 28.32C14.6478 28.32 14.7942 28.1736 14.7942 27.9931C14.7942 27.8126 14.6478 27.6662 14.4673 27.6662C14.2867 27.6662 14.1404 27.8126 14.1404 27.9931C14.1404 28.1736 14.2867 28.32 14.4673 28.32Z" fill="black"/>
<path d="M18.0934 24.4836C18.0934 23.5646 17.3457 22.8168 16.4266 22.8168C15.5075 22.8168 14.7598 23.5646 14.7598 24.4836C14.7598 25.4026 15.5075 26.1504 16.4266 26.1504C17.3457 26.1504 18.0934 25.4027 18.0934 24.4836ZM15.4136 24.4836C15.4136 23.9252 15.868 23.4706 16.4266 23.4706C16.9852 23.4706 17.4396 23.9252 17.4396 24.4836C17.4396 25.0421 16.9852 25.4966 16.4266 25.4966C15.868 25.4966 15.4136 25.0422 15.4136 24.4836Z" fill="black"/>
</svg>
