<svg width="31" height="34" viewBox="0 0 31 34" fill="none" xmlns="http://www.w3.org/2000/svg">
<path d="M15.6734 12.7811C15.4928 12.9584 15.3493 13.1698 15.2513 13.4031C15.1533 13.6365 15.1029 13.887 15.1029 14.14C15.1029 14.3931 15.1533 14.6436 15.2513 14.8769C15.3493 15.1103 15.4928 15.3217 15.6734 15.4989L18.1903 17.984L20.1519 19.9139V26.1267C20.1519 26.4997 20.0037 26.8575 19.74 27.1212C19.4762 27.385 19.1185 27.5332 18.7454 27.5332H12.8552V6.99666L11.6814 6.46791L6.64242 4.14142L2.24325 2.10575V2H18.7507C18.9354 2 19.1183 2.03638 19.289 2.10706C19.4596 2.17774 19.6146 2.28134 19.7452 2.41194C19.8758 2.54255 19.9794 2.69759 20.0501 2.86824C20.1208 3.03888 20.1572 3.22177 20.1572 3.40647V8.35025L18.1955 10.2855L15.6734 12.7811Z" fill="#4094C9"/>
<path d="M15.6734 12.7811C15.4928 12.9583 15.3493 13.1698 15.2513 13.4031C15.1533 13.6364 15.1029 13.887 15.1029 14.14C15.1029 14.3931 15.1533 14.6436 15.2513 14.8769C15.3493 15.1102 15.4928 15.3217 15.6734 15.4989L18.1903 17.984V25.323H12.8552V6.99665L11.6814 6.4679L6.64242 4.14142H18.1903V10.2855L15.6734 12.7811Z" fill="#F0E5CD"/>
<path d="M12.8288 8.28149V31.0176C12.8287 31.1808 12.7875 31.3413 12.7091 31.4844C12.6308 31.6275 12.5177 31.7486 12.3802 31.8365C12.2428 31.9244 12.0854 31.9764 11.9227 31.9876C11.7599 31.9988 11.5969 31.9689 11.4487 31.9006L3.07867 28.0408C2.76121 27.8895 2.49327 27.6511 2.30605 27.3534C2.11882 27.0557 2.02003 26.711 2.02117 26.3593V2.03699L2.25382 2.14274L6.61598 4.1414L11.6549 6.4626C12.003 6.62314 12.2982 6.87943 12.5061 7.20151C12.714 7.52359 12.8259 7.89817 12.8288 8.28149Z" fill="#4094C9"/>
<path d="M29.5847 11.454V16.7415C29.5847 17.0219 29.4733 17.2909 29.275 17.4892C29.0767 17.6876 28.8077 17.799 28.5273 17.799H22.3726V19.1684C22.3723 19.4133 22.2996 19.6526 22.1637 19.8563C22.0278 20.06 21.8348 20.219 21.6088 20.3133C21.3828 20.4076 21.134 20.4331 20.8937 20.3865C20.6533 20.3399 20.432 20.2234 20.2577 20.0514L20.1519 19.914L18.1903 17.9788L15.6734 15.4936C15.4928 15.3164 15.3493 15.105 15.2513 14.8717C15.1533 14.6383 15.1029 14.3878 15.1029 14.1348C15.1029 13.8817 15.1533 13.6312 15.2513 13.3979C15.3493 13.1645 15.4928 12.9531 15.6734 12.7759L18.1903 10.2908L20.1519 8.35556L20.2682 8.23923C20.4438 8.06951 20.6654 7.95506 20.9054 7.91005C21.1455 7.86504 21.3934 7.89146 21.6186 7.98603C21.8438 8.0806 22.0362 8.23916 22.1722 8.44207C22.3081 8.64498 22.3815 8.88331 22.3832 9.12753V10.4177H28.5325C28.8085 10.419 29.0729 10.5281 29.2695 10.7217C29.4661 10.9154 29.5792 11.1781 29.5847 11.454Z" fill="#37B44A"/>
<path d="M10.497 20.4057H9.68272C9.45694 20.4057 9.24041 20.316 9.08077 20.1564C8.92112 19.9967 8.83143 19.7802 8.83143 19.5544V14.2141C8.83143 13.9883 8.92112 13.7718 9.08077 13.6121C9.24041 13.4525 9.45694 13.3628 9.68272 13.3628H10.5076L10.497 20.4057Z" stroke="#010101" stroke-width="2.41932" stroke-linecap="round" stroke-linejoin="round"/>
<path d="M3.94581 6.08722V11.4804" stroke="#010101" stroke-width="2.41932" stroke-linecap="round" stroke-linejoin="round"/>
<path d="M3.94581 13.368V16.7679" stroke="#010101" stroke-width="2.41932" stroke-linecap="round" stroke-linejoin="round"/>
<g opacity="0.0625">
<path d="M19.8664 8.6199L17.3495 11.105C17.3178 11.1367 17.2967 11.1738 17.2649 11.2055L18.1903 10.2907L20.1519 8.35553L19.8664 8.6199Z" fill="#010101"/>
<path d="M14.5049 25.8677V5.33115L13.3311 4.8024L8.29211 2.46534L7.30864 2.01062H2.23267V2.11637L6.61599 4.14147L11.6549 6.46796L12.8288 6.9967V27.5438H18.7349C19.1079 27.5438 19.4656 27.3956 19.7294 27.1319C19.9931 26.8681 20.1413 26.5104 20.1413 26.1373V25.8677H14.5049Z" fill="#010101"/>
<path d="M17.0006 11.454L16.9318 11.5333L18.1903 10.2907L17.0006 11.454Z" fill="#010101"/>
<path d="M14.1559 24.0065V5.68013L12.9821 5.14081L10.8142 4.14148H6.62127L11.6602 6.46797L12.8288 7.002V25.3284H18.1903V24.0065H14.1559Z" fill="#010101"/>
<path d="M21.1459 18.2537L21.0296 18.1374L19.068 16.2128L16.5564 13.7171C16.221 13.3852 16.0212 12.9404 15.996 12.4692L15.6734 12.7918C15.4928 12.969 15.3493 13.1804 15.2513 13.4138C15.1533 13.6471 15.1029 13.8976 15.1029 14.1507C15.1029 14.4037 15.1533 14.6542 15.2513 14.8876C15.3493 15.1209 15.4928 15.3323 15.6734 15.5095L18.1903 17.9946L20.1466 19.914L20.2629 20.0303C20.4373 20.2022 20.6586 20.3188 20.8989 20.3654C21.1393 20.412 21.3881 20.3865 21.6141 20.2922C21.8401 20.1979 22.0331 20.0389 22.169 19.8352C22.3049 19.6315 22.3776 19.3922 22.3779 19.1473V18.5604C22.1641 18.6259 21.9364 18.632 21.7194 18.578C21.5024 18.524 21.3041 18.4119 21.1459 18.2537Z" fill="#010101"/>
<path d="M29.4155 15.9959H23.2715V17.3654C23.2719 17.5096 23.2468 17.6528 23.1975 17.7884H28.5325C28.813 17.7884 29.082 17.6769 29.2803 17.4786C29.4786 17.2803 29.59 17.0113 29.59 16.7309V15.98C29.5325 15.9909 29.4741 15.9962 29.4155 15.9959Z" fill="#010101"/>
<path d="M5.02446 26.6238C4.707 26.4725 4.43906 26.2341 4.25183 25.9365C4.06461 25.6388 3.96582 25.294 3.96696 24.9424V2.90949L2.23267 2.11637L2.00002 2.01062V26.333C1.99824 26.6848 2.09678 27.0298 2.28407 27.3276C2.47136 27.6254 2.73966 27.8636 3.05752 28.0144L11.4276 31.8742C11.5746 31.9464 11.7375 31.9802 11.9011 31.9726C12.0647 31.965 12.2237 31.9163 12.3635 31.8308C12.5032 31.7454 12.6191 31.6261 12.7004 31.484C12.7818 31.3418 12.8259 31.1814 12.8288 31.0177V30.2246L5.02446 26.6238Z" fill="#010101"/>
</g>
<path d="M18.1903 10.2961L20.1519 8.36087V3.41709C20.1519 3.23239 20.1155 3.0495 20.0448 2.87886C19.9742 2.70821 19.8706 2.55317 19.74 2.42256C19.6094 2.29196 19.4543 2.18836 19.2837 2.11768C19.113 2.047 18.9301 2.01062 18.7454 2.01062H17.8201C18.1885 2.01755 18.5395 2.16878 18.7976 2.4318C19.0557 2.69481 19.2002 3.0486 19.2002 3.41709V8.36087L17.2385 10.2961L14.7217 12.7812C14.541 12.9584 14.3975 13.1698 14.2995 13.4032C14.2016 13.6365 14.1511 13.887 14.1511 14.1401C14.1511 14.3931 14.2016 14.6436 14.2995 14.877C14.3975 15.1103 14.541 15.3217 14.7217 15.499L17.2385 17.9841L19.2002 19.914V26.1268C19.2002 26.4998 19.052 26.8575 18.7882 27.1213C18.5245 27.3851 18.1667 27.5332 17.7937 27.5332H18.719C19.092 27.5332 19.4498 27.3851 19.7135 27.1213C19.9773 26.8575 20.1255 26.4998 20.1255 26.1268V19.914L18.1638 17.9788L15.647 15.4937C15.4663 15.3165 15.3228 15.105 15.2249 14.8717C15.1269 14.6384 15.0764 14.3878 15.0764 14.1348C15.0764 13.8817 15.1269 13.6312 15.2249 13.3979C15.3228 13.1646 15.4663 12.9531 15.647 12.7759L18.1903 10.2961Z" fill="white"/>
<path d="M15.61 12.8604L14.4414 14.0131C14.2592 14.1905 14.1143 14.4026 14.0154 14.6369C13.9164 14.8712 13.8655 15.1229 13.8655 15.3772C13.8655 15.6316 13.9164 15.8833 14.0154 16.1176C14.1143 16.3519 14.2592 16.564 14.4414 16.7414L16.9583 19.2265V25.323H18.1903V17.984L15.6734 15.4989C15.3227 15.1532 15.12 14.6848 15.1081 14.1925C15.0963 13.7002 15.2762 13.2225 15.61 12.8604Z" fill="white"/>
<path d="M6.62127 4.14142L9.28615 5.36811H16.9583V11.5121L18.1903 10.296V4.14142H6.62127Z" fill="white"/>
<path d="M11.6602 6.46267L6.62127 4.14147L2.23796 2.11637L2.00531 2.01062V3.19501L4.05685 4.14147L9.09581 6.46267C9.44389 6.62321 9.73911 6.8795 9.94696 7.20158C10.1548 7.52366 10.2667 7.89824 10.2696 8.28156V31.0177C10.2692 31.1243 10.2495 31.23 10.2115 31.3296L11.454 31.9007C11.6031 31.9738 11.7683 32.0075 11.9341 31.9987C12.0999 31.9898 12.2606 31.9387 12.401 31.8502C12.5415 31.7617 12.6569 31.6388 12.7364 31.493C12.8159 31.3473 12.8568 31.1837 12.8552 31.0177V8.28156C12.8485 7.89638 12.7327 7.52099 12.5212 7.19902C12.3097 6.87705 12.0111 6.62171 11.6602 6.46267Z" fill="white"/>
<path d="M28.5273 10.3965H22.3726V9.12753C22.3709 8.88331 22.2975 8.64498 22.1616 8.44207C22.0257 8.23916 21.8332 8.0806 21.608 7.98603C21.3829 7.89146 21.1349 7.86504 20.8949 7.91005C20.6548 7.95506 20.4333 8.06951 20.2577 8.23923L20.1413 8.35556L18.185 10.2908L15.6681 12.7759C15.6475 12.7995 15.6281 12.8242 15.61 12.8499L17.0006 11.454L18.9622 9.5188L19.0785 9.40248C19.2542 9.23276 19.4757 9.1183 19.7158 9.07329C19.9558 9.02828 20.2038 9.0547 20.4289 9.14927C20.6541 9.24384 20.8466 9.40241 20.9825 9.60532C21.1184 9.80822 21.1918 10.0466 21.1935 10.2908V11.5809H27.3429C27.6233 11.5809 27.8923 11.6923 28.0906 11.8906C28.2889 12.089 28.4004 12.3579 28.4004 12.6384V17.799H28.5273C28.8077 17.799 29.0767 17.6876 29.275 17.4892C29.4733 17.2909 29.5847 17.0219 29.5847 16.7415V11.454C29.5847 11.1735 29.4733 10.9046 29.275 10.7063C29.0767 10.5079 28.8077 10.3965 28.5273 10.3965Z" fill="white"/>
<path d="M15.6734 12.7811C15.4928 12.9584 15.3493 13.1698 15.2513 13.4031C15.1533 13.6365 15.1029 13.887 15.1029 14.14C15.1029 14.3931 15.1533 14.6436 15.2513 14.8769C15.3493 15.1103 15.4928 15.3217 15.6734 15.4989L18.1903 17.984L20.1519 19.9139V26.1267C20.1519 26.4997 20.0037 26.8575 19.74 27.1212C19.4762 27.385 19.1185 27.5332 18.7454 27.5332H12.8552V6.99666L11.6814 6.46791L6.64242 4.14142L2.24325 2.10575V2H18.7507C18.9354 2 19.1183 2.03638 19.289 2.10706C19.4596 2.17774 19.6146 2.28134 19.7452 2.41194C19.8758 2.54255 19.9794 2.69759 20.0501 2.86824C20.1208 3.03888 20.1572 3.22177 20.1572 3.40647V8.35025L18.1955 10.2855L15.6734 12.7811Z" stroke="#010101" stroke-width="2.41932" stroke-linecap="round" stroke-linejoin="round"/>
<path d="M15.6734 12.7811C15.4928 12.9583 15.3493 13.1698 15.2513 13.4031C15.1533 13.6364 15.1029 13.887 15.1029 14.14C15.1029 14.3931 15.1533 14.6436 15.2513 14.8769C15.3493 15.1102 15.4928 15.3217 15.6734 15.4989L18.1903 17.984V25.323H12.8552V6.99665L11.6814 6.4679L6.64242 4.14142H18.1903V10.2855L15.6734 12.7811Z" stroke="#010101" stroke-width="2.41932" stroke-linecap="round" stroke-linejoin="round"/>
<path d="M12.8288 8.28149V31.0176C12.8287 31.1808 12.7875 31.3413 12.7091 31.4844C12.6308 31.6275 12.5177 31.7486 12.3802 31.8365C12.2428 31.9244 12.0854 31.9764 11.9227 31.9876C11.7599 31.9988 11.5969 31.9689 11.4487 31.9006L3.07867 28.0408C2.76121 27.8895 2.49327 27.6511 2.30605 27.3534C2.11882 27.0557 2.02003 26.711 2.02117 26.3593V2.03699L2.25382 2.14274L6.61598 4.1414L11.6549 6.4626C12.003 6.62314 12.2982 6.87943 12.5061 7.20151C12.714 7.52359 12.8259 7.89817 12.8288 8.28149Z" stroke="#010101" stroke-width="2.41932" stroke-linecap="round" stroke-linejoin="round"/>
<path d="M29.5847 11.454V16.7415C29.5847 17.0219 29.4733 17.2909 29.275 17.4892C29.0767 17.6876 28.8077 17.799 28.5273 17.799H22.3726V19.1684C22.3723 19.4133 22.2996 19.6526 22.1637 19.8563C22.0278 20.06 21.8348 20.219 21.6088 20.3133C21.3828 20.4076 21.134 20.4331 20.8937 20.3865C20.6533 20.3399 20.432 20.2234 20.2577 20.0514L20.1519 19.914L18.1903 17.9788L15.6734 15.4936C15.4928 15.3164 15.3493 15.105 15.2513 14.8717C15.1533 14.6383 15.1029 14.3878 15.1029 14.1348C15.1029 13.8817 15.1533 13.6312 15.2513 13.3979C15.3493 13.1645 15.4928 12.9531 15.6734 12.7759L18.1903 10.2908L20.1519 8.35556L20.2682 8.23923C20.4438 8.06951 20.6654 7.95506 20.9054 7.91005C21.1455 7.86504 21.3934 7.89146 21.6186 7.98603C21.8438 8.0806 22.0362 8.23916 22.1722 8.44207C22.3081 8.64498 22.3815 8.88331 22.3832 9.12753V10.4177H28.5325C28.8085 10.419 29.0729 10.5281 29.2695 10.7217C29.4661 10.9154 29.5792 11.1781 29.5847 11.454Z" stroke="#010101" stroke-width="2.41932" stroke-linecap="round" stroke-linejoin="round"/>
<path d="M10.497 20.4057H9.68272C9.45694 20.4057 9.24041 20.316 9.08077 20.1564C8.92112 19.9967 8.83143 19.7802 8.83143 19.5544V14.2141C8.83143 13.9883 8.92112 13.7718 9.08077 13.6121C9.24041 13.4525 9.45694 13.3628 9.68272 13.3628H10.5076L10.497 20.4057Z" stroke="#010101" stroke-width="2.41932" stroke-linecap="round" stroke-linejoin="round"/>
<path d="M3.94581 6.08722V11.4804" stroke="#010101" stroke-width="2.41932" stroke-linecap="round" stroke-linejoin="round"/>
<path d="M3.94581 13.368V16.7679" stroke="#010101" stroke-width="2.41932" stroke-linecap="round" stroke-linejoin="round"/>
</svg>
