<svg width="26" height="30" viewBox="0 0 26 30" fill="none" xmlns="http://www.w3.org/2000/svg">
<path d="M20.5333 22.5122V28.2212H5.24803V22.5122C5.24803 21.2197 5.76147 19.9801 6.67541 19.0662C7.58935 18.1522 8.82891 17.6388 10.1214 17.6388H15.657C16.9495 17.6388 18.1891 18.1522 19.103 19.0662C20.0169 19.9801 20.5304 21.2197 20.5304 22.5122H20.5333Z" fill="#68E1FD"/>
<path d="M20.5333 28.3645H5.24803C5.21001 28.3645 5.17356 28.3494 5.14668 28.3226C5.1198 28.2957 5.10469 28.2592 5.10469 28.2212V22.5122C5.10469 21.1817 5.63324 19.9056 6.57406 18.9648C7.51487 18.024 8.7909 17.4955 10.1214 17.4955H15.657C16.9875 17.4955 18.2635 18.024 19.2044 18.9648C20.1452 19.9056 20.6737 21.1817 20.6737 22.5122V28.2212C20.6737 28.2587 20.659 28.2948 20.6328 28.3216C20.6065 28.3484 20.5708 28.3638 20.5333 28.3645ZM5.39136 28.0779H20.3899V22.5122C20.3899 21.2577 19.8916 20.0546 19.0045 19.1675C18.1175 18.2805 16.9144 17.7821 15.6599 17.7821H10.1228C9.36325 17.7794 8.61444 17.962 7.94129 18.3139C7.17217 18.7134 6.52758 19.3164 6.0779 20.0573C5.62821 20.7982 5.39073 21.6484 5.39136 22.515V28.0779Z" fill="#093F68"/>
<path d="M14.0216 15.3741H11.7597V17.6359H14.0216V15.3741Z" fill="#FFC9B0"/>
<path d="M14.0216 17.7793H11.7597C11.7217 17.7793 11.6853 17.7642 11.6584 17.7373C11.6315 17.7104 11.6164 17.6739 11.6164 17.6359V15.3741C11.6164 15.3361 11.6315 15.2996 11.6584 15.2728C11.6853 15.2459 11.7217 15.2308 11.7597 15.2308H14.0216C14.0596 15.2308 14.096 15.2459 14.1229 15.2728C14.1498 15.2996 14.1649 15.3361 14.1649 15.3741V17.6359C14.1649 17.6739 14.1498 17.7104 14.1229 17.7373C14.096 17.7642 14.0596 17.7793 14.0216 17.7793ZM11.9031 17.4926H13.8782V15.5174H11.9031V17.4926Z" fill="#093F68"/>
<path d="M8.22939 13.3115C9.11284 13.3115 9.82901 12.3297 9.82901 11.1185C9.82901 9.90731 9.11284 8.92546 8.22939 8.92546C7.34595 8.92546 6.62978 9.90731 6.62978 11.1185C6.62978 12.3297 7.34595 13.3115 8.22939 13.3115Z" fill="#FFC9B0"/>
<path d="M8.22939 13.4548C7.26905 13.4548 6.48788 12.4071 6.48788 11.1185C6.48788 9.8299 7.26905 8.78069 8.22939 8.78069C9.18974 8.78069 9.97235 9.8299 9.97235 11.1185C9.97235 12.4071 9.19117 13.4548 8.22939 13.4548ZM8.22939 9.06736C7.42672 9.06736 6.77455 9.98757 6.77455 11.1185C6.77455 12.2494 7.42672 13.1682 8.22939 13.1682C9.03207 13.1682 9.68568 12.2494 9.68568 11.1185C9.68568 9.98757 9.03207 9.06736 8.22939 9.06736Z" fill="#093F68"/>
<path d="M17.5519 13.3115C18.4353 13.3115 19.1515 12.3297 19.1515 11.1185C19.1515 9.90731 18.4353 8.92546 17.5519 8.92546C16.6685 8.92546 15.9523 9.90731 15.9523 11.1185C15.9523 12.3297 16.6685 13.3115 17.5519 13.3115Z" fill="#FFC9B0"/>
<path d="M17.5519 13.4548C16.5916 13.4548 15.8089 12.4071 15.8089 11.1185C15.8089 9.8299 16.5916 8.78069 17.5519 8.78069C18.5122 8.78069 19.2948 9.8299 19.2948 11.1185C19.2948 12.4071 18.5122 13.4548 17.5519 13.4548ZM17.5519 9.06736C16.7492 9.06736 16.0956 9.98757 16.0956 11.1185C16.0956 12.2494 16.7492 13.1682 17.5519 13.1682C18.3546 13.1682 19.0082 12.2494 19.0082 11.1185C19.0082 9.98757 18.3546 9.06736 17.5519 9.06736Z" fill="#093F68"/>
<path d="M16.0311 5.16722C16.2706 5.16703 16.5078 5.21406 16.7291 5.30562C16.9503 5.39718 17.1514 5.53147 17.3207 5.70081C17.4901 5.87015 17.6244 6.07121 17.7159 6.2925C17.8075 6.51379 17.8545 6.75096 17.8543 6.99044V11.9197C17.8545 12.5429 17.7319 13.16 17.4936 13.7358C17.2553 14.3115 16.9058 14.8347 16.4652 15.2754C16.0247 15.7162 15.5016 16.0657 14.9259 16.3043C14.3502 16.5428 13.7331 16.6655 13.1099 16.6655H12.6799C12.0566 16.6657 11.4393 16.5431 10.8634 16.3047C10.2874 16.0663 9.76406 15.7167 9.32322 15.276C8.88237 14.8353 8.53267 14.3121 8.29408 13.7362C8.05549 13.1603 7.93269 12.5431 7.93269 11.9197V6.99044C7.93269 6.50689 8.12478 6.04315 8.4667 5.70123C8.80862 5.35931 9.27236 5.16722 9.75591 5.16722H16.0311Z" fill="#FFC9B0"/>
<path d="M13.1099 16.8089H12.6799C11.3836 16.8074 10.1407 16.2918 9.22396 15.3753C8.30716 14.4588 7.79125 13.2161 7.78936 11.9197V6.99045C7.79011 6.46912 7.99755 5.96936 8.36618 5.60072C8.73482 5.23209 9.23458 5.02465 9.75591 5.0239H16.0368C16.5573 5.02579 17.0558 5.23377 17.4233 5.60233C17.7908 5.97088 17.9973 6.47 17.9977 6.99045V11.9197C17.9965 13.2158 17.4813 14.4585 16.5649 15.3751C15.6486 16.2917 14.406 16.8074 13.1099 16.8089ZM9.75018 5.31057C9.30488 5.31132 8.87803 5.48855 8.56316 5.80343C8.24828 6.11831 8.07105 6.54515 8.07029 6.99045V11.9197C8.07181 13.1402 8.5574 14.3102 9.42051 15.173C10.2836 16.0359 11.4538 16.5211 12.6742 16.5222H13.1042C14.3243 16.5207 15.4939 16.0353 16.3565 15.1724C17.2191 14.3096 17.7041 13.1398 17.7053 11.9197V6.99045C17.7045 6.54515 17.5273 6.11831 17.2124 5.80343C16.8975 5.48855 16.4707 5.31132 16.0254 5.31057H9.75018Z" fill="#093F68"/>
<path d="M16.4023 13.343C15.8863 12.5805 14.5089 12.0344 12.8906 12.0344C11.2724 12.0344 9.89494 12.5805 9.37894 13.343C8.91913 12.901 8.55347 12.3706 8.30394 11.7836C8.05442 11.1966 7.92618 10.5652 7.92696 9.92737V11.9197C7.92696 12.5431 8.04976 13.1603 8.28835 13.7362C8.52694 14.3121 8.87664 14.8353 9.31748 15.276C9.75832 15.7167 10.2817 16.0663 10.8576 16.3047C11.4336 16.5431 12.0509 16.6657 12.6742 16.6655H13.1042C13.7274 16.6655 14.3444 16.5428 14.9201 16.3043C15.4959 16.0657 16.0189 15.7161 16.4595 15.2754C16.9001 14.8347 17.2495 14.3115 17.4879 13.7358C17.7262 13.16 17.8488 12.5429 17.8486 11.9197V9.92737C17.8501 10.5648 17.7228 11.1959 17.4743 11.7829C17.2257 12.3698 16.8611 12.9005 16.4023 13.343ZM12.8906 15.2895C11.6408 15.2895 10.6145 14.7864 10.4912 14.1428C10.4826 14.0999 10.4783 14.0562 10.4783 14.0124C10.4783 13.3058 11.5576 12.7339 12.8906 12.7339C14.2237 12.7339 15.303 13.3072 15.303 14.0124C15.3029 14.0572 15.2986 14.1018 15.2901 14.1457C15.1639 14.7879 14.1391 15.2895 12.8906 15.2895Z" fill="#725858"/>
<path d="M13.1099 16.8089H12.6799C11.3836 16.8074 10.1407 16.2918 9.22396 15.3753C8.30716 14.4588 7.79125 13.2161 7.78936 11.9197V9.92738C7.78936 9.88936 7.80446 9.85291 7.83134 9.82603C7.85822 9.79914 7.89468 9.78404 7.93269 9.78404C7.97071 9.78404 8.00716 9.79914 8.03404 9.82603C8.06092 9.85291 8.07603 9.88936 8.07603 9.92738C8.07115 11.121 8.53427 12.269 9.36604 13.1252C9.98525 12.3813 11.3727 11.8911 12.8935 11.8911C14.4143 11.8911 15.8018 12.3813 16.421 13.1252C17.2528 12.269 17.7159 11.121 17.711 9.92738C17.711 9.88936 17.7261 9.85291 17.753 9.82603C17.7799 9.79914 17.8163 9.78404 17.8543 9.78404C17.8923 9.78404 17.9288 9.79914 17.9557 9.82603C17.9826 9.85291 17.9977 9.88936 17.9977 9.92738V11.9197C17.9965 13.2158 17.4813 14.4585 16.5649 15.3751C15.6486 16.2917 14.406 16.8074 13.1099 16.8089ZM8.07029 11.5872V11.9197C8.07219 13.1401 8.5579 14.3098 9.42093 15.1726C10.284 16.0354 11.4539 16.5207 12.6742 16.5222H13.1042C14.3243 16.5207 15.4939 16.0353 16.3565 15.1724C17.2191 14.3096 17.7041 13.1398 17.7053 11.9197V11.5872C17.4509 12.2932 17.0368 12.9309 16.4955 13.4505C16.4805 13.4648 16.4627 13.4756 16.4431 13.4823C16.4236 13.489 16.4028 13.4913 16.3823 13.4892C16.3614 13.4873 16.3412 13.4807 16.3231 13.4701C16.305 13.4594 16.2895 13.4449 16.2776 13.4276C15.7731 12.6823 14.4143 12.182 12.8849 12.182C11.3555 12.182 9.99671 12.6823 9.49217 13.4276C9.48031 13.4449 9.46479 13.4594 9.44671 13.4701C9.42863 13.4807 9.40843 13.4873 9.38754 13.4892C9.36699 13.4913 9.34624 13.489 9.32669 13.4823C9.30715 13.4756 9.28928 13.4648 9.27431 13.4505C8.73457 12.9307 8.32248 12.2929 8.07029 11.5872ZM12.8906 15.4329C11.5806 15.4329 10.4884 14.8896 10.3508 14.1701C10.3405 14.1181 10.3353 14.0654 10.335 14.0124C10.335 13.2155 11.4573 12.5905 12.8906 12.5905C14.324 12.5905 15.4463 13.2155 15.4463 14.0124C15.446 14.0663 15.4407 14.12 15.4305 14.173C15.2901 14.8911 14.1979 15.4329 12.8906 15.4329ZM12.8906 12.8772C11.6608 12.8772 10.6217 13.3961 10.6217 14.0124C10.6214 14.0466 10.6248 14.0807 10.6317 14.1142C10.7421 14.6875 11.7354 15.1462 12.8906 15.1462C14.0459 15.1462 15.0407 14.6947 15.1496 14.1185C15.1564 14.0835 15.1598 14.048 15.1596 14.0124C15.1596 13.3961 14.1205 12.8772 12.8906 12.8772Z" fill="#093F68"/>
<path d="M12.9437 14.5456C12.3962 14.5469 11.858 14.4045 11.3828 14.1328C11.3509 14.1123 11.3284 14.0799 11.3204 14.0428C11.3123 14.0057 11.3193 13.967 11.3398 13.935C11.3498 13.9191 11.3629 13.9053 11.3783 13.8945C11.3937 13.8837 11.4111 13.876 11.4295 13.8718C11.4478 13.8677 11.4668 13.8672 11.4854 13.8705C11.5039 13.8737 11.5217 13.8805 11.5376 13.8906C11.9667 14.1334 12.4513 14.261 12.9444 14.261C13.4374 14.261 13.9221 14.1334 14.3512 13.8906C14.3677 13.8812 14.3859 13.8751 14.4047 13.8727C14.4235 13.8703 14.4426 13.8717 14.4609 13.8766C14.4792 13.8816 14.4963 13.8902 14.5113 13.9018C14.5263 13.9134 14.5389 13.9279 14.5483 13.9443C14.5577 13.9608 14.5638 13.979 14.5662 13.9978C14.5686 14.0166 14.5672 14.0357 14.5623 14.054C14.5573 14.0723 14.5487 14.0895 14.5371 14.1045C14.5255 14.1195 14.511 14.132 14.4946 14.1414C14.0208 14.4069 13.4867 14.5461 12.9437 14.5456Z" fill="#093F68"/>
<path d="M12.9408 0.590546C14.4591 0.590546 15.9152 1.19369 16.9889 2.2673C18.0625 3.34091 18.6656 4.79703 18.6656 6.31534V6.61921H7.21458V6.31534C7.21458 5.56343 7.36271 4.81888 7.65049 4.12423C7.93828 3.42957 8.36009 2.79841 8.89184 2.26679C9.42359 1.73518 10.0549 1.31352 10.7496 1.02591C11.4443 0.738295 12.1889 0.590358 12.9408 0.590546Z" fill="#68E1FD"/>
<path d="M18.6656 6.76254H7.21458C7.17657 6.76254 7.14011 6.74744 7.11323 6.72056C7.08635 6.69368 7.07125 6.65722 7.07125 6.6192V6.31533C7.09532 4.7747 7.72424 3.30532 8.82224 2.22434C9.92024 1.14337 11.3993 0.537491 12.9401 0.537491C14.4809 0.537491 15.9599 1.14337 17.0579 2.22434C18.156 3.30532 18.7849 4.7747 18.8089 6.31533V6.6192C18.8089 6.63803 18.8052 6.65667 18.798 6.67406C18.7908 6.69145 18.7803 6.70725 18.767 6.72056C18.7536 6.73387 18.7378 6.74442 18.7205 6.75163C18.7031 6.75883 18.6844 6.76254 18.6656 6.76254ZM7.35792 6.47587H18.5223V6.31533C18.4988 4.85034 17.9003 3.45329 16.856 2.42558C15.8117 1.39788 14.4053 0.821893 12.9401 0.821893C11.4749 0.821893 10.0685 1.39788 9.02415 2.42558C7.97984 3.45329 7.38139 4.85034 7.35792 6.31533V6.47587Z" fill="#093F68"/>
<path d="M18.8089 6.6192H7.07125C6.46408 6.6192 5.97187 7.11109 5.97187 7.71786C5.97187 8.32464 6.46408 8.81652 7.07125 8.81652H18.8089C19.4161 8.81652 19.9083 8.32464 19.9083 7.71786C19.9083 7.11109 19.4161 6.6192 18.8089 6.6192Z" fill="#68E1FD"/>
<path d="M18.8104 8.95985H7.07125C6.9046 8.96552 6.73851 8.93758 6.58288 8.87771C6.42725 8.81785 6.28526 8.72727 6.16537 8.61138C6.04547 8.49549 5.95013 8.35666 5.88501 8.20315C5.81989 8.04965 5.78634 7.8846 5.78634 7.71786C5.78634 7.55111 5.81989 7.38607 5.88501 7.23256C5.95013 7.07905 6.04547 6.94022 6.16537 6.82433C6.28526 6.70844 6.42725 6.61787 6.58288 6.558C6.73851 6.49813 6.9046 6.4702 7.07125 6.47586H18.8104C19.1325 6.4868 19.4377 6.62245 19.6617 6.85417C19.8857 7.0859 20.0109 7.39558 20.0109 7.71786C20.0109 8.04014 19.8857 8.34982 19.6617 8.58154C19.4377 8.81326 19.1325 8.94891 18.8104 8.95985ZM7.07125 6.76253C6.94268 6.75755 6.81443 6.77857 6.69418 6.82434C6.57393 6.8701 6.46415 6.93967 6.37143 7.02887C6.2787 7.11807 6.20494 7.22507 6.15455 7.34346C6.10416 7.46185 6.07819 7.58919 6.07819 7.71786C6.07819 7.84652 6.10416 7.97386 6.15455 8.09225C6.20494 8.21064 6.2787 8.31764 6.37143 8.40684C6.46415 8.49604 6.57393 8.56561 6.69418 8.61138C6.81443 8.65714 6.94268 8.67816 7.07125 8.67318H18.8104C19.0573 8.66362 19.291 8.55878 19.4623 8.38067C19.6337 8.20255 19.7294 7.96501 19.7294 7.71786C19.7294 7.47071 19.6337 7.23316 19.4623 7.05505C19.291 6.87693 19.0573 6.7721 18.8104 6.76253H7.07125Z" fill="#093F68"/>
<path d="M12.1983 0.143342H13.6819C13.805 0.143219 13.9269 0.16849 14.0398 0.217576C14.1528 0.266663 14.2544 0.33851 14.3383 0.428631C14.4222 0.518752 14.4867 0.625212 14.5276 0.74136C14.5686 0.857509 14.5851 0.980851 14.5763 1.10368L14.1721 6.61921H11.7081L11.3054 1.09938C11.2969 0.97697 11.3137 0.854125 11.3548 0.738491C11.3958 0.622857 11.4603 0.516908 11.544 0.427234C11.6278 0.33756 11.7291 0.266081 11.8416 0.217241C11.9542 0.168401 12.0756 0.143246 12.1983 0.143342Z" fill="#68E1FD"/>
<path d="M14.1721 6.76254H11.7081C11.672 6.76266 11.6372 6.74914 11.6106 6.72469C11.5841 6.70024 11.5677 6.66667 11.5648 6.63067L11.1606 1.11515C11.1499 0.972621 11.1688 0.829431 11.2161 0.69455C11.2634 0.559668 11.338 0.436005 11.4353 0.33131C11.5326 0.226615 11.6504 0.143146 11.7815 0.0861352C11.9126 0.0291241 12.054 -0.000199676 12.1969 1.0233e-06H13.6804C13.8233 -0.000199676 13.9648 0.0291241 14.0958 0.0861352C14.2269 0.143146 14.3448 0.226615 14.4421 0.33131C14.5393 0.436005 14.614 0.559668 14.6612 0.69455C14.7085 0.829431 14.7274 0.972621 14.7167 1.11515L14.3125 6.63067C14.3097 6.66618 14.2937 6.69935 14.2678 6.72373C14.2418 6.74811 14.2077 6.76194 14.1721 6.76254ZM11.8414 6.47587H14.0373L14.4329 1.09938C14.4406 0.996148 14.4269 0.892439 14.3926 0.794761C14.3584 0.697083 14.3043 0.607546 14.2337 0.53177C14.1632 0.455993 14.0778 0.395615 13.9828 0.354423C13.8878 0.313232 13.7854 0.292117 13.6819 0.292404H12.1983C12.0948 0.292117 11.9924 0.313232 11.8974 0.354423C11.8024 0.395615 11.717 0.455993 11.6465 0.53177C11.5759 0.607546 11.5218 0.697083 11.4876 0.794761C11.4533 0.892439 11.4396 0.996148 11.4473 1.09938L11.8414 6.47587Z" fill="#093F68"/>
<path d="M12.5567 28.2212H7.87392V18.1878C8.56766 17.8257 9.33887 17.6373 10.1214 17.6388H10.3837C12.2786 21.9603 12.5567 28.2212 12.5567 28.2212Z" fill="#F56132"/>
<path d="M12.5567 28.3645H7.87392C7.83591 28.3645 7.79945 28.3494 7.77257 28.3226C7.74569 28.2957 7.73059 28.2592 7.73059 28.2212V18.1878C7.73053 18.1614 7.73773 18.1356 7.75138 18.1131C7.76503 18.0906 7.78462 18.0723 7.80799 18.0602C8.5218 17.6868 9.31584 17.493 10.1214 17.4955H10.3837C10.4117 17.4954 10.4391 17.5035 10.4625 17.5187C10.4859 17.534 10.5044 17.5558 10.5156 17.5815C12.3976 21.8815 12.6957 28.1553 12.6986 28.2169C12.6995 28.2364 12.6963 28.2558 12.6894 28.2741C12.6825 28.2923 12.672 28.309 12.6584 28.323C12.645 28.3363 12.6292 28.3468 12.6117 28.3539C12.5942 28.361 12.5755 28.3647 12.5567 28.3645ZM8.01869 28.0779H12.4047C12.3474 27.1089 11.959 21.655 10.2905 17.7793H10.1228C9.39209 17.7767 8.67091 17.9456 8.01726 18.2723L8.01869 28.0779Z" fill="#093F68"/>
<path d="M17.9074 18.1835V28.2169H13.2246C13.2246 28.2169 13.5027 21.956 15.3961 17.6316H15.6584C16.4416 17.6315 17.2132 17.8208 17.9074 18.1835Z" fill="#F56132"/>
<path d="M17.9074 28.3646H13.2246C13.2053 28.3645 13.1862 28.3605 13.1685 28.3529C13.1507 28.3452 13.1347 28.3341 13.1214 28.3201C13.1079 28.3061 13.0973 28.2895 13.0904 28.2712C13.0835 28.253 13.0804 28.2335 13.0813 28.214C13.0813 28.1524 13.3823 21.8772 15.2643 17.5786C15.2755 17.553 15.2939 17.5312 15.3173 17.5159C15.3408 17.5006 15.3682 17.4925 15.3961 17.4926H15.6584C16.4639 17.4898 17.2579 17.6831 17.9719 18.0559C17.9952 18.068 18.0148 18.0863 18.0285 18.1088C18.0421 18.1313 18.0493 18.1572 18.0493 18.1835V28.2169C18.0498 28.236 18.0466 28.255 18.0397 28.2728C18.0329 28.2906 18.0226 28.3068 18.0093 28.3205C17.9961 28.3343 17.9803 28.3453 17.9628 28.3528C17.9453 28.3604 17.9264 28.3644 17.9074 28.3646ZM13.378 28.0779H17.764V18.2709C17.1107 17.945 16.39 17.7766 15.6599 17.7793H15.4922C13.8223 21.6565 13.4339 27.1089 13.3766 28.0779H13.378Z" fill="#093F68"/>
<path d="M11.6881 21.9704H7.92696C7.88894 21.9704 7.85248 21.9553 7.8256 21.9284C7.79872 21.9015 7.78362 21.8651 7.78362 21.827C7.78362 21.789 7.79872 21.7526 7.8256 21.7257C7.85248 21.6988 7.88894 21.6837 7.92696 21.6837H11.6881C11.7261 21.6837 11.7625 21.6988 11.7894 21.7257C11.8163 21.7526 11.8314 21.789 11.8314 21.827C11.8314 21.8651 11.8163 21.9015 11.7894 21.9284C11.7625 21.9553 11.7261 21.9704 11.6881 21.9704Z" fill="#093F68"/>
<path d="M11.9719 23.3966H7.92696C7.88894 23.3966 7.85248 23.3815 7.8256 23.3546C7.79872 23.3277 7.78362 23.2912 7.78362 23.2532C7.78362 23.2152 7.79872 23.1788 7.8256 23.1519C7.85248 23.125 7.88894 23.1099 7.92696 23.1099H11.9719C12.0099 23.1099 12.0463 23.125 12.0732 23.1519C12.1001 23.1788 12.1152 23.2152 12.1152 23.2532C12.1152 23.2912 12.1001 23.3277 12.0732 23.3546C12.0463 23.3815 12.0099 23.3966 11.9719 23.3966Z" fill="#093F68"/>
<path d="M17.8013 21.9704H14.1534C14.1154 21.9704 14.079 21.9553 14.0521 21.9284C14.0252 21.9015 14.0101 21.8651 14.0101 21.827C14.0101 21.789 14.0252 21.7526 14.0521 21.7257C14.079 21.6988 14.1154 21.6837 14.1534 21.6837H17.8013C17.8393 21.6837 17.8758 21.6988 17.9027 21.7257C17.9295 21.7526 17.9446 21.789 17.9446 21.827C17.9446 21.8651 17.9295 21.9015 17.9027 21.9284C17.8758 21.9553 17.8393 21.9704 17.8013 21.9704Z" fill="#093F68"/>
<path d="M17.8013 23.3966H13.8782C13.8402 23.3966 13.8037 23.3815 13.7769 23.3546C13.75 23.3277 13.7349 23.2912 13.7349 23.2532C13.7349 23.2152 13.75 23.1788 13.7769 23.1519C13.8037 23.125 13.8402 23.1099 13.8782 23.1099H17.8013C17.8393 23.1099 17.8758 23.125 17.9027 23.1519C17.9295 23.1788 17.9446 23.2152 17.9446 23.2532C17.9446 23.2912 17.9295 23.3277 17.9027 23.3546C17.8758 23.3815 17.8393 23.3966 17.8013 23.3966Z" fill="#093F68"/>
<path d="M10.3852 17.6359C10.4052 17.6359 11.6379 18.936 11.6379 18.936L12.8906 17.6359H10.3852Z" fill="#68E1FD"/>
<path d="M11.6379 19.0793C11.6185 19.079 11.5993 19.0748 11.5816 19.067C11.5638 19.0591 11.5479 19.0477 11.5347 19.0334C11.1047 18.5762 10.388 17.8323 10.302 17.752C10.2775 17.7343 10.2593 17.7093 10.2499 17.6806C10.2405 17.6519 10.2403 17.6209 10.2496 17.5922C10.2588 17.5634 10.2769 17.5383 10.3012 17.5204C10.3256 17.5025 10.3549 17.4928 10.3852 17.4926H12.8906C12.9188 17.4926 12.9463 17.5009 12.9697 17.5165C12.9932 17.532 13.0115 17.5541 13.0225 17.58C13.0334 17.6058 13.0364 17.6342 13.0313 17.6617C13.0262 17.6892 13.0132 17.7146 12.9938 17.7348L11.744 19.0349C11.7303 19.0492 11.7138 19.0605 11.6956 19.0682C11.6773 19.0758 11.6577 19.0796 11.6379 19.0793ZM10.7406 17.7793C10.9169 17.9584 11.1936 18.2523 11.6465 18.7281L12.561 17.7793H10.7406Z" fill="#093F68"/>
<path d="M15.2743 17.6359C15.2542 17.6359 14.0216 18.936 14.0216 18.936L12.7688 17.6359H15.2743Z" fill="#68E1FD"/>
<path d="M14.0216 19.0793C14.0022 19.0792 13.9832 19.0753 13.9654 19.0676C13.9477 19.06 13.9317 19.0488 13.9184 19.0349L12.6656 17.7348C12.6462 17.7146 12.6332 17.6892 12.6281 17.6617C12.623 17.6342 12.6261 17.6058 12.6369 17.58C12.6479 17.5541 12.6663 17.532 12.6897 17.5165C12.7132 17.5009 12.7407 17.4926 12.7688 17.4926H15.2743C15.3123 17.4926 15.3488 17.5077 15.3757 17.5346C15.4025 17.5614 15.4176 17.5979 15.4176 17.6359C15.4175 17.6587 15.412 17.681 15.4016 17.7012C15.3911 17.7214 15.376 17.7388 15.3574 17.752C15.27 17.8323 14.5605 18.5762 14.1262 19.0334C14.113 19.0477 14.097 19.0591 14.0793 19.067C14.0616 19.0748 14.0424 19.079 14.023 19.0793H14.0216ZM13.1056 17.7793L14.0216 18.7281C14.4731 18.2523 14.7511 17.9584 14.926 17.7793H13.1056Z" fill="#093F68"/>
<path d="M13.1558 12.0043C12.9882 12.0039 12.8209 11.99 12.6556 11.9627C12.6176 11.9561 12.5837 11.9346 12.5616 11.903C12.5394 11.8714 12.5307 11.8323 12.5373 11.7943C12.544 11.7563 12.5655 11.7225 12.597 11.7003C12.6286 11.6781 12.6677 11.6694 12.7057 11.6761C12.9648 11.7191 13.2293 11.7191 13.4884 11.6761C13.5357 11.5428 13.345 10.9737 13.0583 10.4319C13.0407 10.3983 13.0371 10.359 13.0484 10.3227C13.0597 10.2864 13.0849 10.2561 13.1185 10.2384C13.1522 10.2207 13.1915 10.2172 13.2278 10.2285C13.264 10.2397 13.2944 10.265 13.312 10.2986C13.4554 10.5681 13.8983 11.4697 13.7492 11.8022C13.733 11.8379 13.7089 11.8694 13.6785 11.8943C13.6482 11.9192 13.6126 11.9367 13.5744 11.9455C13.4377 11.9819 13.2972 12.0017 13.1558 12.0043Z" fill="#093F68"/>
<path d="M10.6976 11.3837C10.9636 11.3837 11.1792 11.168 11.1792 10.9021C11.1792 10.6361 10.9636 10.4205 10.6976 10.4205C10.4316 10.4205 10.216 10.6361 10.216 10.9021C10.216 11.168 10.4316 11.3837 10.6976 11.3837Z" fill="#093F68"/>
<path d="M11.4931 9.6536H9.18257C9.10654 9.6536 9.03363 9.6234 8.97987 9.56964C8.9261 9.51588 8.8959 9.44296 8.8959 9.36693C8.8959 9.2909 8.9261 9.21799 8.97987 9.16422C9.03363 9.11046 9.10654 9.08026 9.18257 9.08026H11.4931C11.5692 9.08026 11.6421 9.11046 11.6958 9.16422C11.7496 9.21799 11.7798 9.2909 11.7798 9.36693C11.7798 9.44296 11.7496 9.51588 11.6958 9.56964C11.6421 9.6234 11.5692 9.6536 11.4931 9.6536Z" fill="#093F68"/>
<path d="M15.2299 11.3837C15.4959 11.3837 15.7115 11.168 15.7115 10.9021C15.7115 10.6361 15.4959 10.4205 15.2299 10.4205C14.9639 10.4205 14.7483 10.6361 14.7483 10.9021C14.7483 11.168 14.9639 11.3837 15.2299 11.3837Z" fill="#093F68"/>
<path d="M16.7464 9.6536H14.4344C14.3583 9.6536 14.2854 9.6234 14.2317 9.56964C14.1779 9.51588 14.1477 9.44296 14.1477 9.36693C14.1477 9.2909 14.1779 9.21799 14.2317 9.16422C14.2854 9.11046 14.3583 9.08026 14.4344 9.08026H16.7464C16.8224 9.08026 16.8953 9.11046 16.9491 9.16422C17.0028 9.21799 17.033 9.2909 17.033 9.36693C17.033 9.44296 17.0028 9.51588 16.9491 9.56964C16.8953 9.6234 16.8224 9.6536 16.7464 9.6536Z" fill="#093F68"/>
<path d="M24.4291 24.85C24.7433 24.7751 25.0615 24.7186 25.3823 24.6808C25.4606 24.6641 25.542 24.6696 25.6173 24.6966C25.6807 24.7347 25.7281 24.7945 25.7505 24.865C25.7729 24.9354 25.7689 25.0116 25.7392 25.0793C25.6737 25.2124 25.5692 25.3224 25.4396 25.3946C25.0131 25.6886 24.4924 25.8132 23.979 25.7444C23.8805 25.7345 23.7867 25.6972 23.7081 25.6369C23.5648 25.5165 23.4473 25.0248 23.6236 24.8973C23.7024 24.8399 23.8128 24.913 23.8973 24.9145C24.0767 24.9166 24.2555 24.8949 24.4291 24.85Z" fill="#FFC9B0"/>
<path d="M24.2643 25.9107C24.1606 25.9105 24.0571 25.9023 23.9547 25.8863C23.8297 25.8717 23.7114 25.822 23.6135 25.743C23.4609 25.5643 23.3825 25.334 23.3942 25.0994C23.3916 25.0386 23.4032 24.9781 23.4281 24.9226C23.453 24.8671 23.4905 24.8182 23.5376 24.7797C23.5826 24.7523 23.6335 24.736 23.686 24.732C23.7386 24.728 23.7914 24.7365 23.84 24.7568C23.8587 24.7628 23.8779 24.7671 23.8973 24.7697C24.065 24.7708 24.2321 24.7506 24.3947 24.7095C24.7145 24.6329 25.0385 24.575 25.3651 24.5361C25.4688 24.5165 25.576 24.5259 25.6747 24.5633C25.7722 24.6162 25.8463 24.7036 25.8827 24.8083C25.919 24.9131 25.9149 25.0276 25.8711 25.1295C25.7953 25.2913 25.6711 25.4256 25.5156 25.5136C25.1457 25.7643 24.711 25.9022 24.2643 25.9107ZM23.6909 25.0191C23.6909 25.0191 23.6795 25.0463 23.6752 25.1137C23.6711 25.2618 23.7143 25.4074 23.7984 25.5294C23.8574 25.5709 23.926 25.5965 23.9977 25.6039C24.4755 25.6643 24.9589 25.5476 25.3565 25.2757C25.4607 25.2182 25.5459 25.1315 25.6016 25.0263C25.6171 24.9926 25.6208 24.9546 25.6122 24.9185C25.6037 24.8824 25.5833 24.8502 25.5543 24.827C25.502 24.8143 25.4475 24.8143 25.3952 24.827C25.0801 24.8642 24.7676 24.9202 24.4592 24.9947C24.2719 25.0422 24.0791 25.0648 23.8859 25.0621C23.841 25.0602 23.7966 25.052 23.754 25.0377C23.7319 25.0312 23.7094 25.0264 23.6866 25.0234L23.6909 25.0191Z" fill="#093F68"/>
<path d="M22.0397 21.5002C22.3445 21.5002 22.5915 21.2532 22.5915 20.9484C22.5915 20.6436 22.3445 20.3966 22.0397 20.3966C21.7349 20.3966 21.4879 20.6436 21.4879 20.9484C21.4879 21.2532 21.7349 21.5002 22.0397 21.5002Z" fill="#093F68"/>
<path d="M22.0411 21.645C21.9871 21.6445 21.9333 21.6382 21.8806 21.6264C21.792 21.6053 21.7084 21.5671 21.6346 21.5137C21.5608 21.4603 21.4983 21.3929 21.4506 21.3153C21.4019 21.2381 21.3692 21.1519 21.3544 21.0617C21.3396 20.9716 21.3431 20.8795 21.3646 20.7907C21.3906 20.6793 21.4437 20.576 21.5192 20.4901C21.5947 20.4041 21.6903 20.3381 21.7974 20.2979C21.9045 20.2577 22.0199 20.2446 22.1333 20.2597C22.2467 20.2748 22.3547 20.3176 22.4475 20.3844C22.5404 20.4513 22.6154 20.54 22.6657 20.6427C22.7161 20.7454 22.7404 20.859 22.7363 20.9733C22.7323 21.0877 22.7001 21.1993 22.6426 21.2982C22.585 21.3971 22.504 21.4803 22.4066 21.5404C22.2971 21.6089 22.1704 21.6451 22.0411 21.645ZM21.6412 20.8552C21.6288 20.9077 21.627 20.9621 21.6359 21.0152C21.6447 21.0684 21.6641 21.1192 21.6928 21.1648C21.7499 21.2567 21.8412 21.3222 21.9465 21.347C22.0518 21.3717 22.1627 21.3536 22.2547 21.2967C22.3235 21.2542 22.3782 21.1922 22.4117 21.1186C22.4453 21.045 22.4562 20.9631 22.4432 20.8833C22.4301 20.8034 22.3937 20.7293 22.3384 20.6702C22.2832 20.6111 22.2116 20.5697 22.1329 20.5513C22.0274 20.5268 21.9165 20.545 21.8244 20.6019C21.7323 20.6588 21.6664 20.7499 21.6412 20.8552Z" fill="#093F68"/>
<path d="M20.3011 21.7609L23.2346 22.4479L23.5046 21.2952L20.571 20.6082L20.3011 21.7609Z" fill="#093F68"/>
<path d="M23.2366 22.5881C23.2256 22.5896 23.2145 22.5896 23.2036 22.5881L20.2695 21.9001C20.2328 21.8916 20.2008 21.869 20.1807 21.8371C20.1707 21.8209 20.1641 21.803 20.1612 21.7843C20.1582 21.7656 20.159 21.7465 20.1635 21.7281L20.4329 20.5815C20.4371 20.5631 20.445 20.5457 20.4559 20.5304C20.4668 20.5151 20.4807 20.502 20.4966 20.492C20.5126 20.4821 20.5304 20.4753 20.549 20.4722C20.5676 20.4691 20.5866 20.4697 20.6049 20.474L23.539 21.162C23.5574 21.1662 23.5747 21.174 23.59 21.1849C23.6054 21.1959 23.6184 21.2097 23.6284 21.2257C23.6384 21.2417 23.6451 21.2594 23.6482 21.278C23.6513 21.2966 23.6507 21.3156 23.6465 21.334L23.3756 22.4806C23.3676 22.5114 23.3497 22.5387 23.3245 22.5582C23.2993 22.5777 23.2684 22.5882 23.2366 22.5881ZM20.4745 21.6507L23.1291 22.2728L23.334 21.3999L20.6795 20.7778L20.4745 21.6507Z" fill="#093F68"/>
<path d="M17.3437 28.5553L22.8646 29.8482C23.0905 29.901 23.3164 29.7608 23.3693 29.535L25.0083 22.5361C25.0612 22.3103 24.921 22.0843 24.6952 22.0314L19.1742 20.7385C18.9484 20.6857 18.7224 20.8259 18.6695 21.0517L17.0305 28.0506C16.9776 28.2764 17.1178 28.5024 17.3437 28.5553Z" fill="white"/>
<path d="M22.9642 30C22.9208 30.0002 22.8775 29.9954 22.8352 29.9857L17.3125 28.6956C17.1675 28.6616 17.0418 28.5714 16.9631 28.4448C16.8844 28.3183 16.859 28.1657 16.8926 28.0205L18.5337 21.0229C18.5678 20.8779 18.658 20.7522 18.7846 20.6735C18.9111 20.5948 19.0637 20.5694 19.2088 20.603L24.7315 21.893C24.8766 21.9271 25.0022 22.0173 25.081 22.1438C25.1597 22.2703 25.185 22.4229 25.1515 22.5681L23.5118 29.5657C23.4821 29.6885 23.412 29.7977 23.3126 29.8757C23.2133 29.9537 23.0905 29.996 22.9642 29.9957V30ZM17.3742 28.4118L22.8969 29.7019C22.9679 29.7182 23.0426 29.7059 23.1046 29.6675C23.1666 29.6291 23.2109 29.5678 23.228 29.4969L24.8677 22.4964C24.8841 22.4252 24.8718 22.3503 24.8334 22.2881C24.7951 22.2259 24.7338 22.1812 24.6627 22.1639L19.14 20.8739C19.0688 20.8571 18.9938 20.8692 18.9314 20.9076C18.8691 20.946 18.8245 21.0076 18.8075 21.0788L17.1678 28.0793C17.1595 28.1146 17.1582 28.1512 17.1641 28.187C17.1701 28.2227 17.183 28.257 17.2021 28.2878C17.2213 28.3185 17.2464 28.3452 17.2759 28.3663C17.3054 28.3873 17.3388 28.4023 17.3742 28.4104V28.4118Z" fill="#093F68"/>
<path d="M23.4408 25.4421L24.891 26.1919C25.045 26.2715 25.2344 26.2112 25.314 26.0573L25.3147 26.056C25.3943 25.902 25.334 25.7126 25.18 25.633L23.7298 24.8832C23.5758 24.8036 23.3864 24.8639 23.3068 25.0178L23.3062 25.0191C23.2265 25.1731 23.2868 25.3625 23.4408 25.4421Z" fill="#FFC9B0"/>
<path d="M25.0311 26.3708C24.9583 26.3712 24.8865 26.354 24.8218 26.3206L23.3727 25.5709C23.2713 25.5117 23.1964 25.4158 23.1637 25.3029C23.1309 25.1901 23.1426 25.069 23.1965 24.9646C23.2503 24.8602 23.3422 24.7805 23.4531 24.7418C23.5641 24.7031 23.6856 24.7085 23.7927 24.7568L25.2418 25.5064C25.3311 25.5544 25.4019 25.6307 25.4432 25.7233C25.4844 25.8159 25.4937 25.9196 25.4695 26.0181C25.4454 26.1165 25.3893 26.2042 25.3099 26.2672C25.2305 26.3303 25.1325 26.3652 25.0311 26.3665V26.3708ZM23.5834 24.9933C23.5655 24.9935 23.5477 24.9959 23.5304 25.0005C23.4874 25.0148 23.4515 25.0451 23.4301 25.085C23.4097 25.1255 23.4061 25.1724 23.42 25.2155C23.4262 25.2373 23.4369 25.2575 23.4515 25.2748C23.4661 25.2921 23.4842 25.3061 23.5046 25.3158L24.9523 26.0654C24.9926 26.0861 25.0395 26.0901 25.0827 26.0764C25.1259 26.0627 25.162 26.0325 25.183 25.9923C25.1937 25.9725 25.2002 25.9506 25.2023 25.9282C25.2044 25.9057 25.2019 25.8831 25.1951 25.8616C25.1883 25.8401 25.1773 25.8201 25.1626 25.803C25.148 25.7858 25.1301 25.7717 25.1099 25.7616L23.6608 25.0119C23.6369 24.9996 23.6104 24.9932 23.5834 24.9933Z" fill="#093F68"/>
<path d="M23.1508 26.001L24.601 26.7508C24.755 26.8304 24.9444 26.7701 25.024 26.6161L25.0247 26.6148C25.1043 26.4608 25.044 26.2714 24.89 26.1918L23.4398 25.442C23.2858 25.3624 23.0964 25.4227 23.0168 25.5767L23.0161 25.578C22.9365 25.732 22.9968 25.9213 23.1508 26.001Z" fill="#FFC9B0"/>
<path d="M24.7416 26.9298C24.6687 26.9297 24.5969 26.912 24.5323 26.8782L23.0832 26.13C23.0275 26.1036 22.9776 26.0663 22.9366 26.0203C22.8956 25.9743 22.8643 25.9205 22.8446 25.8621C22.8248 25.8037 22.8171 25.7419 22.8217 25.6805C22.8264 25.619 22.8434 25.5591 22.8718 25.5044C22.9001 25.4497 22.9392 25.4012 22.9866 25.3619C23.0341 25.3226 23.089 25.2933 23.1481 25.2757C23.2072 25.2581 23.2692 25.2525 23.3304 25.2594C23.3917 25.2663 23.4509 25.2855 23.5046 25.3158L24.9523 26.0655C25.0323 26.1072 25.0983 26.1717 25.1419 26.2509C25.1855 26.33 25.2047 26.4202 25.1972 26.5102C25.1897 26.6002 25.1558 26.686 25.0997 26.7568C25.0437 26.8276 24.9679 26.8803 24.882 26.9083C24.8366 26.9225 24.7892 26.9298 24.7416 26.9298ZM23.2108 25.8748L24.6599 26.6245C24.6799 26.6346 24.7017 26.6408 24.7241 26.6425C24.7465 26.6442 24.769 26.6415 24.7903 26.6345C24.8119 26.6279 24.8318 26.617 24.8491 26.6024C24.8663 26.5879 24.8805 26.57 24.8906 26.5499C24.9109 26.5095 24.915 26.4628 24.9021 26.4195C24.8881 26.3766 24.8577 26.3411 24.8175 26.3206L23.3684 25.571C23.3281 25.55 23.2812 25.546 23.2379 25.5597C23.1946 25.5734 23.1586 25.6038 23.1377 25.6441C23.1167 25.6844 23.1127 25.7313 23.1264 25.7746C23.1401 25.8179 23.1705 25.8539 23.2108 25.8748Z" fill="#093F68"/>
<path d="M22.8635 26.559L24.3137 27.3088C24.4677 27.3884 24.6571 27.3281 24.7367 27.1741L24.7374 27.1729C24.817 27.0189 24.7567 26.8295 24.6027 26.7499L23.1525 26.0001C22.9985 25.9204 22.8091 25.9807 22.7295 26.1347L22.7288 26.136C22.6492 26.29 22.7095 26.4794 22.8635 26.559Z" fill="#FFC9B0"/>
<path d="M24.4535 27.4888C24.3806 27.4887 24.3088 27.471 24.2442 27.4372L22.7951 26.689C22.6936 26.6297 22.6188 26.5338 22.586 26.421C22.5532 26.3081 22.565 26.187 22.6188 26.0826C22.6727 25.9782 22.7645 25.8985 22.8755 25.8598C22.9864 25.8211 23.108 25.8265 23.2151 25.8748L24.6642 26.6245C24.7535 26.6724 24.8243 26.7487 24.8655 26.8413C24.9067 26.9339 24.916 27.0376 24.8919 27.1361C24.8678 27.2345 24.8116 27.3222 24.7323 27.3852C24.6529 27.4483 24.5548 27.4832 24.4535 27.4845V27.4888ZM22.9241 26.4338L24.3746 27.1863C24.3945 27.197 24.4163 27.2035 24.4388 27.2056C24.4613 27.2076 24.4839 27.2052 24.5054 27.1984C24.5269 27.1916 24.5468 27.1805 24.564 27.1659C24.5812 27.1513 24.5953 27.1334 24.6054 27.1132C24.6161 27.0934 24.6227 27.0716 24.6246 27.0492C24.6266 27.0268 24.624 27.0042 24.6169 26.9828C24.6025 26.9398 24.5723 26.9039 24.5323 26.8825L23.0832 26.1343C23.0632 26.1238 23.0414 26.1174 23.019 26.1155C22.9966 26.1135 22.974 26.116 22.9526 26.1228C22.9311 26.1296 22.9112 26.1405 22.894 26.1551C22.8769 26.1696 22.8627 26.1873 22.8524 26.2074C22.8317 26.2477 22.8278 26.2946 22.8415 26.3378C22.8552 26.381 22.8854 26.417 22.9255 26.4381L22.9241 26.4338Z" fill="#093F68"/>
<path d="M22.5735 27.1178L24.0237 27.8676C24.1777 27.9472 24.3671 27.887 24.4467 27.733L24.4474 27.7317C24.527 27.5777 24.4667 27.3883 24.3127 27.3087L22.8625 26.5589C22.7085 26.4793 22.5191 26.5396 22.4395 26.6936L22.4388 26.6948C22.3592 26.8488 22.4195 27.0382 22.5735 27.1178Z" fill="#FFC9B0"/>
<path d="M24.1639 28.0463C24.0911 28.0459 24.0193 28.0283 23.9547 27.9947L22.5055 27.2465C22.4488 27.2209 22.3978 27.184 22.3558 27.1381C22.3138 27.0922 22.2815 27.0382 22.261 26.9794C22.2405 26.9206 22.2322 26.8583 22.2366 26.7961C22.241 26.734 22.258 26.6735 22.2865 26.6181C22.3151 26.5628 22.3546 26.5139 22.4026 26.4743C22.4507 26.4347 22.5063 26.4054 22.5661 26.388C22.6259 26.3706 22.6886 26.3656 22.7504 26.3732C22.8122 26.3808 22.8718 26.401 22.9255 26.4324L24.3746 27.1863C24.4628 27.235 24.5325 27.3115 24.573 27.4038C24.6134 27.496 24.6223 27.5991 24.5983 27.6969C24.5743 27.7948 24.5188 27.8821 24.4403 27.9452C24.3618 28.0084 24.2647 28.0439 24.1639 28.0463ZM22.7162 26.6675C22.6987 26.6675 22.6813 26.6704 22.6646 26.6761C22.6431 26.6828 22.6232 26.6937 22.6059 26.7082C22.5887 26.7227 22.5746 26.7405 22.5643 26.7606C22.5537 26.7805 22.5472 26.8022 22.5452 26.8247C22.5432 26.8471 22.5458 26.8697 22.5528 26.8911C22.5672 26.9341 22.5975 26.97 22.6374 26.9914L24.0865 27.7396C24.1065 27.75 24.1283 27.7564 24.1507 27.7584C24.1731 27.7604 24.1957 27.7579 24.2171 27.7511C24.2386 27.7443 24.2585 27.7333 24.2757 27.7188C24.2929 27.7043 24.307 27.6865 24.3173 27.6665C24.338 27.6262 24.3419 27.5793 24.3282 27.5361C24.3145 27.4929 24.2843 27.4568 24.2442 27.4357L22.7951 26.6875C22.7706 26.6752 22.7436 26.6688 22.7162 26.6689V26.6675Z" fill="#093F68"/>
<path d="M6.21005 28.9782L5.8685 29.1237C5.77127 29.1651 5.66158 29.1662 5.56354 29.1267C5.46551 29.0872 5.38717 29.0104 5.34576 28.9132L1.77974 20.5407C1.74682 20.4634 1.74595 20.3762 1.77733 20.2982C1.80871 20.2203 1.86976 20.158 1.94705 20.1251L2.43762 19.9162C2.47589 19.8999 2.51699 19.8913 2.55859 19.8908C2.60019 19.8904 2.64146 19.8982 2.68005 19.9138C2.71864 19.9293 2.75379 19.9523 2.78349 19.9814C2.8132 20.0105 2.83688 20.0452 2.85318 20.0835L6.42088 28.46C6.46229 28.5572 6.46338 28.6669 6.42391 28.7649C6.38444 28.863 6.30765 28.9413 6.21042 28.9827L6.21005 28.9782Z" fill="#093F68"/>
<path d="M5.71387 29.2976C5.60755 29.2977 5.50357 29.2665 5.41487 29.2078C5.32618 29.1492 5.25669 29.0658 5.21506 28.968L1.64889 20.5929C1.6015 20.4803 1.60052 20.3536 1.64616 20.2403C1.6918 20.127 1.78036 20.0363 1.89256 19.988L2.38276 19.7788C2.49534 19.7314 2.62208 19.7304 2.73538 19.776C2.84868 19.8217 2.93935 19.9102 2.98764 20.0224L6.55238 28.3961C6.60825 28.5282 6.60945 28.6771 6.55572 28.8101C6.50198 28.9431 6.39768 29.0494 6.26571 29.1056L5.92314 29.2489C5.85727 29.2788 5.78615 29.2953 5.71387 29.2976ZM2.57053 20.0325C2.54701 20.0326 2.5237 20.037 2.50173 20.0454L2.01153 20.2546C1.99051 20.2636 1.97147 20.2765 1.95548 20.2928C1.93949 20.3091 1.92687 20.3284 1.91835 20.3496C1.90983 20.3707 1.90557 20.3934 1.90582 20.4162C1.90606 20.439 1.91081 20.4616 1.91979 20.4825L5.48596 28.8562C5.51249 28.9182 5.56253 28.9673 5.62512 28.9925C5.68772 29.0178 5.75777 29.0172 5.81993 28.9909L6.16107 28.8476C6.19193 28.8346 6.21991 28.8156 6.24341 28.7918C6.2669 28.7679 6.28545 28.7397 6.29797 28.7086C6.31049 28.6776 6.31675 28.6444 6.31638 28.6109C6.31601 28.5774 6.30902 28.5444 6.29581 28.5136L2.73107 20.1414C2.71789 20.1095 2.69566 20.0822 2.66713 20.0629C2.6386 20.0435 2.60501 20.0329 2.57053 20.0325Z" fill="#093F68"/>
<path d="M0.173973 21.2222L0.755913 22.5867C0.788767 22.6638 0.850791 22.7246 0.928418 22.7561C1.00605 22.7875 1.09296 22.7869 1.17015 22.7544L1.26045 22.7157C1.29877 22.6995 1.33351 22.6758 1.36268 22.6461C1.39185 22.6164 1.41488 22.5813 1.43046 22.5426C1.44603 22.504 1.45385 22.4627 1.45345 22.4211C1.45306 22.3795 1.44446 22.3384 1.42815 22.3001C1.83809 22.1696 2.33116 22.4319 2.33116 22.4319L3.82615 21.7955C3.82615 21.7955 3.79031 21.0788 3.93078 20.8896C4.07125 20.7004 4.95276 20.9713 5.01726 20.7563C5.08176 20.5413 4.25472 20.1414 3.50508 20.0397C2.8744 19.9522 1.33499 20.7291 0.863414 20.9771L0.847648 20.9398C0.831403 20.9015 0.807734 20.8668 0.778006 20.8376C0.748278 20.8085 0.713078 20.7856 0.674437 20.7701C0.635796 20.7547 0.594478 20.747 0.552864 20.7476C0.51125 20.7482 0.470165 20.757 0.431977 20.7735L0.343109 20.8122C0.266877 20.8448 0.206466 20.906 0.174844 20.9827C0.143222 21.0593 0.142909 21.1453 0.173973 21.2222Z" fill="#68E1FD"/>
<path d="M1.04688 22.9221C0.95548 22.9239 0.865654 22.8982 0.789003 22.8483C0.712353 22.7985 0.652398 22.7268 0.616878 22.6426L0.0349381 21.2781C0.0118717 21.2224 0 21.1627 0 21.1025C0 21.0422 0.0118717 20.9826 0.0349381 20.9269C0.057089 20.8707 0.090334 20.8195 0.13269 20.7764C0.175046 20.7333 0.225647 20.6992 0.281474 20.6761L0.370342 20.6374C0.464317 20.5969 0.569111 20.5891 0.668062 20.615C0.767014 20.641 0.854443 20.6993 0.916448 20.7807C1.57722 20.4396 2.9045 19.806 3.51941 19.8934C4.19165 19.988 4.93556 20.3063 5.11043 20.5772C5.13275 20.6085 5.14781 20.6445 5.1545 20.6824C5.1612 20.7204 5.15936 20.7593 5.14913 20.7965C5.08319 21.0172 4.78219 20.9957 4.46399 20.9742C4.32113 20.9537 4.1759 20.9566 4.03398 20.9828C3.97665 21.0616 3.94941 21.4644 3.96518 21.7883C3.96764 21.8182 3.96067 21.8481 3.94524 21.8738C3.92981 21.8996 3.90671 21.9198 3.87918 21.9317L2.3842 22.5681C2.36494 22.5772 2.34389 22.582 2.32256 22.582C2.30124 22.582 2.28018 22.5772 2.26093 22.5681C2.05453 22.4645 1.82516 22.4152 1.59442 22.4247C1.59705 22.4843 1.58779 22.5437 1.56719 22.5996C1.52147 22.7126 1.43281 22.8028 1.32065 22.8504L1.23035 22.8891C1.17209 22.9125 1.10965 22.9238 1.04688 22.9221ZM0.555244 20.8868C0.532007 20.8865 0.509002 20.8914 0.487877 20.9011L0.397575 20.9398C0.376424 20.9484 0.357251 20.9612 0.341231 20.9775C0.32521 20.9937 0.31268 21.0131 0.304408 21.0344C0.2872 21.0767 0.2872 21.124 0.304408 21.1663L0.877748 22.5308C0.896527 22.5731 0.93094 22.6065 0.973782 22.624C1.01605 22.6412 1.06338 22.6412 1.10565 22.624L1.19452 22.5853C1.21578 22.5767 1.2351 22.5639 1.25135 22.5477C1.2676 22.5315 1.28044 22.5122 1.28912 22.491C1.2978 22.4697 1.30215 22.447 1.3019 22.424C1.30166 22.4011 1.29682 22.3784 1.28769 22.3574C1.27948 22.339 1.27524 22.319 1.27527 22.2989C1.27529 22.2787 1.27957 22.2588 1.28782 22.2404C1.29607 22.222 1.30811 22.2055 1.32316 22.1921C1.3382 22.1787 1.35591 22.1686 1.37512 22.1624C1.74922 22.0435 2.16776 22.204 2.32543 22.2757L3.66848 21.7023C3.66848 21.4572 3.66848 20.9857 3.81181 20.8036C3.92648 20.6517 4.18592 20.6703 4.48549 20.6904C4.60461 20.7012 4.72436 20.7036 4.84382 20.6976C4.70049 20.5471 4.09848 20.2676 3.48071 20.1787C3.01057 20.1128 1.85386 20.6087 0.926481 21.1018C0.908896 21.1108 0.889631 21.1161 0.869897 21.1173C0.850163 21.1186 0.830388 21.1157 0.811814 21.1089C0.793017 21.1024 0.775789 21.092 0.761229 21.0784C0.746669 21.0648 0.735095 21.0484 0.727246 21.0301L0.711479 20.9943C0.698121 20.963 0.675963 20.9364 0.64771 20.9176C0.619457 20.8987 0.586331 20.8885 0.552377 20.8882L0.555244 20.8868Z" fill="#093F68"/>
<path d="M3.07692 25.7739L4.72379 25.2581C4.95118 25.1869 5.07778 24.9448 5.00656 24.7174L4.95901 24.5656C4.8878 24.3382 4.64573 24.2116 4.41835 24.2828L2.77147 24.7986C2.54409 24.8698 2.41749 25.1119 2.4887 25.3393L2.53625 25.4911C2.60747 25.7185 2.84953 25.8451 3.07692 25.7739Z" fill="#FFC9B0"/>
<path d="M2.95037 25.935C2.82784 25.9354 2.70842 25.8964 2.60962 25.8239C2.51083 25.7515 2.43785 25.6492 2.4014 25.5322L2.35266 25.3803C2.30782 25.2353 2.32233 25.0784 2.39299 24.944C2.46366 24.8097 2.58472 24.7088 2.72963 24.6636L4.37655 24.1476C4.52158 24.1028 4.67847 24.1173 4.81282 24.188C4.94717 24.2586 5.04801 24.3797 5.09323 24.5246L5.14196 24.6765C5.1868 24.8216 5.1723 24.9784 5.10163 25.1128C5.03096 25.2471 4.9099 25.348 4.76499 25.3932L3.11807 25.9092C3.0637 25.9258 3.00722 25.9345 2.95037 25.935ZM4.54712 24.4042C4.51832 24.4042 4.48973 24.409 4.46255 24.4185L2.81564 24.9331C2.77937 24.9442 2.74567 24.9624 2.71649 24.9866C2.6873 25.0108 2.66321 25.0406 2.64561 25.0742C2.62801 25.1078 2.61726 25.1445 2.61397 25.1823C2.61067 25.2201 2.61491 25.2582 2.62643 25.2943L2.67517 25.4462C2.68628 25.4823 2.70442 25.5159 2.72854 25.545C2.75266 25.574 2.78229 25.598 2.81572 25.6156C2.84915 25.6332 2.88573 25.644 2.92335 25.6474C2.96097 25.6508 2.9989 25.6467 3.03494 25.6354L4.68186 25.1194C4.71815 25.108 4.7518 25.0894 4.78084 25.0648C4.80988 25.0402 4.83373 25.01 4.85099 24.9761C4.86863 24.9427 4.87948 24.9061 4.88292 24.8685C4.88637 24.8308 4.88233 24.7929 4.87106 24.7568L4.82232 24.6034C4.80368 24.5452 4.76693 24.4945 4.71742 24.4587C4.66791 24.4228 4.60824 24.4037 4.54712 24.4042Z" fill="#093F68"/>
<path d="M3.36998 26.7095L5.01685 26.1938C5.24424 26.1225 5.37084 25.8805 5.29962 25.6531L5.25207 25.5013C5.18086 25.2739 4.93879 25.1473 4.71141 25.2185L3.06454 25.7343C2.83715 25.8055 2.71055 26.0475 2.78176 26.2749L2.82932 26.4268C2.90053 26.6541 3.14259 26.7807 3.36998 26.7095Z" fill="#FFC9B0"/>
<path d="M3.24277 26.871C3.12024 26.8713 3.00082 26.8324 2.90203 26.7599C2.80323 26.6874 2.73025 26.5852 2.6938 26.4682L2.6465 26.3148C2.6016 26.17 2.61591 26.0133 2.68629 25.879C2.75667 25.7446 2.87739 25.6437 3.02204 25.5982L4.66896 25.0822C4.81398 25.0373 4.97087 25.0518 5.10522 25.1225C5.23957 25.1932 5.34041 25.3142 5.38563 25.4591L5.43723 25.6096C5.48207 25.7547 5.46757 25.9116 5.3969 26.0459C5.32623 26.1803 5.20517 26.2811 5.06026 26.3263L3.41334 26.8409C3.35846 26.86 3.30087 26.8701 3.24277 26.871ZM4.84096 25.3402C4.81181 25.3402 4.78284 25.3446 4.75496 25.3531L3.10804 25.8691C3.0719 25.8803 3.03835 25.8986 3.00933 25.9229C2.9803 25.9472 2.95636 25.977 2.93891 26.0106C2.92145 26.0441 2.91082 26.0808 2.90762 26.1186C2.90442 26.1563 2.90872 26.1942 2.92027 26.2303L2.96757 26.3822C2.97867 26.4185 2.99686 26.4522 3.02108 26.4814C3.0453 26.5105 3.07507 26.5346 3.10867 26.5522C3.14226 26.5698 3.17902 26.5806 3.2168 26.5839C3.25458 26.5872 3.29264 26.5829 3.32877 26.5714L4.97426 26.0554C5.01052 26.0443 5.04423 26.0261 5.07341 26.0019C5.1026 25.9777 5.12668 25.9479 5.14428 25.9143C5.16188 25.8807 5.17264 25.844 5.17593 25.8062C5.17922 25.7684 5.17498 25.7303 5.16346 25.6942L5.11616 25.5423C5.09802 25.4835 5.06148 25.4322 5.01193 25.3958C4.96238 25.3594 4.90244 25.3399 4.84096 25.3402Z" fill="#093F68"/>
<path d="M3.66124 27.6443L5.30812 27.1285C5.5355 27.0573 5.6621 26.8152 5.59089 26.5878L5.54334 26.436C5.47212 26.2086 5.23006 26.082 5.00267 26.1532L3.3558 26.669C3.12841 26.7402 3.00181 26.9823 3.07303 27.2097L3.12058 27.3615C3.1918 27.5889 3.43386 27.7155 3.66124 27.6443Z" fill="#FFC9B0"/>
<path d="M3.53518 27.8055C3.41264 27.8059 3.29322 27.767 3.19443 27.6945C3.09563 27.622 3.02266 27.5198 2.9862 27.4028L2.9389 27.2508C2.89406 27.1058 2.90856 26.9489 2.97923 26.8146C3.0499 26.6802 3.17096 26.5794 3.31587 26.5342L4.96136 26.0196C5.10638 25.9747 5.26328 25.9893 5.39763 26.0599C5.53197 26.1306 5.63281 26.2517 5.67803 26.3966L5.72533 26.5485C5.77017 26.6935 5.75567 26.8504 5.685 26.9848C5.61434 27.1191 5.49327 27.22 5.34836 27.2652L3.70288 27.7812C3.64842 27.7972 3.59195 27.8054 3.53518 27.8055ZM5.13479 26.2747C5.10504 26.2745 5.07547 26.2793 5.04736 26.2891L3.40187 26.8036C3.36536 26.8146 3.3315 26.8331 3.3024 26.8577C3.27331 26.8824 3.24959 26.9128 3.23274 26.947C3.2151 26.9804 3.20425 27.017 3.20081 27.0546C3.19736 27.0923 3.2014 27.1302 3.21267 27.1663L3.25997 27.3182C3.27107 27.3545 3.28926 27.3882 3.31348 27.4174C3.3377 27.4465 3.36747 27.4706 3.40107 27.4882C3.43466 27.5058 3.47142 27.5166 3.5092 27.5199C3.54698 27.5232 3.58504 27.5189 3.62118 27.5074L5.2681 26.9914C5.30439 26.9799 5.33804 26.9614 5.36708 26.9367C5.39612 26.9121 5.41997 26.882 5.43723 26.8481C5.47185 26.7797 5.47853 26.7005 5.45586 26.6273L5.40856 26.4754C5.3905 26.4169 5.35417 26.3657 5.30491 26.3293C5.25564 26.293 5.19603 26.2733 5.13479 26.2733V26.2747Z" fill="#093F68"/>
<path d="M3.9543 28.5799L5.60118 28.0641C5.82856 27.9929 5.95516 27.7508 5.88395 27.5235L5.8364 27.3716C5.76518 27.1442 5.52312 27.0176 5.29573 27.0889L3.64886 27.6046C3.42148 27.6759 3.29487 27.9179 3.36609 28.1453L3.41364 28.2971C3.48485 28.5245 3.72692 28.6511 3.9543 28.5799Z" fill="#FFC9B0"/>
<path d="M3.82758 28.7415C3.73472 28.7411 3.64331 28.7185 3.56098 28.6756C3.49313 28.6411 3.43284 28.5934 3.38362 28.5353C3.3344 28.4772 3.29724 28.4099 3.27431 28.3373L3.22557 28.1854C3.18073 28.0403 3.19523 27.8835 3.2659 27.7491C3.33657 27.6148 3.45763 27.5139 3.60254 27.4687L5.24946 26.9527C5.39449 26.9079 5.55138 26.9224 5.68573 26.993C5.82008 27.0637 5.92092 27.1848 5.96614 27.3297L6.01344 27.4816C6.05834 27.6264 6.04403 27.7832 5.97365 27.9175C5.90327 28.0518 5.78254 28.1528 5.6379 28.1983L4.00388 28.7143C3.94697 28.7328 3.88743 28.742 3.82758 28.7415ZM5.42576 27.2107C5.39663 27.2109 5.36767 27.2152 5.33976 27.2236L3.69428 27.7396C3.65817 27.7507 3.62463 27.7689 3.59556 27.793C3.56648 27.8171 3.54247 27.8467 3.52488 27.8802C3.5073 27.9136 3.4965 27.9502 3.4931 27.9878C3.4897 28.0254 3.49377 28.0633 3.50508 28.0994L3.55238 28.2527C3.56363 28.2889 3.58192 28.3224 3.60621 28.3515C3.63049 28.3805 3.66028 28.4044 3.69386 28.4219C3.72744 28.4393 3.76415 28.45 3.80186 28.4532C3.83957 28.4564 3.87754 28.4521 3.91358 28.4405L5.5605 27.9259C5.59676 27.9148 5.63046 27.8966 5.65965 27.8724C5.68883 27.8482 5.71292 27.8184 5.73052 27.7848C5.74812 27.7512 5.75888 27.7145 5.76217 27.6767C5.76546 27.6389 5.76122 27.6009 5.7497 27.5647L5.70097 27.4128C5.68283 27.3541 5.64629 27.3027 5.59674 27.2663C5.54718 27.2299 5.48724 27.2104 5.42576 27.2107Z" fill="#093F68"/>
<path d="M6.5118 27.5018L6.51317 27.5014C6.79041 27.4146 6.94477 27.1194 6.85794 26.8422L6.06113 24.298C5.9743 24.0208 5.67916 23.8664 5.40192 23.9532L5.40055 23.9537C5.12331 24.0405 4.96894 24.3356 5.05577 24.6129L5.85258 27.1571C5.93941 27.4343 6.23455 27.5887 6.5118 27.5018Z" fill="#FFC9B0"/>
<path d="M6.35744 27.6679C6.21473 27.6678 6.0758 27.6221 5.96083 27.5375C5.84586 27.453 5.76086 27.334 5.71817 27.1978L4.92122 24.6536C4.86819 24.4841 4.88469 24.3004 4.96708 24.143C5.04947 23.9856 5.191 23.8674 5.36055 23.8144C5.53009 23.7614 5.71376 23.7778 5.87115 23.8602C6.02853 23.9426 6.14674 24.0842 6.19977 24.2537L6.99672 26.7979C7.04922 26.9674 7.03239 27.1509 6.94992 27.3081C6.86744 27.4652 6.72603 27.5833 6.55668 27.6364C6.49234 27.6574 6.4251 27.668 6.35744 27.6679ZM5.5605 24.0702C5.52164 24.0703 5.48301 24.0761 5.44583 24.0874C5.34906 24.1181 5.26836 24.1858 5.22136 24.2758C5.17436 24.3658 5.16488 24.4707 5.19499 24.5676L5.99194 27.1118C6.00679 27.1599 6.03103 27.2047 6.06326 27.2434C6.09549 27.2821 6.13508 27.314 6.17972 27.3373C6.22437 27.3607 6.2732 27.3749 6.32339 27.3792C6.37357 27.3836 6.42412 27.3779 6.47211 27.3626C6.52014 27.3476 6.56473 27.3233 6.60334 27.291C6.64194 27.2587 6.67381 27.2192 6.69711 27.1746C6.72041 27.13 6.73468 27.0812 6.73911 27.0311C6.74355 26.981 6.73805 26.9305 6.72295 26.8825L5.926 24.3383C5.90158 24.2605 5.85294 24.1925 5.7872 24.1443C5.72145 24.0961 5.64203 24.0702 5.5605 24.0702Z" fill="#093F68"/>
</svg>
