<svg width="25" height="30" viewBox="0 0 25 30" fill="none" xmlns="http://www.w3.org/2000/svg">
<path d="M22.1143 25.6334L22.0857 25.6585C21.006 26.6269 20.1048 26.6263 20.1048 26.6263C20.1048 26.6263 20.0654 25.7067 21.1527 24.6901L21.2016 24.6446C22.3391 23.6104 23.0012 23.3917 23.3068 23.7278C23.6124 24.064 22.8851 24.9326 22.1143 25.6334Z" fill="#9AB3DA"/>
<path d="M22.0857 25.6585C21.006 26.6269 20.1048 26.6262 20.1048 26.6262C20.1048 26.6262 20.0654 25.7067 21.1527 24.6901C21.1486 25.0025 21.5017 25.1818 22.4273 24.5149C22.4273 24.5142 21.3876 25.6768 22.0857 25.6585Z" fill="#E9F3FF"/>
<path d="M20.2766 26.5046C20.2697 26.5047 20.263 26.5026 20.2573 26.4988C20.2516 26.4949 20.2472 26.4894 20.2447 26.483C20.2422 26.4766 20.2417 26.4696 20.2433 26.4629C20.2449 26.4562 20.2484 26.4502 20.2535 26.4456L23.0453 23.9077C23.0521 23.9023 23.0606 23.8997 23.0693 23.9004C23.0779 23.9011 23.0859 23.905 23.0918 23.9114C23.0976 23.9179 23.1007 23.9262 23.1005 23.9349C23.1004 23.9436 23.0969 23.9518 23.0908 23.958L20.299 26.4958C20.2929 26.5014 20.2849 26.5045 20.2766 26.5046Z" fill="#404B7C"/>
<path d="M22.2032 24.6134C22.1951 24.6276 22.1869 24.6419 22.1781 24.6561C21.2274 26.2792 20.1177 26.635 20.1177 26.635C20.1177 26.635 19.7041 25.5159 20.6427 23.831C20.6562 23.8059 20.6712 23.7808 20.6854 23.7556C21.679 22.0287 22.4083 21.4956 22.9197 21.7897C23.431 22.0837 22.8762 23.4433 22.2032 24.6134Z" fill="#E9F3FF"/>
<path d="M22.1781 24.6561C21.2274 26.2792 20.1177 26.635 20.1177 26.635C20.1177 26.635 19.7041 25.5159 20.6427 23.831C20.7615 24.2181 21.2681 24.2989 22.1462 23.1091C22.1462 23.1091 21.3245 24.9556 22.1781 24.6561Z" fill="#9AB3DA"/>
<path d="M20.2685 26.4076C20.2625 26.4075 20.2567 26.4059 20.2516 26.4029C20.2464 26.3999 20.2422 26.3956 20.2392 26.3905C20.2363 26.3853 20.2347 26.3795 20.2347 26.3736C20.2347 26.3676 20.2363 26.3618 20.2393 26.3566L22.6772 22.1184C22.6817 22.1105 22.6892 22.1048 22.6979 22.1024C22.7066 22.1001 22.7159 22.1013 22.7238 22.1058C22.7316 22.1103 22.7373 22.1177 22.7397 22.1264C22.742 22.1352 22.7408 22.1445 22.7363 22.1523L20.2983 26.3906C20.2953 26.3958 20.291 26.4001 20.2857 26.4031C20.2805 26.4061 20.2745 26.4076 20.2685 26.4076Z" fill="#404B7C"/>
<path d="M17.8033 25.6008L17.8366 25.628C19.1045 26.6738 20.1238 26.631 20.1238 26.631C20.1238 26.631 20.1238 25.5879 18.8478 24.4877L18.7901 24.4388C17.4543 23.321 16.6944 23.1037 16.3636 23.4997C16.0329 23.8956 16.9008 24.8436 17.8033 25.6008Z" fill="#9AB3DA"/>
<path d="M17.8393 25.6286C19.1072 26.6745 20.1265 26.6317 20.1265 26.6317C20.1265 26.6317 20.1265 25.5886 18.8505 24.4884C18.8695 24.8422 18.4784 25.0609 17.3993 24.3526C17.3959 24.3492 18.6298 25.6171 17.8393 25.6286Z" fill="#E9F3FF"/>
<path d="M19.9242 26.4958C19.9162 26.4957 19.9085 26.4928 19.9024 26.4877L16.6244 23.7448C16.621 23.7419 16.6181 23.7384 16.6161 23.7345C16.614 23.7305 16.6127 23.7262 16.6123 23.7217C16.6119 23.7173 16.6123 23.7128 16.6137 23.7086C16.615 23.7043 16.6171 23.7003 16.62 23.6969C16.6229 23.6935 16.6264 23.6906 16.6303 23.6885C16.6343 23.6865 16.6386 23.6852 16.643 23.6848C16.6475 23.6844 16.6519 23.6848 16.6562 23.6862C16.6605 23.6875 16.6644 23.6896 16.6679 23.6925L19.9466 26.4367C19.9516 26.4413 19.9552 26.4473 19.9568 26.4539C19.9583 26.4606 19.9579 26.4675 19.9555 26.4739C19.9531 26.4803 19.9488 26.4858 19.9432 26.4897C19.9376 26.4936 19.931 26.4957 19.9242 26.4958Z" fill="#404B7C"/>
<path d="M17.7076 24.3125C17.7171 24.3295 17.7266 24.3458 17.7361 24.3614C18.8288 26.233 20.1089 26.6405 20.1089 26.6405C20.1089 26.6405 20.5843 25.3502 19.5045 23.4114C19.4882 23.3822 19.4719 23.3536 19.4556 23.3244C18.312 21.336 17.4713 20.7221 16.8825 21.061C16.2937 21.3999 16.9327 22.9652 17.7076 24.3125Z" fill="#E9F3FF"/>
<path d="M17.7354 24.3614C18.8288 26.233 20.1089 26.6405 20.1089 26.6405C20.1089 26.6405 20.5843 25.3502 19.5045 23.4114C19.3687 23.8575 18.7846 23.9506 17.7734 22.5801C17.7734 22.5808 18.7194 24.7071 17.7354 24.3614Z" fill="#9AB3DA"/>
<path d="M19.9357 26.3736C19.9298 26.3736 19.924 26.372 19.9189 26.369C19.9137 26.366 19.9095 26.3618 19.9065 26.3566L17.0991 21.4793C17.0969 21.4755 17.0954 21.4712 17.0949 21.4667C17.0943 21.4623 17.0946 21.4578 17.0958 21.4535C17.0969 21.4492 17.0989 21.4451 17.1017 21.4416C17.1044 21.438 17.1078 21.435 17.1117 21.4328C17.1155 21.4306 17.1198 21.4291 17.1243 21.4286C17.1287 21.428 17.1332 21.4283 17.1375 21.4295C17.1418 21.4306 17.1459 21.4326 17.1494 21.4354C17.153 21.4381 17.156 21.4415 17.1582 21.4454L19.9649 26.3254C19.9673 26.3305 19.9683 26.336 19.968 26.3416C19.9677 26.3471 19.966 26.3525 19.9632 26.3573C19.9603 26.3621 19.9563 26.366 19.9515 26.3689C19.9467 26.3717 19.9413 26.3734 19.9357 26.3736Z" fill="#404B7C"/>
<path d="M21.1119 23.2219V23.2823C21.0956 25.5858 20.132 26.6405 20.132 26.6405C20.132 26.6405 19.0087 25.7047 18.9775 23.3414C18.9775 23.3061 18.9775 23.2735 18.9775 23.2355C18.9775 20.7941 19.4271 19.7822 20.1503 19.7822C20.8736 19.7822 21.1119 21.5676 21.1119 23.2219Z" fill="#9AB3DA"/>
<path d="M21.1112 23.2823C21.0956 25.5858 20.132 26.6405 20.132 26.6405C20.132 26.6405 19.0087 25.7047 18.9775 23.3414C19.3408 23.681 19.9282 23.4562 20.132 21.6566C20.132 21.6593 20.388 24.1224 21.1112 23.2823Z" fill="#E9F3FF"/>
<path d="M20.132 26.3077C20.123 26.3077 20.1143 26.3041 20.108 26.2978C20.1016 26.2914 20.098 26.2828 20.098 26.2738V20.2827C20.098 20.2737 20.1016 20.2651 20.108 20.2587C20.1143 20.2524 20.123 20.2488 20.132 20.2488C20.141 20.2488 20.1496 20.2524 20.156 20.2587C20.1624 20.2651 20.1659 20.2737 20.1659 20.2827V26.2738C20.1659 26.2828 20.1624 26.2914 20.156 26.2978C20.1496 26.3041 20.141 26.3077 20.132 26.3077Z" fill="#404B7C"/>
<path d="M21.0895 30H18.8539C18.6755 29.9999 18.504 29.9307 18.3756 29.8068C18.2472 29.683 18.1718 29.5141 18.1653 29.3358L18.0689 26.6316C18.0678 26.5998 18.0731 26.5681 18.0845 26.5384C18.0959 26.5087 18.1132 26.4816 18.1353 26.4587C18.1574 26.4359 18.1839 26.4177 18.2132 26.4053C18.2425 26.3928 18.274 26.3865 18.3059 26.3865H21.6375C21.6694 26.3865 21.7009 26.3928 21.7302 26.4053C21.7595 26.4177 21.786 26.4359 21.8081 26.4587C21.8302 26.4816 21.8475 26.5087 21.8589 26.5384C21.8703 26.5681 21.8756 26.5998 21.8745 26.6316L21.7781 29.3358C21.7716 29.5141 21.6962 29.683 21.5678 29.8068C21.4394 29.9307 21.2679 29.9999 21.0895 30Z" fill="#F68D88"/>
<path d="M21.6375 26.3865H20.9849C20.9347 26.6051 20.9496 26.9202 21.3774 27.069C21.5314 27.1252 21.6983 27.136 21.8582 27.1002L21.8752 26.6316C21.8763 26.5998 21.871 26.568 21.8595 26.5383C21.8481 26.5085 21.8307 26.4814 21.8085 26.4585C21.7863 26.4356 21.7597 26.4174 21.7304 26.4051C21.701 26.3927 21.6694 26.3864 21.6375 26.3865Z" fill="#ECBDBB"/>
<path d="M20.1883 27.2618C20.1014 26.9542 20.2658 26.6017 20.3961 26.3865H19.6797C19.2668 27.0778 19.5167 28.3341 20.6386 28.0652C21.1941 27.9294 21.573 28.0027 21.8216 28.1209L21.8406 27.5776C21.1934 27.1742 20.316 27.7033 20.1883 27.2618Z" fill="#ECBDBB"/>
<path d="M21.6742 29.674C21.1309 28.474 20.1496 29.6509 19.5058 28.3939C19.0651 27.5335 18.475 27.5321 18.1049 27.6469L18.1259 28.2384C19.2763 27.7888 19.226 29.6686 20.2046 29.5212C20.7275 29.4424 21.0243 29.7202 21.1873 29.9966C21.2871 29.9818 21.3825 29.9453 21.4667 29.8895C21.5508 29.8338 21.6217 29.7602 21.6742 29.674Z" fill="#ECBDBB"/>
<path d="M18.6468 28.8761C18.35 28.9501 18.6305 29.6149 18.8879 29.4384C19.1452 29.2618 18.8716 28.8197 18.6468 28.8761Z" fill="#ECBDBB"/>
<path d="M21.1235 28.4211C20.9197 28.5426 21.2763 28.9725 21.4277 28.7844C21.5791 28.5963 21.2776 28.3294 21.1235 28.4211Z" fill="#ECBDBB"/>
<path d="M6.72311 2.06042H21.2219V15.4218H6.72311V2.06042Z" fill="#9AB3DA"/>
<path d="M21.2477 2.06042H6.6973C6.58966 2.06042 6.5024 2.14769 6.5024 2.25533V2.25601C6.5024 2.36365 6.58966 2.45091 6.6973 2.45091H21.2477C21.3554 2.45091 21.4426 2.36365 21.4426 2.25601V2.25533C21.4426 2.14769 21.3554 2.06042 21.2477 2.06042Z" fill="#404B7C"/>
<path d="M15.8659 2.45088H12.0799C12.0282 2.45088 11.9786 2.43035 11.942 2.39379C11.9055 2.35724 11.885 2.30767 11.885 2.25598V1.76295L12.3861 1.26245H15.5623L16.0635 1.76363V2.25598C16.0635 2.2818 16.0583 2.30737 16.0484 2.3312C16.0384 2.35502 16.0238 2.37663 16.0054 2.39476C15.987 2.4129 15.9652 2.4272 15.9413 2.43683C15.9173 2.44646 15.8917 2.45124 15.8659 2.45088Z" fill="#E9F3FF"/>
<path d="M12.7121 2.09433C12.8152 2.09433 12.8989 2.01072 12.8989 1.90758C12.8989 1.80444 12.8152 1.72083 12.7121 1.72083C12.609 1.72083 12.5254 1.80444 12.5254 1.90758C12.5254 2.01072 12.609 2.09433 12.7121 2.09433Z" fill="white"/>
<path d="M15.2336 2.09433C15.3368 2.09433 15.4204 2.01072 15.4204 1.90758C15.4204 1.80444 15.3368 1.72083 15.2336 1.72083C15.1305 1.72083 15.0469 1.80444 15.0469 1.90758C15.0469 2.01072 15.1305 2.09433 15.2336 2.09433Z" fill="white"/>
<path d="M21.2477 15.0312H6.6973C6.58966 15.0312 6.5024 15.1185 6.5024 15.2262V15.2268C6.5024 15.3345 6.58966 15.4217 6.6973 15.4217H21.2477C21.3554 15.4217 21.4426 15.3345 21.4426 15.2268V15.2262C21.4426 15.1185 21.3554 15.0312 21.2477 15.0312Z" fill="#404B7C"/>
<path d="M19.4223 3.46954H8.5234C8.37376 3.46954 8.25244 3.59086 8.25244 3.7405V13.7416C8.25244 13.8913 8.37376 14.0126 8.5234 14.0126H19.4223C19.572 14.0126 19.6933 13.8913 19.6933 13.7416V3.7405C19.6933 3.59086 19.572 3.46954 19.4223 3.46954Z" fill="#E9F3FF"/>
<path d="M11.0694 13.8055C11.0604 13.8055 11.0517 13.8019 11.0453 13.7955C11.039 13.7892 11.0354 13.7805 11.0354 13.7715V3.60537C11.0354 3.59636 11.039 3.58772 11.0453 3.58136C11.0517 3.57499 11.0604 3.57141 11.0694 3.57141C11.0784 3.57141 11.087 3.57499 11.0934 3.58136C11.0997 3.58772 11.1033 3.59636 11.1033 3.60537V13.7749C11.1025 13.7833 11.0985 13.7911 11.0922 13.7968C11.086 13.8024 11.0778 13.8055 11.0694 13.8055Z" fill="#404B7C"/>
<path d="M13.9725 13.8055C13.9635 13.8055 13.9549 13.8019 13.9485 13.7955C13.9421 13.7892 13.9386 13.7805 13.9386 13.7715V3.60537C13.9386 3.59636 13.9421 3.58772 13.9485 3.58136C13.9549 3.57499 13.9635 3.57141 13.9725 3.57141C13.9815 3.57141 13.9902 3.57499 13.9965 3.58136C14.0029 3.58772 14.0065 3.59636 14.0065 3.60537V13.7749C14.0056 13.7833 14.0017 13.7911 13.9954 13.7968C13.9891 13.8024 13.981 13.8055 13.9725 13.8055Z" fill="#404B7C"/>
<path d="M16.8757 13.8055C16.8667 13.8055 16.858 13.8019 16.8517 13.7955C16.8453 13.7892 16.8417 13.7805 16.8417 13.7715V3.60537C16.8417 3.59636 16.8453 3.58772 16.8517 3.58136C16.858 3.57499 16.8667 3.57141 16.8757 3.57141C16.8847 3.57141 16.8933 3.57499 16.8997 3.58136C16.9061 3.58772 16.9096 3.59636 16.9096 3.60537V13.7749C16.9088 13.7833 16.9048 13.7911 16.8986 13.7968C16.8923 13.8024 16.8841 13.8055 16.8757 13.8055Z" fill="#404B7C"/>
<path d="M10.4276 4.62402H8.86296C8.78007 4.62402 8.71288 4.69122 8.71288 4.7741C8.71288 4.85699 8.78007 4.92419 8.86296 4.92419H10.4276C10.5105 4.92419 10.5777 4.85699 10.5777 4.7741C10.5777 4.69122 10.5105 4.62402 10.4276 4.62402Z" fill="#9AB3DA"/>
<path d="M10.4276 5.34247H8.86296C8.78007 5.34247 8.71288 5.40966 8.71288 5.49255C8.71288 5.57544 8.78007 5.64263 8.86296 5.64263H10.4276C10.5105 5.64263 10.5777 5.57544 10.5777 5.49255C10.5777 5.40966 10.5105 5.34247 10.4276 5.34247Z" fill="#9AB3DA"/>
<path d="M10.4276 6.06165H8.86296C8.78007 6.06165 8.71288 6.12884 8.71288 6.21173C8.71288 6.29461 8.78007 6.36181 8.86296 6.36181H10.4276C10.5105 6.36181 10.5777 6.29461 10.5777 6.21173C10.5777 6.12884 10.5105 6.06165 10.4276 6.06165Z" fill="#9AB3DA"/>
<path d="M13.0693 8.40997H11.5047C11.4218 8.40997 11.3546 8.47717 11.3546 8.56005C11.3546 8.64294 11.4218 8.71014 11.5047 8.71014H13.0693C13.1522 8.71014 13.2194 8.64294 13.2194 8.56005C13.2194 8.47717 13.1522 8.40997 13.0693 8.40997Z" fill="white"/>
<path d="M13.0693 9.12848H11.5047C11.4218 9.12848 11.3546 9.19567 11.3546 9.27856C11.3546 9.36145 11.4218 9.42864 11.5047 9.42864H13.0693C13.1522 9.42864 13.2194 9.36145 13.2194 9.27856C13.2194 9.19567 13.1522 9.12848 13.0693 9.12848Z" fill="white"/>
<path d="M12.3664 9.84766H11.5047C11.4218 9.84766 11.3546 9.91485 11.3546 9.99774C11.3546 10.0806 11.4218 10.1478 11.5047 10.1478H12.3664C12.4493 10.1478 12.5165 10.0806 12.5165 9.99774C12.5165 9.91485 12.4493 9.84766 12.3664 9.84766Z" fill="white"/>
<path d="M19.0963 11.398H17.5317C17.4488 11.398 17.3816 11.4652 17.3816 11.5481C17.3816 11.631 17.4488 11.6982 17.5317 11.6982H19.0963C19.1792 11.6982 19.2464 11.631 19.2464 11.5481C19.2464 11.4652 19.1792 11.398 19.0963 11.398Z" fill="#F68D88"/>
<path d="M19.0963 12.1165H17.5317C17.4488 12.1165 17.3816 12.1837 17.3816 12.2666C17.3816 12.3495 17.4488 12.4167 17.5317 12.4167H19.0963C19.1792 12.4167 19.2464 12.3495 19.2464 12.2666C19.2464 12.1837 19.1792 12.1165 19.0963 12.1165Z" fill="#F68D88"/>
<path d="M18.3935 12.8357H17.5317C17.4488 12.8357 17.3816 12.9029 17.3816 12.9858C17.3816 13.0687 17.4488 13.1359 17.5317 13.1359H18.3935C18.4764 13.1359 18.5435 13.0687 18.5435 12.9858C18.5435 12.9029 18.4764 12.8357 18.3935 12.8357Z" fill="#F68D88"/>
<path d="M12.9566 7.18759C13.432 6.5764 13.3756 5.4389 13.3756 5.4389H11.7749C11.7749 5.4389 11.8313 6.5764 11.3559 7.18759H12.9566Z" fill="#9AB3DA"/>
<path d="M12.5926 5.64269C12.7614 5.64269 12.8982 5.50587 12.8982 5.33709C12.8982 5.16831 12.7614 5.03149 12.5926 5.03149C12.4238 5.03149 12.287 5.16831 12.287 5.33709C12.287 5.50587 12.4238 5.64269 12.5926 5.64269Z" fill="#404B7C"/>
<path d="M15.7348 10.5661C16.2102 9.95494 16.1538 8.81744 16.1538 8.81744H14.5532C14.5532 8.81744 14.6116 9.95494 14.1362 10.5661H15.7368H15.7348Z" fill="#F68D88"/>
<path d="M15.3708 9.02116C15.5396 9.02116 15.6764 8.88434 15.6764 8.71557C15.6764 8.54679 15.5396 8.40997 15.3708 8.40997C15.202 8.40997 15.0652 8.54679 15.0652 8.71557C15.0652 8.88434 15.202 9.02116 15.3708 9.02116Z" fill="#404B7C"/>
<path d="M17.2906 6.23959L18.8525 5.86608C18.894 5.85609 18.9378 5.86262 18.9745 5.88429C19.0113 5.90596 19.0382 5.94108 19.0495 5.98221L19.5493 7.79541C19.5552 7.81669 19.5567 7.83893 19.5539 7.86082C19.551 7.88271 19.5437 7.90379 19.5325 7.92281C19.5213 7.94182 19.5063 7.95838 19.4886 7.9715C19.4708 7.98461 19.4506 7.99401 19.4291 7.99914L17.8672 8.37265C17.8257 8.38264 17.782 8.37612 17.7452 8.35444C17.7084 8.33277 17.6816 8.29766 17.6702 8.25652L17.1704 6.44332C17.1645 6.42204 17.163 6.3998 17.1659 6.37791C17.1688 6.35602 17.176 6.33494 17.1872 6.31593C17.1985 6.29691 17.2134 6.28035 17.2312 6.26724C17.2489 6.25412 17.2691 6.24472 17.2906 6.23959Z" fill="#9AB3DA"/>
<path d="M17.5894 6.82224C17.5804 6.82332 17.5713 6.82078 17.5642 6.81517C17.5571 6.80957 17.5525 6.80136 17.5514 6.79236C17.5503 6.78335 17.5528 6.77429 17.5584 6.76716C17.5641 6.76002 17.5723 6.75541 17.5813 6.75433L18.8926 6.44058C18.9016 6.43851 18.9111 6.4401 18.9189 6.44501C18.9267 6.44991 18.9323 6.45772 18.9344 6.46673C18.9364 6.47573 18.9349 6.48519 18.93 6.49303C18.925 6.50086 18.9172 6.50642 18.9082 6.50849L17.5996 6.82156H17.5915L17.5894 6.82224Z" fill="#404B7C"/>
<path d="M17.7028 7.21817C17.6938 7.21925 17.6848 7.21671 17.6776 7.21111C17.6705 7.20551 17.6659 7.1973 17.6648 7.18829C17.6637 7.17929 17.6663 7.17022 17.6719 7.16309C17.6775 7.15596 17.6857 7.15134 17.6947 7.15026L19.006 6.83652C19.0105 6.83549 19.0151 6.83536 19.0196 6.83612C19.0241 6.83687 19.0284 6.83851 19.0323 6.84094C19.0362 6.84337 19.0396 6.84654 19.0422 6.85026C19.0449 6.85399 19.0468 6.85821 19.0478 6.86266C19.0488 6.86712 19.0489 6.87174 19.0482 6.87625C19.0474 6.88076 19.0458 6.88508 19.0434 6.88896C19.0409 6.89284 19.0378 6.8962 19.034 6.89886C19.0303 6.90151 19.0261 6.9034 19.0216 6.90443L17.711 7.21817H17.7028Z" fill="#404B7C"/>
<path d="M17.8162 7.61475C17.8072 7.61583 17.7982 7.61329 17.791 7.60769C17.7839 7.60208 17.7793 7.59387 17.7782 7.58487C17.7771 7.57586 17.7797 7.5668 17.7853 7.55967C17.7909 7.55253 17.7991 7.54792 17.8081 7.54684L18.6149 7.35398C18.6239 7.3519 18.6333 7.35349 18.6412 7.3584C18.649 7.3633 18.6546 7.37111 18.6566 7.38012C18.6587 7.38913 18.6571 7.39859 18.6522 7.40642C18.6473 7.41425 18.6395 7.41981 18.6305 7.42189L17.8244 7.61475H17.8162Z" fill="#404B7C"/>
<path d="M18.0899 6.30205C18.2587 6.30205 18.3955 6.16523 18.3955 5.99645C18.3955 5.82768 18.2587 5.69086 18.0899 5.69086C17.9211 5.69086 17.7843 5.82768 17.7843 5.99645C17.7843 6.16523 17.9211 6.30205 18.0899 6.30205Z" fill="#404B7C"/>
<path d="M10.7162 11.5705L9.15429 11.197C9.11281 11.187 9.06907 11.1936 9.03232 11.2152C8.99557 11.2369 8.96869 11.272 8.95736 11.3131L8.46093 13.1263C8.45504 13.1476 8.45349 13.1699 8.45638 13.1918C8.45927 13.2136 8.46654 13.2347 8.47776 13.2537C8.48898 13.2728 8.50392 13.2893 8.52168 13.3024C8.53944 13.3155 8.55966 13.3249 8.58113 13.3301L10.1431 13.7036C10.1845 13.7136 10.2283 13.707 10.265 13.6854C10.3018 13.6637 10.3287 13.6286 10.34 13.5875L10.8398 11.7743C10.8457 11.7527 10.8471 11.7303 10.844 11.7082C10.8409 11.6861 10.8333 11.6649 10.8218 11.6459C10.8102 11.6268 10.7949 11.6103 10.7767 11.5973C10.7586 11.5844 10.738 11.5753 10.7162 11.5705Z" fill="#9AB3DA"/>
<path d="M10.4167 12.1532H10.4086L9.09725 11.8361C9.08824 11.834 9.08043 11.8284 9.07552 11.8206C9.07062 11.8128 9.06903 11.8033 9.0711 11.7943C9.07317 11.7853 9.07874 11.7775 9.08657 11.7726C9.0944 11.7677 9.10386 11.7661 9.11286 11.7682L10.4242 12.0826C10.4336 12.0836 10.4422 12.0882 10.4481 12.0956C10.454 12.1029 10.4568 12.1123 10.4558 12.1216C10.4548 12.131 10.4501 12.1396 10.4428 12.1455C10.4355 12.1514 10.4261 12.1542 10.4167 12.1532Z" fill="#404B7C"/>
<path d="M10.3033 12.5498H10.2952L8.98383 12.236C8.97483 12.234 8.96702 12.2284 8.96211 12.2206C8.95721 12.2127 8.95562 12.2033 8.95769 12.1943C8.95976 12.1853 8.96532 12.1774 8.97316 12.1725C8.98099 12.1676 8.99045 12.1661 8.99945 12.1681L10.3108 12.4825C10.3191 12.4842 10.3265 12.489 10.3315 12.4958C10.3365 12.5027 10.3388 12.5111 10.3378 12.5196C10.3369 12.528 10.3328 12.5358 10.3264 12.5414C10.3201 12.547 10.3118 12.55 10.3033 12.5498Z" fill="#404B7C"/>
<path d="M10.1906 12.9457H10.1825L9.37636 12.7529C9.36735 12.7508 9.35954 12.7452 9.35464 12.7374C9.34973 12.7296 9.34814 12.7201 9.35021 12.7111C9.35228 12.7021 9.35785 12.6943 9.36568 12.6894C9.37351 12.6845 9.38297 12.6829 9.39198 12.685L10.1974 12.8785C10.2056 12.8802 10.213 12.8849 10.218 12.8917C10.223 12.8984 10.2253 12.9068 10.2244 12.9152C10.2236 12.9236 10.2196 12.9313 10.2134 12.937C10.2071 12.9426 10.199 12.9458 10.1906 12.9457Z" fill="#404B7C"/>
<path d="M9.91624 11.633C10.085 11.633 10.2218 11.4962 10.2218 11.3274C10.2218 11.1587 10.085 11.0219 9.91624 11.0219C9.74747 11.0219 9.61065 11.1587 9.61065 11.3274C9.61065 11.4962 9.74747 11.633 9.91624 11.633Z" fill="#404B7C"/>
<path d="M18.0077 9.55295C18.1139 9.55295 18.1999 9.46691 18.1999 9.36077C18.1999 9.25462 18.1139 9.16858 18.0077 9.16858C17.9016 9.16858 17.8156 9.25462 17.8156 9.36077C17.8156 9.46691 17.9016 9.55295 18.0077 9.55295Z" fill="#404B7C"/>
<path d="M18.7833 10.1247C18.9333 10.1247 19.0549 10.0031 19.0549 9.85306C19.0549 9.70304 18.9333 9.58142 18.7833 9.58142C18.6333 9.58142 18.5116 9.70304 18.5116 9.85306C18.5116 10.0031 18.6333 10.1247 18.7833 10.1247Z" fill="#F68D88"/>
<path d="M12.3556 12.5695C12.7846 12.5695 13.1325 12.2216 13.1325 11.7926C13.1325 11.3635 12.7846 11.0157 12.3556 11.0157C11.9265 11.0157 11.5787 11.3635 11.5787 11.7926C11.5787 12.2216 11.9265 12.5695 12.3556 12.5695Z" fill="#F68D88"/>
<path d="M13.3233 13.2058C13.5037 13.2058 13.6499 13.0595 13.6499 12.8791C13.6499 12.6987 13.5037 12.5525 13.3233 12.5525C13.1429 12.5525 12.9967 12.6987 12.9967 12.8791C12.9967 13.0595 13.1429 13.2058 13.3233 13.2058Z" fill="#404B7C"/>
<path d="M15.4604 5.33842L15.6893 5.80156L16.2007 5.87559C16.2236 5.87913 16.2452 5.88902 16.2628 5.90414C16.2805 5.91925 16.2936 5.93901 16.3007 5.96116C16.3077 5.98332 16.3085 6.00701 16.3028 6.02957C16.2971 6.05212 16.2853 6.07264 16.2686 6.08882L15.9018 6.45011L15.9895 6.95875C15.9934 6.98174 15.9908 7.00537 15.9821 7.02697C15.9733 7.04858 15.9586 7.06729 15.9398 7.081C15.9209 7.09471 15.8986 7.10286 15.8753 7.10454C15.852 7.10622 15.8288 7.10136 15.8081 7.0905L15.3511 6.8501L14.8941 7.0905C14.8734 7.10136 14.8502 7.10622 14.8269 7.10454C14.8036 7.10286 14.7813 7.09471 14.7624 7.081C14.7436 7.06729 14.7289 7.04858 14.7201 7.02697C14.7114 7.00537 14.7088 6.98174 14.7127 6.95875L14.8003 6.45011L14.4302 6.0895C14.4135 6.07332 14.4017 6.0528 14.396 6.03025C14.3903 6.00769 14.3911 5.984 14.3981 5.96184C14.4052 5.93968 14.4183 5.91993 14.4359 5.90482C14.4536 5.8897 14.4752 5.87981 14.4981 5.87627L15.0095 5.80224L15.2384 5.3391C15.2488 5.31869 15.2647 5.30155 15.2842 5.28956C15.3038 5.27757 15.3263 5.27119 15.3492 5.27112C15.3721 5.27105 15.3946 5.27729 15.4143 5.28916C15.4339 5.30103 15.4498 5.31807 15.4604 5.33842Z" fill="#F68D88"/>
<path d="M19.9941 17.3721C19.9851 17.3734 19.9759 17.3711 19.9686 17.3657C19.9613 17.3603 19.9564 17.3522 19.9551 17.3432C19.9537 17.3342 19.956 17.325 19.9614 17.3177C19.9668 17.3104 19.9749 17.3055 19.9839 17.3042C19.9839 17.3042 20.0301 17.2899 20.1096 17.2587C20.1138 17.2567 20.1184 17.2555 20.123 17.2554C20.1277 17.2552 20.1324 17.2561 20.1367 17.2578C20.141 17.2595 20.145 17.2621 20.1483 17.2654C20.1515 17.2688 20.1541 17.2727 20.1558 17.2771C20.1575 17.2814 20.1582 17.2861 20.1581 17.2907C20.1579 17.2954 20.1567 17.3 20.1547 17.3042C20.1526 17.3084 20.1497 17.3121 20.1462 17.3152C20.1426 17.3182 20.1385 17.3205 20.134 17.3218C20.0525 17.3537 20.0063 17.368 20.0043 17.3687L19.9941 17.3721Z" fill="#404B7C"/>
<path d="M20.443 17.1847C20.434 17.1867 20.4246 17.185 20.4168 17.18C20.409 17.1751 20.4036 17.1672 20.4016 17.1582C20.3996 17.1492 20.4013 17.1398 20.4062 17.132C20.4112 17.1242 20.4191 17.1188 20.4281 17.1168C20.5313 17.0672 20.6318 17.0122 20.7371 16.9545C20.7409 16.952 20.7453 16.9503 20.7499 16.9496C20.7544 16.9489 20.7591 16.9491 20.7635 16.9502C20.768 16.9513 20.7722 16.9533 20.7759 16.9561C20.7796 16.9589 20.7826 16.9624 20.7849 16.9665C20.7872 16.9705 20.7886 16.9749 20.7891 16.9795C20.7896 16.9841 20.7891 16.9887 20.7878 16.9931C20.7864 16.9976 20.7841 17.0016 20.7811 17.0051C20.7781 17.0087 20.7745 17.0115 20.7703 17.0136C20.6671 17.072 20.5618 17.1277 20.4573 17.1779C20.4531 17.1813 20.4482 17.1836 20.443 17.1847Z" fill="#404B7C"/>
<path d="M20.9353 16.9137C20.9281 16.9135 20.9211 16.911 20.9153 16.9066C20.9096 16.9021 20.9054 16.896 20.9034 16.889C20.9014 16.882 20.9018 16.8745 20.9043 16.8677C20.9069 16.8609 20.9116 16.8551 20.9177 16.8512C20.9965 16.8023 21.0752 16.7507 21.152 16.6984C21.1556 16.6956 21.1598 16.6935 21.1643 16.6924C21.1687 16.6912 21.1734 16.691 21.1779 16.6917C21.1825 16.6924 21.1868 16.694 21.1908 16.6964C21.1947 16.6989 21.198 16.7021 21.2007 16.7059C21.2033 16.7096 21.2051 16.7139 21.2061 16.7184C21.207 16.723 21.207 16.7276 21.206 16.7321C21.2051 16.7366 21.2033 16.7409 21.2006 16.7447C21.198 16.7485 21.1946 16.7517 21.1907 16.7541C21.1133 16.8071 21.0338 16.8594 20.9537 16.9089C20.9481 16.9122 20.9418 16.9139 20.9353 16.9137ZM21.4542 16.5517C21.4472 16.5517 21.4403 16.5495 21.4346 16.5454C21.4289 16.5413 21.4246 16.5356 21.4223 16.5289C21.42 16.5223 21.4198 16.5151 21.4217 16.5084C21.4237 16.5016 21.4277 16.4957 21.4331 16.4913C21.5241 16.4193 21.6144 16.3439 21.7007 16.2672C21.704 16.2642 21.7079 16.2619 21.7122 16.2604C21.7164 16.2589 21.7209 16.2583 21.7254 16.2585C21.7298 16.2588 21.7342 16.2599 21.7383 16.2619C21.7423 16.2638 21.7459 16.2665 21.7489 16.2699C21.7519 16.2732 21.7542 16.2771 21.7557 16.2814C21.7572 16.2856 21.7578 16.2901 21.7575 16.2946C21.7573 16.299 21.7562 16.3034 21.7542 16.3075C21.7523 16.3115 21.7495 16.3151 21.7462 16.3181C21.6586 16.3962 21.5676 16.4723 21.4746 16.5449C21.4687 16.5493 21.4615 16.5517 21.4542 16.5517ZM21.8779 16.1823C21.8712 16.1823 21.8645 16.1803 21.8589 16.1766C21.8532 16.1728 21.8488 16.1674 21.8463 16.1611C21.8437 16.1548 21.8431 16.1479 21.8445 16.1413C21.8459 16.1347 21.8493 16.1286 21.8542 16.1239C21.9221 16.056 21.99 15.9881 22.0498 15.9249C22.056 15.919 22.0643 15.9158 22.0729 15.9157C22.0815 15.9157 22.0898 15.919 22.0961 15.9249C22.1024 15.9307 22.1062 15.9388 22.1068 15.9473C22.1074 15.9559 22.1047 15.9644 22.0993 15.9711C22.0362 16.039 21.9696 16.1069 21.901 16.1748C21.8945 16.1801 21.8863 16.1827 21.8779 16.1823ZM22.3058 15.7171C22.2993 15.7172 22.2929 15.7154 22.2874 15.712C22.2819 15.7085 22.2775 15.7036 22.2747 15.6977C22.2719 15.6919 22.2709 15.6853 22.2717 15.6789C22.2725 15.6725 22.2751 15.6664 22.2793 15.6614C22.3526 15.5718 22.4239 15.4781 22.4905 15.3837C22.4957 15.3763 22.5037 15.3713 22.5126 15.3697C22.5215 15.3682 22.5306 15.3703 22.538 15.3755C22.5454 15.3807 22.5504 15.3887 22.5519 15.3976C22.5535 15.4065 22.5514 15.4157 22.5462 15.4231C22.4783 15.5188 22.4063 15.6132 22.3323 15.7049C22.3291 15.7087 22.3252 15.7117 22.3207 15.7138C22.3162 15.7159 22.3114 15.7171 22.3065 15.7171H22.3058ZM22.6365 15.2628C22.6304 15.2628 22.6244 15.2611 22.6192 15.258C22.614 15.2549 22.6097 15.2504 22.6067 15.2451C22.6038 15.2397 22.6024 15.2337 22.6026 15.2276C22.6028 15.2215 22.6047 15.2156 22.608 15.2105C22.6582 15.1331 22.7071 15.0529 22.7533 14.9721C22.7578 14.9643 22.7652 14.9586 22.774 14.9562C22.7827 14.9539 22.792 14.9551 22.7998 14.9596C22.8077 14.9641 22.8134 14.9715 22.8157 14.9802C22.8181 14.9889 22.8169 14.9982 22.8124 15.0061C22.7655 15.0876 22.716 15.1691 22.665 15.2478C22.662 15.2523 22.658 15.256 22.6532 15.2586C22.6485 15.2612 22.6432 15.2626 22.6379 15.2628H22.6365ZM22.9475 14.712C22.9418 14.712 22.9361 14.7106 22.931 14.7078C22.926 14.705 22.9217 14.701 22.9187 14.6961C22.9156 14.6912 22.9138 14.6856 22.9135 14.6798C22.9133 14.6741 22.9144 14.6683 22.917 14.6631C22.9679 14.5592 23.0154 14.4519 23.0589 14.3446C23.0623 14.3363 23.0689 14.3296 23.0773 14.3261C23.0856 14.3226 23.095 14.3225 23.1034 14.326C23.1118 14.3294 23.1184 14.336 23.1219 14.3443C23.1254 14.3527 23.1255 14.3621 23.1221 14.3704C23.0779 14.4791 23.0297 14.5878 22.9781 14.6937C22.9753 14.6993 22.9711 14.7041 22.9658 14.7074C22.9605 14.7108 22.9545 14.7126 22.9482 14.7127L22.9475 14.712ZM23.1662 14.1946C23.1624 14.1952 23.1585 14.1952 23.1547 14.1946C23.1462 14.1915 23.1393 14.1852 23.1355 14.177C23.1316 14.1689 23.1312 14.1596 23.1343 14.1511C23.1655 14.0648 23.1954 13.9759 23.2226 13.8862C23.2252 13.8772 23.2313 13.8696 23.2395 13.8651C23.2435 13.8629 23.248 13.8615 23.2526 13.861C23.2572 13.8604 23.2619 13.8608 23.2664 13.8621C23.2708 13.8634 23.275 13.8656 23.2786 13.8685C23.2822 13.8714 23.2852 13.875 23.2875 13.879C23.2897 13.8831 23.2911 13.8876 23.2917 13.8922C23.2922 13.8968 23.2918 13.9015 23.2905 13.9059C23.2626 13.9963 23.2327 14.0866 23.2015 14.1776C23.1982 14.1834 23.1933 14.188 23.1874 14.1911C23.1815 14.1941 23.1748 14.1953 23.1682 14.1946H23.1662ZM23.3468 13.5888H23.3387C23.33 13.5867 23.3224 13.5812 23.3177 13.5736C23.313 13.566 23.3115 13.5568 23.3136 13.5481C23.34 13.4367 23.3638 13.3212 23.3815 13.2085C23.3822 13.204 23.3839 13.1998 23.3863 13.1959C23.3887 13.1921 23.3918 13.1888 23.3955 13.1862C23.3992 13.1836 23.4034 13.1817 23.4078 13.1807C23.4122 13.1797 23.4167 13.1796 23.4212 13.1803C23.4257 13.1811 23.4299 13.1827 23.4338 13.1851C23.4376 13.1875 23.4409 13.1907 23.4435 13.1943C23.4461 13.198 23.448 13.2022 23.449 13.2066C23.45 13.211 23.4501 13.2156 23.4494 13.22C23.429 13.3369 23.4046 13.453 23.3781 13.5657C23.3759 13.5723 23.3717 13.578 23.3661 13.5822C23.3605 13.5863 23.3538 13.5886 23.3468 13.5888ZM23.4507 13.0367H23.4467C23.4379 13.0353 23.43 13.0306 23.4246 13.0235C23.4193 13.0164 23.417 13.0075 23.4181 12.9987C23.431 12.9077 23.4419 12.8146 23.4514 12.7209C23.4524 12.712 23.4569 12.7038 23.4639 12.698C23.4709 12.6923 23.4798 12.6896 23.4888 12.6903C23.4932 12.6908 23.4976 12.6921 23.5015 12.6942C23.5055 12.6963 23.509 12.6992 23.5118 12.7026C23.5147 12.7061 23.5168 12.7101 23.5181 12.7144C23.5194 12.7187 23.5198 12.7232 23.5193 12.7277C23.5098 12.8221 23.499 12.9165 23.4861 13.0082C23.4847 13.0163 23.4805 13.0237 23.4741 13.029C23.4677 13.0342 23.4597 13.037 23.4514 13.0367H23.4507ZM23.5085 12.4072C23.504 12.407 23.4996 12.4059 23.4956 12.4041C23.4915 12.4022 23.4879 12.3995 23.4848 12.3963C23.4818 12.393 23.4795 12.3891 23.4779 12.3849C23.4764 12.3808 23.4757 12.3763 23.4759 12.3718C23.4806 12.2645 23.4833 12.1545 23.4833 12.0459V12.0228C23.4833 12.0138 23.4869 12.0051 23.4933 11.9988C23.4996 11.9924 23.5083 11.9888 23.5173 11.9888C23.5263 11.9888 23.5349 11.9924 23.5413 11.9988C23.5477 12.0051 23.5512 12.0138 23.5512 12.0228V12.0466C23.5512 12.1566 23.5512 12.2673 23.5438 12.3759C23.5431 12.3848 23.5389 12.3931 23.5322 12.3989C23.5254 12.4048 23.5167 12.4077 23.5078 12.4072H23.5085ZM23.5119 11.8449C23.5031 11.8449 23.4946 11.8415 23.4883 11.8354C23.482 11.8293 23.4783 11.821 23.4779 11.8123C23.4779 11.7206 23.4704 11.6262 23.4643 11.5325C23.464 11.528 23.4647 11.5235 23.4661 11.5193C23.4676 11.5151 23.4698 11.5112 23.4728 11.5079C23.4758 11.5045 23.4794 11.5018 23.4834 11.4998C23.4874 11.4979 23.4918 11.4967 23.4962 11.4965C23.5007 11.4961 23.5052 11.4967 23.5095 11.4981C23.5138 11.4995 23.5177 11.5018 23.5211 11.5048C23.5244 11.5077 23.5271 11.5114 23.5291 11.5154C23.531 11.5195 23.5321 11.5239 23.5322 11.5284C23.5383 11.6228 23.5431 11.7179 23.5458 11.8102C23.546 11.8147 23.5453 11.8191 23.5438 11.8233C23.5422 11.8275 23.5399 11.8314 23.5368 11.8346C23.5338 11.8379 23.5302 11.8406 23.5261 11.8424C23.5221 11.8443 23.5177 11.8454 23.5132 11.8455L23.5119 11.8449ZM23.4677 11.214C23.4593 11.214 23.4511 11.2109 23.4448 11.2053C23.4386 11.1996 23.4346 11.1918 23.4338 11.1834C23.4215 11.0693 23.4066 10.9518 23.3896 10.8357C23.3884 10.8267 23.3907 10.8176 23.3962 10.8103C23.4017 10.8031 23.4098 10.7983 23.4188 10.797C23.4278 10.7957 23.437 10.7981 23.4442 10.8036C23.4515 10.8091 23.4563 10.8172 23.4575 10.8262C23.4745 10.943 23.4894 11.0612 23.5017 11.1759C23.5026 11.1849 23.5 11.1938 23.4944 11.2008C23.4888 11.2078 23.4807 11.2123 23.4718 11.2133H23.4684L23.4677 11.214ZM23.391 10.6571C23.383 10.6571 23.3752 10.6542 23.3691 10.6489C23.363 10.6437 23.359 10.6365 23.3577 10.6286C23.3423 10.538 23.3256 10.4461 23.3074 10.3529C23.3057 10.3439 23.3077 10.3346 23.3128 10.327C23.318 10.3194 23.3259 10.3142 23.335 10.3125C23.344 10.3108 23.3533 10.3127 23.3609 10.3179C23.3684 10.323 23.3736 10.331 23.3754 10.34C23.3939 10.4337 23.4109 10.5263 23.4263 10.6177C23.4271 10.6221 23.427 10.6267 23.426 10.631C23.425 10.6354 23.4232 10.6396 23.4206 10.6432C23.418 10.6469 23.4147 10.65 23.4109 10.6524C23.4071 10.6548 23.4029 10.6564 23.3984 10.6571H23.3923H23.391ZM23.2674 10.0364C23.2596 10.0365 23.2521 10.0338 23.2461 10.029C23.24 10.0242 23.2358 10.0175 23.2341 10.0099C23.2083 9.89788 23.1805 9.78379 23.1506 9.67038C23.1483 9.66138 23.1497 9.65184 23.1545 9.64388C23.1593 9.63592 23.167 9.63019 23.176 9.62794C23.185 9.62569 23.1946 9.6271 23.2025 9.63188C23.2105 9.63666 23.2162 9.6444 23.2185 9.6534C23.2484 9.76817 23.2769 9.88294 23.3027 9.99295C23.3037 9.99733 23.3038 10.0019 23.3031 10.0063C23.3023 10.0107 23.3007 10.0149 23.2983 10.0187C23.2959 10.0225 23.2928 10.0258 23.2891 10.0283C23.2854 10.0309 23.2813 10.0327 23.2769 10.0337H23.2694L23.2674 10.0364Z" fill="#404B7C"/>
<path d="M23.1288 9.48909C23.1214 9.48905 23.1142 9.48657 23.1083 9.48203C23.1024 9.47749 23.0982 9.47115 23.0963 9.46397C23.084 9.41869 23.0716 9.37523 23.0589 9.33358C23.0572 9.32796 23.057 9.32201 23.0583 9.3163C23.0597 9.31058 23.0624 9.30531 23.0664 9.30098C23.0664 9.30098 23.099 9.26499 23.1526 9.19912C23.1552 9.19516 23.1587 9.19179 23.1627 9.18923C23.1667 9.18668 23.1712 9.18499 23.1759 9.18428C23.1805 9.18357 23.1853 9.18385 23.1899 9.18511C23.1945 9.18636 23.1988 9.18857 23.2024 9.19157C23.2061 9.19458 23.2091 9.19833 23.2113 9.20256C23.2134 9.2068 23.2146 9.21145 23.2148 9.21619C23.2151 9.22093 23.2143 9.22567 23.2126 9.2301C23.2109 9.23453 23.2083 9.23855 23.2049 9.2419C23.1696 9.28536 23.1431 9.31592 23.1288 9.33222C23.1397 9.3698 23.1504 9.40737 23.1608 9.44495C23.162 9.44928 23.1624 9.4538 23.1618 9.45827C23.1613 9.46274 23.1599 9.46706 23.1577 9.47097C23.1555 9.47489 23.1525 9.47833 23.149 9.48109C23.1454 9.48385 23.1413 9.48588 23.137 9.48706L23.1288 9.48909Z" fill="#404B7C"/>
<path d="M23.3964 8.97227C23.39 8.97207 23.3837 8.97004 23.3784 8.96643C23.3731 8.96281 23.3689 8.95775 23.3663 8.95184C23.3638 8.94593 23.3629 8.93941 23.3639 8.93305C23.3649 8.92669 23.3677 8.92074 23.372 8.9159C23.4399 8.82083 23.5078 8.72236 23.5716 8.62321C23.5739 8.61921 23.577 8.61571 23.5807 8.61293C23.5843 8.61015 23.5886 8.60815 23.593 8.60706C23.5975 8.60596 23.6022 8.60578 23.6067 8.60654C23.6113 8.6073 23.6156 8.60898 23.6195 8.61147C23.6234 8.61396 23.6267 8.61722 23.6293 8.62104C23.6318 8.62487 23.6336 8.62917 23.6345 8.6337C23.6353 8.63823 23.6353 8.64289 23.6343 8.64739C23.6333 8.65189 23.6314 8.65614 23.6287 8.65988C23.5608 8.76039 23.4929 8.86022 23.4249 8.95597C23.422 8.96088 23.4178 8.96495 23.4128 8.9678C23.4078 8.97065 23.4022 8.97219 23.3964 8.97227Z" fill="#404B7C"/>
<path d="M23.7115 8.49694C23.7055 8.49697 23.6995 8.49539 23.6943 8.49236C23.6891 8.48933 23.6847 8.48496 23.6818 8.4797C23.6788 8.47444 23.6773 8.46848 23.6774 8.46244C23.6775 8.4564 23.6792 8.45049 23.6823 8.44533C23.7312 8.36451 23.7787 8.28166 23.8236 8.19949C23.8279 8.19156 23.8352 8.18568 23.8438 8.18313C23.8525 8.18059 23.8618 8.18159 23.8697 8.18591C23.8777 8.19023 23.8836 8.19752 23.8861 8.20618C23.8887 8.21484 23.8877 8.22416 23.8833 8.23209C23.8378 8.31562 23.7896 8.39915 23.7407 8.48064C23.7377 8.48564 23.7334 8.48977 23.7283 8.49263C23.7231 8.49549 23.7174 8.49697 23.7115 8.49694ZM24.0151 7.93192C24.0104 7.93295 24.0055 7.93295 24.0008 7.93192C23.9967 7.93003 23.9931 7.92734 23.99 7.92402C23.987 7.9207 23.9847 7.91681 23.9832 7.91258C23.9816 7.90835 23.981 7.90386 23.9812 7.89937C23.9814 7.89488 23.9826 7.89048 23.9845 7.88642C24.0354 7.77845 24.083 7.66979 24.1264 7.56181C24.1281 7.55767 24.1305 7.55389 24.1337 7.55069C24.1368 7.54749 24.1405 7.54493 24.1446 7.54316C24.1487 7.5414 24.1531 7.54046 24.1575 7.54039C24.162 7.54033 24.1664 7.54115 24.1706 7.5428C24.1747 7.54445 24.1785 7.5469 24.1817 7.55001C24.1849 7.55312 24.1875 7.55683 24.1892 7.56093C24.191 7.56503 24.1919 7.56944 24.192 7.5739C24.1921 7.57836 24.1913 7.58279 24.1896 7.58694C24.1461 7.6956 24.0979 7.80629 24.0463 7.91563C24.043 7.92116 24.0382 7.92563 24.0324 7.92852C24.0266 7.93141 24.0201 7.93259 24.0137 7.93192H24.0151ZM24.2331 7.40562C24.2276 7.40562 24.2222 7.4043 24.2174 7.40179C24.2126 7.39927 24.2084 7.39563 24.2053 7.39116C24.2022 7.3867 24.2001 7.38155 24.1994 7.37615C24.1987 7.37074 24.1993 7.36525 24.2011 7.36012C24.2331 7.27048 24.2623 7.17948 24.2881 7.08848C24.2906 7.07947 24.2966 7.07184 24.3047 7.06725C24.3129 7.06267 24.3225 7.06151 24.3315 7.06403C24.3405 7.06655 24.3482 7.07255 24.3528 7.0807C24.3573 7.08885 24.3585 7.09849 24.356 7.10749C24.3295 7.19781 24.2996 7.28949 24.2677 7.37913C24.2659 7.38716 24.2613 7.39426 24.2547 7.39913C24.2481 7.404 24.2399 7.40631 24.2317 7.40562H24.2331ZM24.4076 6.789H24.4008C24.3964 6.7881 24.3923 6.78636 24.3886 6.78387C24.3849 6.78137 24.3817 6.77817 24.3793 6.77445C24.3768 6.77073 24.3751 6.76656 24.3743 6.76218C24.3734 6.7578 24.3734 6.7533 24.3743 6.74893C24.3988 6.63212 24.4185 6.51464 24.432 6.40055C24.4334 6.39167 24.4381 6.38363 24.4451 6.37808C24.4522 6.37253 24.4611 6.36988 24.4701 6.37067C24.4745 6.37117 24.4789 6.37256 24.4828 6.37475C24.4867 6.37694 24.4902 6.37989 24.493 6.38343C24.4958 6.38697 24.4978 6.39103 24.499 6.39536C24.5002 6.3997 24.5005 6.40423 24.5 6.4087C24.4857 6.5255 24.466 6.64435 24.4416 6.76319C24.4395 6.77072 24.435 6.77732 24.4287 6.7819C24.4224 6.78647 24.4147 6.78874 24.4069 6.78832L24.4076 6.789ZM24.4857 6.22466C24.4812 6.2244 24.4769 6.22326 24.4728 6.22131C24.4688 6.21936 24.4652 6.21664 24.4623 6.21329C24.4593 6.20995 24.457 6.20605 24.4556 6.20183C24.4541 6.1976 24.4535 6.19313 24.4538 6.18867C24.4592 6.10989 24.4612 6.03112 24.4612 5.95438V5.90616C24.4612 5.9017 24.4619 5.89727 24.4636 5.89312C24.4652 5.88896 24.4676 5.88517 24.4707 5.88195C24.4738 5.87874 24.4775 5.87616 24.4816 5.87437C24.4857 5.87258 24.4901 5.87162 24.4945 5.87153C24.5034 5.87169 24.5119 5.8752 24.5184 5.88137C24.5248 5.88754 24.5286 5.89591 24.5292 5.90481V5.9537C24.5292 6.03248 24.5292 6.11261 24.5217 6.19274C24.5214 6.19727 24.5203 6.20169 24.5183 6.20576C24.5163 6.20983 24.5135 6.21346 24.5101 6.21643C24.5067 6.21941 24.5027 6.22167 24.4984 6.22308C24.4941 6.22449 24.4895 6.22503 24.485 6.22466H24.4857ZM24.4694 5.58427C24.4611 5.58433 24.453 5.58132 24.4467 5.57581C24.4405 5.57029 24.4364 5.56267 24.4354 5.55439C24.4215 5.43772 24.4013 5.32188 24.375 5.20737C24.374 5.20291 24.3739 5.1983 24.3747 5.19381C24.3755 5.18931 24.3772 5.18502 24.3797 5.18117C24.3821 5.17732 24.3853 5.174 24.3891 5.17139C24.3928 5.16877 24.397 5.16692 24.4015 5.16594C24.4059 5.16496 24.4106 5.16487 24.415 5.16567C24.4195 5.16647 24.4238 5.16815 24.4277 5.17061C24.4315 5.17307 24.4349 5.17626 24.4375 5.18C24.4401 5.18375 24.4419 5.18797 24.4429 5.19243C24.4699 5.30939 24.4905 5.42773 24.5047 5.54692C24.5053 5.55138 24.505 5.55592 24.5038 5.56025C24.5026 5.56459 24.5005 5.56865 24.4977 5.57219C24.4949 5.57572 24.4915 5.57867 24.4876 5.58087C24.4836 5.58306 24.4793 5.58444 24.4748 5.58495H24.4708L24.4694 5.58427ZM24.3539 5.02673C24.3466 5.02673 24.3395 5.02434 24.3336 5.01994C24.3277 5.01553 24.3234 5.00933 24.3214 5.00228C24.2942 4.91264 24.2629 4.823 24.2283 4.73607C24.2267 4.73192 24.2258 4.72749 24.2259 4.72303C24.226 4.71857 24.2269 4.71416 24.2287 4.71006C24.2304 4.70596 24.233 4.70225 24.2362 4.69914C24.2394 4.69603 24.2432 4.69358 24.2473 4.69193C24.2515 4.69028 24.2559 4.68946 24.2604 4.68953C24.2648 4.68959 24.2692 4.69053 24.2733 4.6923C24.2774 4.69406 24.2811 4.69662 24.2843 4.69982C24.2874 4.70302 24.2898 4.7068 24.2915 4.71094C24.3268 4.79991 24.3594 4.89091 24.3865 4.98259C24.3891 4.99114 24.3882 5.00035 24.384 5.00823C24.3798 5.01611 24.3727 5.02203 24.3641 5.02469L24.3539 5.02673ZM24.1095 4.43387C24.1033 4.43382 24.0972 4.43209 24.092 4.42886C24.0867 4.42563 24.0824 4.42102 24.0796 4.41554C24.0253 4.31299 23.9648 4.2118 23.8996 4.11266C23.8956 4.1052 23.8946 4.09652 23.8966 4.08832C23.8987 4.08011 23.9037 4.07297 23.9108 4.0683C23.9178 4.06363 23.9264 4.06176 23.9348 4.06305C23.9431 4.06435 23.9507 4.06872 23.956 4.07531C24.0239 4.17581 24.0843 4.27904 24.1394 4.3843C24.1415 4.38826 24.1428 4.3926 24.1432 4.39708C24.1437 4.40155 24.1432 4.40607 24.1419 4.41037C24.1405 4.41466 24.1384 4.41865 24.1355 4.4221C24.1326 4.42556 24.1291 4.4284 24.1251 4.43048C24.1202 4.43286 24.1149 4.43402 24.1095 4.43387ZM23.8046 3.95307C23.7993 3.95307 23.7941 3.95184 23.7894 3.94948C23.7847 3.94712 23.7806 3.9437 23.7774 3.93948C23.7224 3.86546 23.6626 3.79144 23.6001 3.71946C23.5943 3.71261 23.5914 3.70372 23.5921 3.69474C23.5928 3.68577 23.597 3.67743 23.6039 3.67158C23.6107 3.66573 23.6196 3.66283 23.6286 3.66353C23.6376 3.66423 23.6459 3.66847 23.6518 3.67531C23.7149 3.74866 23.7754 3.82404 23.8317 3.89942C23.8357 3.90446 23.8382 3.91052 23.8388 3.91691C23.8395 3.9233 23.8384 3.92975 23.8355 3.93551C23.8327 3.94127 23.8283 3.9461 23.8228 3.94945C23.8173 3.9528 23.811 3.95452 23.8046 3.95443V3.95307ZM23.3828 3.4709C23.3739 3.47078 23.3653 3.46712 23.3591 3.46072C23.2776 3.37991 23.19 3.29909 23.099 3.221C23.0956 3.2181 23.0928 3.21456 23.0908 3.21058C23.0888 3.20661 23.0875 3.20228 23.0872 3.19783C23.0868 3.19338 23.0874 3.18891 23.0888 3.18467C23.0901 3.18043 23.0923 3.17651 23.0952 3.17312C23.0981 3.16973 23.1017 3.16694 23.1056 3.16492C23.1096 3.1629 23.114 3.16168 23.1184 3.16134C23.1228 3.16099 23.1273 3.16152 23.1316 3.1629C23.1358 3.16428 23.1397 3.16649 23.1431 3.16938C23.2355 3.24884 23.3238 3.33033 23.4066 3.4125C23.4117 3.41716 23.4153 3.42329 23.4169 3.43005C23.4184 3.43681 23.4179 3.44388 23.4153 3.45031C23.4127 3.45675 23.4082 3.46224 23.4024 3.46604C23.3966 3.46984 23.3898 3.47178 23.3828 3.47158V3.4709ZM22.9564 3.09332C22.9487 3.09328 22.9413 3.09065 22.9353 3.08585C22.8626 3.02813 22.7866 2.97041 22.7092 2.91472C22.7056 2.91209 22.7025 2.90877 22.7002 2.90496C22.6978 2.90115 22.6963 2.89691 22.6956 2.8925C22.6949 2.88808 22.6951 2.88358 22.6961 2.87923C22.6972 2.87489 22.6991 2.8708 22.7017 2.86718C22.7043 2.86357 22.7076 2.86051 22.7115 2.85818C22.7153 2.85585 22.7195 2.8543 22.7239 2.8536C22.7283 2.85291 22.7328 2.85309 22.7372 2.85414C22.7415 2.85519 22.7456 2.85708 22.7492 2.85971C22.8273 2.91608 22.9041 2.97448 22.9774 3.03288C22.9832 3.03719 22.9874 3.04322 22.9895 3.05009C22.9916 3.05696 22.9915 3.06432 22.9891 3.07111C22.9868 3.07791 22.9824 3.08378 22.9765 3.0879C22.9706 3.09201 22.9635 3.09415 22.9564 3.094V3.09332ZM22.4348 2.7205C22.4283 2.72048 22.4219 2.71859 22.4165 2.71506C22.3194 2.65259 22.2175 2.59011 22.1136 2.53035C22.1058 2.52585 22.1 2.51842 22.0977 2.50969C22.0953 2.50097 22.0965 2.49167 22.101 2.48383C22.1055 2.476 22.113 2.47027 22.1217 2.46791C22.1304 2.46556 22.1397 2.46676 22.1475 2.47127C22.2521 2.53239 22.3547 2.59486 22.4525 2.65802C22.4588 2.6618 22.4638 2.66756 22.4666 2.67443C22.4694 2.68129 22.4699 2.68888 22.4679 2.69604C22.466 2.70319 22.4618 2.70953 22.4559 2.71406C22.4501 2.7186 22.4429 2.7211 22.4355 2.72118L22.4348 2.7205Z" fill="#404B7C"/>
<path d="M21.9418 2.42914C21.9361 2.42917 21.9305 2.42777 21.9255 2.42506L21.806 2.36123C21.8015 2.35952 21.7974 2.35689 21.794 2.3535C21.7906 2.3501 21.788 2.34603 21.7863 2.34155C21.7846 2.33706 21.7838 2.33226 21.7841 2.32747C21.7844 2.32268 21.7857 2.31801 21.7879 2.31376C21.7901 2.30951 21.7932 2.30577 21.797 2.3028C21.8008 2.29984 21.8051 2.2977 21.8098 2.29654C21.8145 2.29538 21.8193 2.29522 21.824 2.29607C21.8287 2.29692 21.8332 2.29876 21.8372 2.30147L21.9574 2.36598C21.9637 2.3697 21.9686 2.37534 21.9714 2.38208C21.9743 2.38881 21.9749 2.39628 21.9731 2.40338C21.9713 2.41047 21.9673 2.41681 21.9617 2.42145C21.9561 2.42609 21.9491 2.42879 21.9418 2.42914Z" fill="#404B7C"/>
<path d="M23.42 9.29672C23.4244 9.07731 23.2501 8.89588 23.0307 8.8915C22.8113 8.88711 22.6298 9.06142 22.6255 9.28083C22.6211 9.50023 22.7954 9.68166 23.0148 9.68605C23.2342 9.69043 23.4156 9.51613 23.42 9.29672Z" fill="#F68D88"/>
<path d="M20.3927 17.3479C20.3977 17.1286 20.2239 16.9467 20.0045 16.9417C19.7852 16.9367 19.6033 17.1105 19.5984 17.3299C19.5934 17.5492 19.7672 17.7311 19.9865 17.7361C20.2059 17.741 20.3877 17.5673 20.3927 17.3479Z" fill="#F68D88"/>
<path d="M21.8223 4.70889C23.1226 4.70889 24.1767 3.65477 24.1767 2.35445C24.1767 1.05412 23.1226 0 21.8223 0C20.5219 0 19.4678 1.05412 19.4678 2.35445C19.4678 3.65477 20.5219 4.70889 21.8223 4.70889Z" fill="#E9F3FF"/>
<path d="M21.8223 4.24442C22.866 4.24442 23.7122 3.39826 23.7122 2.35448C23.7122 1.31069 22.866 0.464539 21.8223 0.464539C20.7785 0.464539 19.9323 1.31069 19.9323 2.35448C19.9323 3.39826 20.7785 4.24442 21.8223 4.24442Z" fill="#404B7C"/>
<path d="M21.8223 2.48752C21.8958 2.48752 21.9554 2.42793 21.9554 2.35442C21.9554 2.28091 21.8958 2.22131 21.8223 2.22131C21.7487 2.22131 21.6892 2.28091 21.6892 2.35442C21.6892 2.42793 21.7487 2.48752 21.8223 2.48752Z" fill="white"/>
<path d="M21.7374 0.656677H21.9071V1.07568H21.7374V0.656677Z" fill="white"/>
<path d="M22.9631 1.0946L23.0832 1.21465L22.7869 1.51094L22.6668 1.39089L22.9631 1.0946Z" fill="white"/>
<path d="M23.52 2.26953V2.43931H23.101V2.26953H23.52Z" fill="white"/>
<path d="M23.0821 3.4953L22.9621 3.61535L22.6658 3.31907L22.7858 3.19902L23.0821 3.4953Z" fill="white"/>
<path d="M21.9071 4.05219H21.7374V3.63318H21.9071V4.05219Z" fill="white"/>
<path d="M20.6821 3.61499L20.5621 3.49494L20.8583 3.19866L20.9784 3.31871L20.6821 3.61499Z" fill="white"/>
<path d="M20.1245 2.43933V2.26956H20.5435V2.43933H20.1245Z" fill="white"/>
<path d="M20.5617 1.21429L20.6817 1.09425L20.978 1.39053L20.858 1.51058L20.5617 1.21429Z" fill="white"/>
<path d="M21.8616 1.24207H21.7822L21.7421 2.26955C21.7417 2.28053 21.7434 2.29149 21.7473 2.30178C21.7512 2.31206 21.7571 2.32145 21.7648 2.32938C21.7724 2.33731 21.7815 2.34362 21.7916 2.34792C21.8017 2.35223 21.8126 2.35444 21.8236 2.35443C21.8346 2.35444 21.8455 2.35223 21.8556 2.34792C21.8657 2.34362 21.8749 2.33731 21.8825 2.32938C21.8901 2.32145 21.896 2.31206 21.8999 2.30178C21.9038 2.29149 21.9056 2.28053 21.9051 2.26955L21.8616 1.24207Z" fill="white"/>
<path d="M21.006 3.11507L21.063 3.17076L21.8209 2.47196C21.8288 2.46436 21.8351 2.45524 21.8394 2.44514C21.8437 2.43505 21.8459 2.42419 21.8459 2.41322C21.8459 2.40225 21.8437 2.39139 21.8394 2.3813C21.8351 2.3712 21.8288 2.36208 21.8209 2.35448C21.8133 2.34657 21.8042 2.34028 21.7941 2.33598C21.784 2.33168 21.7731 2.32947 21.7622 2.32947C21.7512 2.32947 21.7403 2.33168 21.7302 2.33598C21.7201 2.34028 21.711 2.34657 21.7034 2.35448L21.006 3.11507Z" fill="white"/>
<path d="M17.8217 14.7827H14.7929C14.5513 14.7827 14.3555 14.9785 14.3555 15.2201V19.4556C14.3555 19.6972 14.5513 19.893 14.7929 19.893H17.8217C18.0632 19.893 18.259 19.6972 18.259 19.4556V15.2201C18.259 14.9785 18.0632 14.7827 17.8217 14.7827Z" fill="#F68D88"/>
<path d="M17.6689 15.4448H16.0173C15.9704 15.4448 15.9324 15.4828 15.9324 15.5297C15.9324 15.5766 15.9704 15.6146 16.0173 15.6146H17.6689C17.7157 15.6146 17.7538 15.5766 17.7538 15.5297C17.7538 15.4828 17.7157 15.4448 17.6689 15.4448Z" fill="white"/>
<path d="M15.3504 15.1861H15.0577C14.9486 15.1861 14.8601 15.2746 14.8601 15.3837V15.6764C14.8601 15.7855 14.9486 15.874 15.0577 15.874H15.3504C15.4596 15.874 15.548 15.7855 15.548 15.6764V15.3837C15.548 15.2746 15.4596 15.1861 15.3504 15.1861Z" fill="white"/>
<path d="M15.0557 15.3728L14.9491 15.4788L15.2126 15.7423L15.8407 15.22L15.2465 15.5766L15.0557 15.3728Z" fill="#404B7C"/>
<path d="M17.6689 16.6502H16.0173C15.9704 16.6502 15.9324 16.6882 15.9324 16.7351C15.9324 16.782 15.9704 16.82 16.0173 16.82H17.6689C17.7157 16.82 17.7538 16.782 17.7538 16.7351C17.7538 16.6882 17.7157 16.6502 17.6689 16.6502Z" fill="white"/>
<path d="M15.3504 16.3915H15.0577C14.9486 16.3915 14.8601 16.48 14.8601 16.5891V16.8818C14.8601 16.9909 14.9486 17.0794 15.0577 17.0794H15.3504C15.4596 17.0794 15.548 16.9909 15.548 16.8818V16.5891C15.548 16.48 15.4596 16.3915 15.3504 16.3915Z" fill="white"/>
<path d="M17.6689 17.8556H16.0173C15.9704 17.8556 15.9324 17.8936 15.9324 17.9405C15.9324 17.9874 15.9704 18.0254 16.0173 18.0254H17.6689C17.7157 18.0254 17.7538 17.9874 17.7538 17.9405C17.7538 17.8936 17.7157 17.8556 17.6689 17.8556Z" fill="white"/>
<path d="M15.3504 17.5969H15.0577C14.9486 17.5969 14.8601 17.6853 14.8601 17.7945V18.0872C14.8601 18.1963 14.9486 18.2848 15.0577 18.2848H15.3504C15.4596 18.2848 15.548 18.1963 15.548 18.0872V17.7945C15.548 17.6853 15.4596 17.5969 15.3504 17.5969Z" fill="white"/>
<path d="M17.6689 19.061H16.0173C15.9704 19.061 15.9324 19.099 15.9324 19.1459C15.9324 19.1928 15.9704 19.2308 16.0173 19.2308H17.6689C17.7157 19.2308 17.7538 19.1928 17.7538 19.1459C17.7538 19.099 17.7157 19.061 17.6689 19.061Z" fill="white"/>
<path d="M15.3504 18.8023H15.0577C14.9486 18.8023 14.8601 18.8908 14.8601 18.9999V19.2926C14.8601 19.4018 14.9486 19.4902 15.0577 19.4902H15.3504C15.4596 19.4902 15.548 19.4018 15.548 19.2926V18.9999C15.548 18.8908 15.4596 18.8023 15.3504 18.8023Z" fill="white"/>
<path d="M12.3855 18.096H10.3271C10.1141 18.096 9.94137 18.2687 9.94137 18.4817V21.4148C9.94137 21.6278 10.1141 21.8005 10.3271 21.8005H12.3855C12.5985 21.8005 12.7712 21.6278 12.7712 21.4148V18.4817C12.7712 18.2687 12.5985 18.096 12.3855 18.096Z" fill="#9AB3DA"/>
<path d="M12.3495 18.5762H11.1413C11.1102 18.5762 11.085 18.6014 11.085 18.6325V18.6427C11.085 18.6739 11.1102 18.6991 11.1413 18.6991H12.3495C12.3806 18.6991 12.4058 18.6739 12.4058 18.6427V18.6325C12.4058 18.6014 12.3806 18.5762 12.3495 18.5762Z" fill="white"/>
<path d="M10.6605 18.3887H10.4527C10.3725 18.3887 10.3074 18.4538 10.3074 18.5341V18.7419C10.3074 18.8221 10.3725 18.8872 10.4527 18.8872H10.6605C10.7408 18.8872 10.8059 18.8221 10.8059 18.7419V18.5341C10.8059 18.4538 10.7408 18.3887 10.6605 18.3887Z" fill="white"/>
<path d="M12.3495 19.4501H11.1413C11.1102 19.4501 11.085 19.4754 11.085 19.5065V19.5167C11.085 19.5478 11.1102 19.5731 11.1413 19.5731H12.3495C12.3806 19.5731 12.4058 19.5478 12.4058 19.5167V19.5065C12.4058 19.4754 12.3806 19.4501 12.3495 19.4501Z" fill="white"/>
<path d="M10.6605 19.262H10.4527C10.3725 19.262 10.3074 19.3271 10.3074 19.4074V19.6152C10.3074 19.6954 10.3725 19.7605 10.4527 19.7605H10.6605C10.7408 19.7605 10.8059 19.6954 10.8059 19.6152V19.4074C10.8059 19.3271 10.7408 19.262 10.6605 19.262Z" fill="white"/>
<path d="M12.3495 20.3242H11.1413C11.1102 20.3242 11.085 20.3494 11.085 20.3805V20.3907C11.085 20.4218 11.1102 20.4471 11.1413 20.4471H12.3495C12.3806 20.4471 12.4058 20.4218 12.4058 20.3907V20.3805C12.4058 20.3494 12.3806 20.3242 12.3495 20.3242Z" fill="white"/>
<path d="M10.6605 20.136H10.4527C10.3725 20.136 10.3074 20.2011 10.3074 20.2814V20.4892C10.3074 20.5694 10.3725 20.6345 10.4527 20.6345H10.6605C10.7408 20.6345 10.8059 20.5694 10.8059 20.4892V20.2814C10.8059 20.2011 10.7408 20.136 10.6605 20.136Z" fill="white"/>
<path d="M12.3495 21.1975H11.1413C11.1102 21.1975 11.085 21.2227 11.085 21.2539V21.2641C11.085 21.2952 11.1102 21.3204 11.1413 21.3204H12.3495C12.3806 21.3204 12.4058 21.2952 12.4058 21.2641V21.2539C12.4058 21.2227 12.3806 21.1975 12.3495 21.1975Z" fill="white"/>
<path d="M10.6605 21.0101H10.4527C10.3725 21.0101 10.3074 21.0751 10.3074 21.1554V21.3632C10.3074 21.4435 10.3725 21.5085 10.4527 21.5085H10.6605C10.7408 21.5085 10.8059 21.4435 10.8059 21.3632V21.1554C10.8059 21.0751 10.7408 21.0101 10.6605 21.0101Z" fill="white"/>
<path d="M2.59689 3.69364C2.73416 3.69364 2.84544 3.58236 2.84544 3.44508C2.84544 3.30781 2.73416 3.19653 2.59689 3.19653C2.45962 3.19653 2.34834 3.30781 2.34834 3.44508C2.34834 3.58236 2.45962 3.69364 2.59689 3.69364Z" fill="#E9F3FF"/>
<path d="M1.65836 3.94151C1.72625 3.94151 1.78128 3.88648 1.78128 3.8186C1.78128 3.75071 1.72625 3.69568 1.65836 3.69568C1.59048 3.69568 1.53545 3.75071 1.53545 3.8186C1.53545 3.88648 1.59048 3.94151 1.65836 3.94151Z" fill="#E9F3FF"/>
<path d="M23.8012 19.3299C24.0131 19.3299 24.1848 19.1582 24.1848 18.9463C24.1848 18.7343 24.0131 18.5626 23.8012 18.5626C23.5892 18.5626 23.4175 18.7343 23.4175 18.9463C23.4175 19.1582 23.5892 19.3299 23.8012 19.3299Z" fill="#E9F3FF"/>
<path d="M22.7635 18.655C22.8685 18.655 22.9536 18.5698 22.9536 18.4648C22.9536 18.3598 22.8685 18.2747 22.7635 18.2747C22.6585 18.2747 22.5733 18.3598 22.5733 18.4648C22.5733 18.5698 22.6585 18.655 22.7635 18.655Z" fill="#E9F3FF"/>
<path d="M11.7783 25.7284C11.9902 25.7284 12.162 25.5567 12.162 25.3448C12.162 25.1328 11.9902 24.9611 11.7783 24.9611C11.5664 24.9611 11.3946 25.1328 11.3946 25.3448C11.3946 25.5567 11.5664 25.7284 11.7783 25.7284Z" fill="#E9F3FF"/>
<path d="M10.7407 25.0527C10.8457 25.0527 10.9308 24.9676 10.9308 24.8626C10.9308 24.7576 10.8457 24.6724 10.7407 24.6724C10.6357 24.6724 10.5505 24.7576 10.5505 24.8626C10.5505 24.9676 10.6357 25.0527 10.7407 25.0527Z" fill="#E9F3FF"/>
<path d="M3.53133 8.00864C2.68857 8.13427 1.90149 11.0761 1.64682 11.8911C1.39216 12.706 1.56194 14.528 1.56194 14.528C1.56194 14.528 2.22406 14.8506 2.51268 14.4941C2.51268 14.4941 2.78432 12.723 3.10689 11.8232C3.42947 10.9233 3.90484 10.2103 4.14252 9.36141C4.38021 8.51253 4.17648 7.91221 3.53133 8.00864Z" fill="#F68D88"/>
<path d="M1.33308 14.4798L1.36907 15.201C1.58333 15.3375 1.83977 15.3918 2.09095 15.3538C2.52354 15.2947 2.67634 15.091 2.67634 15.091L2.68517 14.4289C2.68517 14.4289 2.148 14.0975 1.33308 14.4798Z" fill="#9AB3DA"/>
<path d="M0.928333 13.8374L0.780968 16.09L3.16937 15.3484L3.38464 13.1243L0.928333 13.8374Z" fill="#9AB3DA"/>
<path d="M0.780965 16.09L0.554825 16.0159L0.70219 13.764L0.928331 13.8374L0.780965 16.09Z" fill="#404B7C"/>
<path d="M3.38465 13.1243L3.15783 13.051L0.702194 13.764L0.928335 13.8374L3.38465 13.1243Z" fill="#E9F3FF"/>
<path d="M1.20133 15.9528C1.20133 15.9528 1.21423 16.1653 1.37518 16.2244C1.42288 16.2416 1.47375 16.2483 1.52429 16.244C1.57482 16.2396 1.62381 16.2244 1.66788 16.1993C1.72225 16.2155 1.77965 16.219 1.8356 16.2095C1.89155 16.2 1.94454 16.1776 1.99045 16.1443C1.99045 16.1443 2.16905 16.204 2.25801 16.0893C2.25801 16.0893 2.47872 16.1402 2.54663 15.9365C2.61454 15.7327 2.63152 15.4441 2.54256 15.3803C2.4536 15.3164 2.3918 15.4591 2.3918 15.4591C2.37961 15.4409 2.36322 15.4259 2.34401 15.4155C2.32481 15.405 2.30336 15.3993 2.28149 15.3989C2.25962 15.3985 2.23797 15.4034 2.2184 15.4132C2.19882 15.4229 2.18189 15.4373 2.16905 15.455C2.16905 15.455 2.0441 15.3341 1.91235 15.491C1.91235 15.491 1.8295 15.3721 1.72356 15.4489C1.61762 15.5256 1.5599 15.8278 1.54767 15.8563L1.20133 15.9528Z" fill="#ECBDBB"/>
<path d="M1.79554 16.0465C1.79009 16.0464 1.78473 16.045 1.77992 16.0424C1.77205 16.0382 1.76613 16.0311 1.76346 16.0226C1.7608 16.0141 1.76159 16.0049 1.76566 15.9969C1.82885 15.8549 1.86699 15.703 1.87839 15.548C1.87893 15.539 1.88303 15.5306 1.88978 15.5246C1.89653 15.5186 1.90538 15.5156 1.91439 15.5161C1.92339 15.5167 1.93181 15.5207 1.9378 15.5275C1.94379 15.5342 1.94684 15.5431 1.9463 15.5521C1.93464 15.7164 1.89394 15.8774 1.8261 16.0275C1.8233 16.0332 1.81895 16.038 1.81355 16.0414C1.80815 16.0447 1.80191 16.0465 1.79554 16.0465Z" fill="#404B7C"/>
<path d="M2.04817 16.0308C2.04326 16.032 2.03815 16.032 2.03323 16.0308C2.02922 16.0289 2.02562 16.0262 2.02266 16.0228C2.0197 16.0195 2.01743 16.0156 2.01598 16.0113C2.01453 16.0071 2.01392 16.0026 2.0142 15.9982C2.01449 15.9937 2.01564 15.9894 2.01761 15.9853C2.07895 15.843 2.11657 15.6916 2.12899 15.5371C2.12968 15.5282 2.13382 15.5199 2.14054 15.5139C2.14725 15.508 2.15601 15.5048 2.16498 15.5052C2.16944 15.5055 2.17381 15.5066 2.17783 15.5086C2.18185 15.5105 2.18545 15.5132 2.18841 15.5166C2.19138 15.5199 2.19365 15.5238 2.19511 15.5281C2.19657 15.5323 2.19717 15.5368 2.1969 15.5412C2.18447 15.7052 2.14452 15.8659 2.07873 16.0166C2.07532 16.0214 2.07071 16.0253 2.06535 16.0278C2.05999 16.0303 2.05407 16.0313 2.04817 16.0308Z" fill="#404B7C"/>
<path d="M2.29401 15.9908C2.28801 15.9909 2.28209 15.9894 2.27686 15.9865C2.27163 15.9835 2.26728 15.9792 2.26424 15.9741C2.26121 15.9689 2.2596 15.963 2.25958 15.957C2.25955 15.951 2.26113 15.9451 2.26413 15.9399C2.33611 15.8122 2.35309 15.5413 2.35309 15.5385C2.35378 15.5296 2.35793 15.5213 2.36464 15.5153C2.37135 15.5094 2.38012 15.5062 2.38908 15.5066C2.39354 15.5069 2.39791 15.508 2.40193 15.51C2.40595 15.5119 2.40955 15.5146 2.41251 15.518C2.41548 15.5213 2.41775 15.5252 2.41921 15.5295C2.42067 15.5337 2.42127 15.5382 2.421 15.5426C2.421 15.5542 2.40266 15.8319 2.32321 15.9732C2.32033 15.9784 2.31612 15.9828 2.31099 15.9859C2.30586 15.989 2.3 15.9907 2.29401 15.9908Z" fill="#404B7C"/>
<path d="M1.84512 27.4649L1.67059 28.0944L1.44921 28.891H0.826469L0.903887 28.0177L0.951424 27.4873L1.84512 27.4649Z" fill="#ECBDBB"/>
<path d="M0.951422 27.4873L1.84512 27.4649L1.67059 28.0944L0.903885 28.0177L0.951422 27.4873Z" fill="#404B7C"/>
<path d="M0.441414 30C0.435981 29.9776 0.537847 29.1851 0.775532 28.6982C1.03297 28.7272 1.29238 28.7347 1.55107 28.7206C1.55107 28.7206 2.19078 29.2075 2.75647 29.4221C3.32216 29.6367 3.44712 29.7223 3.43014 29.9993H0.442093L0.441414 30Z" fill="#404B7C"/>
<path d="M2.51268 15.1161C2.51268 15.1161 0.747012 19.9717 0 27.7814H3.15782C3.15782 27.7814 3.7011 22.043 4.9914 18.24L5.61957 15.4047C5.96523 13.1263 3.38464 12.7393 2.51268 15.1161Z" fill="#9AB3DA"/>
<path d="M3.12455 17.2811C3.022 17.2811 2.54663 16.8893 2.49909 16.786C2.45156 16.6828 2.63492 15.9324 2.68721 15.7029C2.68931 15.6944 2.69456 15.6871 2.70189 15.6825C2.70922 15.6778 2.71806 15.6761 2.72659 15.6777C3.17573 15.7566 3.62934 15.8074 4.0848 15.8299C4.08965 15.8301 4.0944 15.8313 4.09872 15.8335C4.10305 15.8357 4.10685 15.8388 4.10988 15.8426C4.1129 15.8464 4.11508 15.8508 4.11626 15.8555C4.11744 15.8602 4.11759 15.8652 4.11672 15.8699C4.0848 16.039 3.92589 16.8886 3.90823 16.9286C3.88175 17.002 3.18974 17.2811 3.12455 17.2811ZM2.74629 15.7497C2.63763 16.2061 2.54256 16.7005 2.56157 16.7582C2.60028 16.8431 3.05324 17.2091 3.12523 17.2132C3.19721 17.2173 3.78667 16.9551 3.85051 16.8994C3.86816 16.837 3.97342 16.2842 4.04677 15.8957C3.61056 15.8727 3.17608 15.8239 2.74561 15.7497H2.74629Z" fill="#404B7C"/>
<path d="M2.44477 27.5097H2.4407C2.43179 27.5087 2.42366 27.5042 2.41806 27.4972C2.41247 27.4902 2.40986 27.4813 2.41082 27.4724C2.91471 23.207 4.19821 18.3317 4.21111 18.2828C4.21346 18.2738 4.21928 18.2661 4.2273 18.2614C4.23532 18.2567 4.24489 18.2553 4.2539 18.2577C4.2629 18.26 4.27061 18.2658 4.27532 18.2738C4.28003 18.2819 4.28137 18.2914 4.27902 18.3004C4.26612 18.3493 2.9833 23.2199 2.48008 27.4805C2.47891 27.4889 2.47463 27.4966 2.4681 27.502C2.46156 27.5074 2.45324 27.5102 2.44477 27.5097Z" fill="#404B7C"/>
<path d="M6.87387 27.4649L6.80188 28.1393L6.72107 28.891H6.09901L6.02703 28.019L5.98357 27.4873L6.87387 27.4649Z" fill="#ECBDBB"/>
<path d="M6.87387 27.4649L6.80188 28.1393L6.02703 28.019L5.98357 27.4873L6.87387 27.4649Z" fill="#404B7C"/>
<path d="M5.71532 30C5.70988 29.9776 5.81175 29.1851 6.04943 28.6982C6.30687 28.7272 6.56628 28.7347 6.82497 28.7206C6.82497 28.7206 7.46468 29.2075 8.03037 29.4221C8.59607 29.6367 8.72102 29.7223 8.70404 29.9993H5.71532V30Z" fill="#404B7C"/>
<path d="M4.44811 15.4903C4.44811 15.4903 3.98429 17.2471 4.61246 18.8858C4.7571 21.9241 4.95201 26.1447 4.99139 27.782H8.56075C8.56075 27.782 8.7217 19.3686 7.89048 15.3402C7.05926 11.3118 4.14252 12.8078 4.44811 15.4903Z" fill="#9AB3DA"/>
<path d="M4.61246 18.9191C4.6054 18.9191 4.59853 18.9168 4.59281 18.9127C4.58709 18.9085 4.5828 18.9027 4.58054 18.896C4.19956 17.749 4.15746 16.8893 4.41416 15.489C4.39755 15.3427 4.3903 15.1955 4.39243 15.0482C4.39243 15.0392 4.39601 15.0306 4.40237 15.0242C4.40874 15.0179 4.41738 15.0143 4.42638 15.0143C4.43539 15.0143 4.44403 15.0179 4.45039 15.0242C4.45676 15.0306 4.46034 15.0392 4.46034 15.0482C4.45819 15.1943 4.46544 15.3404 4.48207 15.4856C4.48259 15.489 4.48259 15.4924 4.48207 15.4958C4.22673 16.8859 4.26815 17.7368 4.64505 18.8736C4.64784 18.8822 4.64711 18.8915 4.64304 18.8995C4.63897 18.9075 4.63187 18.9136 4.62332 18.9164L4.61246 18.9191Z" fill="#404B7C"/>
<path d="M6.41004 17.3918C6.27422 17.3918 5.69291 17.1622 5.625 17.078C5.55709 16.9938 5.49393 16.149 5.47559 15.891C5.47519 15.8861 5.47584 15.8812 5.47748 15.8767C5.47912 15.8721 5.48172 15.8679 5.4851 15.8645C5.4884 15.8608 5.49252 15.858 5.49712 15.8562C5.50172 15.8544 5.50668 15.8538 5.51159 15.8543C5.51906 15.8543 6.27761 15.8977 6.92684 15.7572C6.9316 15.7562 6.93653 15.7562 6.94128 15.7573C6.94602 15.7584 6.95048 15.7605 6.95435 15.7635C6.95821 15.7664 6.96139 15.7702 6.96368 15.7745C6.96596 15.7788 6.96729 15.7835 6.96758 15.7884C6.97913 15.9738 7.03549 16.8994 7.0287 16.9429C7.01851 17.0203 6.48542 17.3728 6.42634 17.387C6.42112 17.3893 6.41565 17.3909 6.41004 17.3918ZM5.54622 15.9242C5.58357 16.4308 5.6413 16.9823 5.67865 17.0352C5.7323 17.1031 6.33398 17.3402 6.41004 17.3239C6.4861 17.3076 6.91733 16.9952 6.96215 16.9327C6.96215 16.8648 6.92887 16.2577 6.90307 15.8319C6.45553 15.9122 6.00052 15.9432 5.54622 15.9242Z" fill="#404B7C"/>
<path d="M5.47831 18.2516C4.45015 18.1735 3.75611 18.1721 3.74932 18.1721C3.74031 18.1721 3.73168 18.1685 3.72531 18.1622C3.71894 18.1558 3.71536 18.1471 3.71536 18.1381C3.71536 18.1291 3.71894 18.1205 3.72531 18.1141C3.73168 18.1078 3.74031 18.1042 3.74932 18.1042C3.75611 18.1042 4.45287 18.1042 5.48374 18.1836C5.49275 18.1844 5.5011 18.1886 5.50696 18.1955C5.51282 18.2024 5.5157 18.2113 5.51498 18.2203C5.51426 18.2293 5.50999 18.2377 5.50312 18.2435C5.49624 18.2494 5.48732 18.2523 5.47831 18.2516Z" fill="#404B7C"/>
<path d="M7.70781 27.4079H7.70441C7.69994 27.4074 7.6956 27.4061 7.69165 27.404C7.68769 27.4019 7.68418 27.399 7.68134 27.3956C7.6785 27.3921 7.67637 27.3881 7.67509 27.3838C7.6738 27.3795 7.67338 27.375 7.67385 27.3705C8.14379 22.8423 7.44296 15.6838 7.43617 15.6119C7.43527 15.6029 7.43798 15.5939 7.44371 15.5869C7.44944 15.5799 7.45772 15.5754 7.46673 15.5745C7.47573 15.5736 7.48473 15.5763 7.49173 15.5821C7.49874 15.5878 7.50318 15.5961 7.50408 15.6051C7.51087 15.6771 8.2117 22.8423 7.74176 27.3773C7.74092 27.3857 7.73697 27.3935 7.73069 27.3991C7.72441 27.4048 7.71625 27.4079 7.70781 27.4079Z" fill="#404B7C"/>
<path d="M5.40497 7.94617C5.40497 7.94617 5.55233 7.56112 5.61413 7.43141C5.18648 7.35563 4.75031 7.34032 4.31841 7.38591L4.52214 7.94617H5.40497Z" fill="#F68D88"/>
<path d="M3.53133 8.00863C3.53133 8.00863 4.87799 7.5448 6.47388 8.1329C6.47388 8.1329 7.84362 12.2978 8.14922 15.2859C8.14922 15.2859 5.28001 15.965 2.1901 15.3198C2.1901 15.3198 2.44476 9.7512 3.53133 8.00863Z" fill="#F68D88"/>
<path d="M5.43213 7.91016H5.42738C5.05531 7.86143 4.67887 7.85574 4.3055 7.89319C4.30104 7.89363 4.29654 7.8932 4.29225 7.8919C4.28796 7.89061 4.28397 7.88848 4.2805 7.88564C4.27703 7.8828 4.27415 7.87931 4.27204 7.87536C4.26992 7.87141 4.2686 7.86709 4.26815 7.86263C4.26771 7.85817 4.26814 7.85366 4.26944 7.84937C4.27073 7.84508 4.27286 7.84109 4.2757 7.83762C4.27853 7.83415 4.28203 7.83128 4.28598 7.82916C4.28993 7.82704 4.29425 7.82572 4.29871 7.82528C4.67727 7.78727 5.05895 7.79296 5.43621 7.84225C5.44521 7.84279 5.45363 7.84689 5.45962 7.85364C5.46561 7.86039 5.46866 7.86924 5.46812 7.87825C5.46758 7.88725 5.46349 7.89567 5.45674 7.90166C5.44999 7.90765 5.44114 7.9107 5.43213 7.91016Z" fill="#ECBDBB"/>
<path d="M2.37685 13.0177H2.37346C2.36456 13.0167 2.35642 13.0122 2.35082 13.0052C2.34523 12.9982 2.34262 12.9893 2.34358 12.9804C2.52693 11.2582 2.87735 8.99471 3.50348 7.99099C3.50826 7.98334 3.51587 7.97789 3.52466 7.97585C3.53345 7.97382 3.54269 7.97535 3.55034 7.98013C3.558 7.9849 3.56344 7.99252 3.56548 8.00131C3.56752 8.01009 3.56598 8.01933 3.56121 8.02699C2.94119 9.01915 2.59145 11.2724 2.41081 12.9905C2.40922 12.9983 2.40495 13.0053 2.39875 13.0103C2.39255 13.0152 2.3848 13.0179 2.37685 13.0177Z" fill="#ECBDBB"/>
<path d="M7.67113 15.0822C7.66279 15.0822 7.65472 15.0792 7.64846 15.0737C7.64219 15.0682 7.63818 15.0606 7.63718 15.0523C7.41647 13.2758 6.86572 11.358 6.86028 11.339C6.85776 11.33 6.85892 11.3203 6.86351 11.3122C6.86809 11.304 6.87573 11.298 6.88473 11.2955C6.89374 11.293 6.90338 11.2941 6.91153 11.2987C6.91968 11.3033 6.92567 11.3109 6.92819 11.3199C6.93363 11.339 7.48574 13.2622 7.70712 15.0435C7.70828 15.0524 7.70586 15.0614 7.70038 15.0685C7.69491 15.0756 7.68683 15.0803 7.67792 15.0815H7.67113V15.0822Z" fill="#ECBDBB"/>
<path d="M9.31456 9.59843L9.63713 9.0212C9.63713 9.0212 9.50131 8.32512 9.49588 8.21782C9.49045 8.11052 9.80691 7.77097 9.84086 7.74245C9.87482 7.71393 10.2259 7.70849 10.2259 7.70849C10.2816 7.68464 10.342 7.67417 10.4025 7.67793C10.4218 7.67846 10.4401 7.6865 10.4535 7.70032C10.467 7.71415 10.4745 7.73267 10.4745 7.75196C10.4745 7.75196 10.6252 7.71189 10.6293 7.82394C10.6426 7.82215 10.6561 7.82215 10.6694 7.82394C10.6852 7.82755 10.6996 7.8356 10.711 7.84715C10.7223 7.8587 10.7302 7.87326 10.7335 7.88912C10.7369 7.90497 10.7356 7.92146 10.7299 7.93662C10.7242 7.95179 10.7143 7.965 10.7013 7.9747C10.6252 8.03175 10.4874 8.13497 10.4813 8.14583C10.4751 8.1567 10.2015 8.57435 10.1967 8.59133C10.192 8.6083 10.1397 9.08164 10.1118 9.17739C10.084 9.27314 9.80759 9.93459 9.80759 9.93459L9.31456 9.59843Z" fill="#ECBDBB"/>
<path d="M9.72202 8.07929C9.71495 8.0794 9.70802 8.07729 9.7022 8.07326C9.69638 8.06923 9.69197 8.06349 9.68958 8.05683C9.68718 8.05017 9.68693 8.04294 9.68885 8.03613C9.69077 8.02932 9.69477 8.02328 9.70029 8.01885C9.71115 8.00935 9.976 7.79203 10.1261 7.73499C10.1303 7.73343 10.1347 7.73271 10.1392 7.73287C10.1437 7.73303 10.1481 7.73407 10.1521 7.73593C10.1562 7.73779 10.1599 7.74044 10.1629 7.74371C10.166 7.74699 10.1683 7.75083 10.1699 7.75502C10.1714 7.75921 10.1722 7.76367 10.172 7.76814C10.1718 7.77261 10.1708 7.77701 10.1689 7.78107C10.1671 7.78514 10.1644 7.7888 10.1612 7.79185C10.1579 7.79489 10.154 7.79726 10.1499 7.79883C10.0106 7.85112 9.74647 8.07047 9.74239 8.07047C9.73678 8.07561 9.72961 8.07872 9.72202 8.07929Z" fill="#404B7C"/>
<path d="M9.89791 8.14719C9.89078 8.14719 9.88383 8.14495 9.87805 8.14078C9.87227 8.13661 9.86795 8.13073 9.8657 8.12397C9.86344 8.11721 9.86337 8.10991 9.8655 8.10311C9.86762 8.09631 9.87183 8.09035 9.87753 8.08607C10.0303 7.97066 10.1912 7.86648 10.359 7.77436C10.3631 7.7722 10.3676 7.7709 10.3722 7.77055C10.3769 7.77019 10.3815 7.77078 10.3859 7.77229C10.3903 7.7738 10.3943 7.77619 10.3977 7.77931C10.4012 7.78244 10.4039 7.78623 10.4058 7.79045C10.4077 7.79468 10.4087 7.79925 10.4088 7.80389C10.4089 7.80852 10.408 7.81312 10.4062 7.8174C10.4044 7.82169 10.4018 7.82556 10.3985 7.82878C10.3951 7.83201 10.3912 7.83452 10.3869 7.83616C10.2235 7.92652 10.0667 8.02818 9.9176 8.1404C9.91191 8.14467 9.90502 8.14704 9.89791 8.14719Z" fill="#404B7C"/>
<path d="M10.1974 8.14516C10.1904 8.14523 10.1836 8.14315 10.1778 8.13921C10.1721 8.13527 10.1677 8.12965 10.1653 8.12313C10.1628 8.1166 10.1624 8.10948 10.1642 8.10273C10.1659 8.09598 10.1697 8.08993 10.175 8.0854C10.2951 7.98324 10.4266 7.89528 10.5668 7.82326C10.575 7.81948 10.5844 7.81911 10.5929 7.82223C10.6013 7.82535 10.6082 7.8317 10.612 7.8399C10.6158 7.84809 10.6161 7.85746 10.613 7.86593C10.6099 7.87439 10.6035 7.88128 10.5953 7.88506C10.4609 7.95466 10.3347 8.03918 10.2191 8.13701C10.2131 8.14219 10.2054 8.14508 10.1974 8.14516Z" fill="#404B7C"/>
<path d="M8.87383 10.2327C8.85685 10.2042 8.80592 9.95562 8.82833 9.89857C8.94158 9.74079 9.0726 9.59655 9.21881 9.4687C9.28129 9.43475 9.94341 9.67787 10.0392 10.1763C10.0392 10.1763 9.85241 10.6062 9.81302 10.6293C9.77364 10.6524 9.40013 10.6408 9.17331 10.522C9.04533 10.4598 8.94045 10.3584 8.87383 10.2327Z" fill="#9AB3DA"/>
<path d="M9.00964 9.91015L8.51186 10.465C8.51186 10.465 7.36893 8.61986 6.47455 8.13362C6.47455 8.13362 6.1805 7.94144 6.11259 8.99405C6.04468 10.0467 6.41819 10.7597 6.41819 10.7597C6.41819 10.7597 7.91221 12.1179 8.40999 12.1974C8.90777 12.2768 9.34919 11.394 9.67788 10.4541C9.51829 10.1587 9.3098 9.9543 9.00964 9.91015Z" fill="#F68D88"/>
<path d="M7.36826 11.5936C7.3606 11.5936 7.35318 11.5909 7.3472 11.5861C6.85893 11.2045 6.39646 10.7875 6.39646 10.7834C6.39343 10.7807 6.3909 10.7775 6.38899 10.7739C6.38492 10.7665 6.01209 10.0405 6.07932 8.99062C6.10241 8.63138 6.1547 8.37535 6.23416 8.22935C6.23848 8.22142 6.24577 8.21554 6.25443 8.21299C6.26309 8.21044 6.27241 8.21144 6.28034 8.21576C6.28826 8.22009 6.29414 8.22738 6.29669 8.23604C6.29924 8.2447 6.29824 8.25402 6.29392 8.26194C6.21922 8.39776 6.16964 8.64564 6.14723 8.99469C6.1019 9.59136 6.20478 10.19 6.44672 10.7373C6.49629 10.7821 6.93091 11.1733 7.39067 11.5325C7.39654 11.5369 7.40083 11.543 7.40292 11.55C7.40501 11.557 7.40478 11.5645 7.40226 11.5714C7.39974 11.5783 7.39507 11.5842 7.38894 11.5882C7.38282 11.5922 7.37556 11.5941 7.36826 11.5936Z" fill="#ECBDBB"/>
<path d="M8.88808 11.0463C8.88172 11.0463 8.87548 11.0445 8.87008 11.0412C8.86467 11.0378 8.86033 11.033 8.85752 11.0273C8.76267 10.8583 8.65458 10.6971 8.53427 10.5451C8.52956 10.538 8.52768 10.5294 8.52901 10.521C8.53033 10.5126 8.53476 10.505 8.54142 10.4997C8.54808 10.4945 8.55648 10.4919 8.56497 10.4925C8.57345 10.4931 8.5814 10.4968 8.58724 10.503C8.7107 10.6583 8.82131 10.8235 8.91796 10.9967C8.92064 11.0019 8.92194 11.0076 8.92175 11.0134C8.92157 11.0192 8.91989 11.0249 8.9169 11.0299C8.9139 11.0348 8.90968 11.039 8.90463 11.0418C8.89959 11.0447 8.89389 11.0463 8.88808 11.0463Z" fill="#ECBDBB"/>
<path d="M5.32551 5.67662C5.95368 5.66439 6.02159 6.33331 5.8233 6.81955C5.625 7.30578 5.21754 7.12514 4.97985 6.79102C4.74217 6.45691 4.75371 5.68816 5.32551 5.67662Z" fill="#ECBDBB"/>
<path d="M5.52246 6.4963L5.65013 6.50037C5.68689 6.41854 5.71533 6.33323 5.73502 6.24571C5.79111 6.31246 5.85073 6.37616 5.91362 6.43654C5.92652 6.43654 6.31701 6.08408 6.34213 5.97814C6.36726 5.8722 5.92517 5.11297 5.44979 5.03147C4.97442 4.94998 4.10042 5.55778 4.05764 5.68545C4.01485 5.81312 4.02776 6.19478 3.98973 6.30547C3.9517 6.41616 3.27259 6.54723 3.12387 6.77269C2.97515 6.99815 3.01793 7.33703 3.11572 7.6304C3.21351 7.92377 2.87804 8.05484 2.48755 8.24159C2.09707 8.42834 1.81728 9.27722 2.71709 9.78655C3.6169 10.2959 5.09395 9.60047 5.28953 8.81883C5.43961 8.21918 5.34997 7.9876 5.25965 7.67658C5.16933 7.36555 5.64334 7.62972 5.36627 6.84943C5.21958 6.43586 5.4627 6.2946 5.4627 6.2946L5.52246 6.4963Z" fill="#404B7C"/>
<path d="M5.55709 6.52891C5.58356 6.4712 5.59588 6.40802 5.59305 6.3446C5.59022 6.28118 5.5723 6.21934 5.54079 6.16423C5.5262 6.13394 5.50305 6.10859 5.4742 6.09133C5.44535 6.07407 5.41207 6.06565 5.37848 6.06712C5.17883 6.0841 5.22976 6.50854 5.52924 6.59342L5.55709 6.52891Z" fill="#ECBDBB"/>
<path d="M5.48579 6.48339H5.47967C5.47086 6.48174 5.46307 6.47667 5.45798 6.46929C5.45289 6.46192 5.45092 6.45282 5.45251 6.444C5.45251 6.444 5.48715 6.25453 5.3846 6.21515C5.37614 6.21199 5.36927 6.20561 5.36551 6.19739C5.36176 6.18918 5.36142 6.17981 5.36457 6.17134C5.36772 6.16288 5.3741 6.15601 5.38232 6.15226C5.39053 6.1485 5.3999 6.14816 5.40837 6.15131C5.5666 6.21039 5.52382 6.44604 5.52178 6.45623C5.52014 6.46438 5.51558 6.47164 5.50894 6.47665C5.50231 6.48165 5.49407 6.48405 5.48579 6.48339Z" fill="#404B7C"/>
<path d="M5.37577 6.36932C5.36952 6.36935 5.36338 6.36766 5.35803 6.36443C5.35268 6.3612 5.34832 6.35655 5.34545 6.351C5.34257 6.34546 5.34128 6.33922 5.34171 6.33299C5.34215 6.32675 5.3443 6.32076 5.34792 6.31567C5.37836 6.2769 5.42053 6.24902 5.46812 6.23621C5.47713 6.23396 5.48666 6.23538 5.49462 6.24016C5.50258 6.24493 5.50832 6.25267 5.51057 6.26168C5.51282 6.27069 5.5114 6.28022 5.50663 6.28818C5.50185 6.29614 5.49411 6.30187 5.4851 6.30412C5.45278 6.31297 5.42404 6.33174 5.40293 6.35777C5.39956 6.36162 5.39537 6.36465 5.39067 6.36665C5.38597 6.36865 5.38087 6.36956 5.37577 6.36932Z" fill="#404B7C"/>
<path d="M4.91262 5.67661C5.08919 5.3778 4.89021 4.81686 4.43725 4.83927C4.33436 4.84502 4.23368 4.8715 4.14128 4.91713C4.04888 4.96276 3.96665 5.0266 3.89954 5.10481C3.83243 5.18302 3.78182 5.27398 3.75076 5.37224C3.71969 5.47051 3.70881 5.57403 3.71876 5.67661C3.75204 6.09561 4.50516 6.36725 4.91262 5.67661Z" fill="#404B7C"/>
<path d="M4.26408 6.13163C4.22929 6.1316 4.19455 6.12887 4.16018 6.12348C4.15117 6.12213 4.14307 6.11725 4.13766 6.10993C4.13225 6.10261 4.12996 6.09343 4.13132 6.08443C4.13267 6.07542 4.13754 6.06732 4.14486 6.06191C4.15219 6.0565 4.16136 6.05422 4.17036 6.05557C4.442 6.09835 4.71365 5.94963 4.88342 5.65761C4.91565 5.59528 4.93524 5.5272 4.94107 5.45727C4.9469 5.38734 4.93885 5.31696 4.91738 5.25015C4.91485 5.24115 4.91601 5.23151 4.9206 5.22336C4.92518 5.21521 4.93282 5.20921 4.94182 5.20669C4.95083 5.20417 4.96047 5.20533 4.96862 5.20991C4.97677 5.2145 4.98276 5.22213 4.98529 5.23114C5.00972 5.30727 5.01871 5.38751 5.01171 5.46716C5.00471 5.54681 4.98188 5.62426 4.94454 5.69496C4.77612 5.97475 4.52825 6.13163 4.26408 6.13163Z" fill="#9AB3DA"/>
</svg>
