<svg width="35" height="30" viewBox="0 0 35 30" fill="none" xmlns="http://www.w3.org/2000/svg">
<path d="M0.151886 1.83575H29.8756V20.2017H0.151886V1.83575Z" fill="#24285B"/>
<path d="M5.78832 12.0323C5.22891 12.0323 4.68207 11.8664 4.21695 11.5556C3.75182 11.2448 3.3893 10.8031 3.17523 10.2863C2.96116 9.76946 2.90514 9.20077 3.01428 8.65211C3.12341 8.10346 3.39279 7.59949 3.78835 7.20393C4.1839 6.80838 4.68787 6.539 5.23653 6.42987C5.78518 6.32073 6.35387 6.37674 6.87069 6.59082C7.38751 6.80489 7.82924 7.16741 8.14003 7.63254C8.45082 8.09766 8.6167 8.6445 8.6167 9.2039C8.61575 9.95375 8.31745 10.6726 7.78724 11.2028C7.25702 11.733 6.53816 12.0313 5.78832 12.0323ZM5.78832 7.13733C5.37959 7.13733 4.98003 7.25853 4.64019 7.48561C4.30034 7.71269 4.03546 8.03544 3.87905 8.41306C3.72264 8.79068 3.68171 9.2062 3.76145 9.60707C3.84119 10.0079 4.03801 10.3762 4.32703 10.6652C4.61604 10.9542 4.98427 11.151 5.38515 11.2308C5.78602 11.3105 6.20154 11.2696 6.57916 11.1132C6.95678 10.9568 7.27953 10.6919 7.50661 10.352C7.73369 10.0122 7.85489 9.61263 7.85489 9.2039C7.85425 8.65601 7.63633 8.13074 7.2489 7.74331C6.86148 7.35589 6.33621 7.13796 5.78832 7.13733Z" fill="white"/>
<path opacity="0.08" d="M14.8822 8.47439C14.8822 8.47439 13.6157 8.10723 13.1038 8.92884C12.592 9.75045 13.7078 11.1652 12.6314 12.0383C11.5551 12.9113 15.7014 12.7821 15.7014 12.7821L15.0137 10.5673L15.3163 8.96233L14.8822 8.47439Z" fill="black"/>
<path d="M5.78831 12.0323C5.09645 12.0308 4.4292 11.7755 3.91309 11.3147L4.41897 10.7455C4.79647 11.0805 5.28361 11.2655 5.78831 11.2657V12.0323Z" fill="white"/>
<path d="M8.61671 9.2039H7.8549C7.85427 8.65601 7.63634 8.13073 7.24892 7.74331C6.8615 7.35589 6.33623 7.13796 5.78833 7.13733V6.37552C6.53817 6.37647 7.25703 6.67476 7.78725 7.20498C8.31747 7.7352 8.61576 8.45406 8.61671 9.2039Z" fill="#68E1FD"/>
<path d="M5.78833 12.0323V11.2705C6.33623 11.2698 6.8615 11.0519 7.24892 10.6645C7.63634 10.2771 7.85427 9.7518 7.8549 9.2039H8.61671C8.61576 9.95375 8.31747 10.6726 7.78725 11.2028C7.25703 11.733 6.53817 12.0313 5.78833 12.0323Z" fill="#FFD200"/>
<path d="M4.19174 13.0991H7.38608V14.4182H4.19174V13.0991Z" fill="#68E1FD"/>
<path opacity="0.08" d="M4.07216 10.0494C4.07216 10.0494 2.30815 10.3675 2.51146 12.0323C2.71477 13.697 2.10724 19.575 6.08133 20.2065H13.1039L13.7473 15.3151L12.6829 14.0187L9.52203 15.6141L5.78832 16.1044L4.49432 14.4182L4.07216 10.0494Z" fill="black"/>
<path d="M5.85171 8.28902C5.90075 8.28902 5.91629 8.30696 5.91629 8.35718V8.46362C6.00453 8.47305 6.08854 8.50629 6.15932 8.5598C6.23011 8.61331 6.285 8.68507 6.31813 8.76739C6.34444 8.82001 6.33368 8.84752 6.27507 8.87383L6.16744 8.92167C6.11721 8.94678 6.09329 8.93482 6.06459 8.8834C6.04247 8.82905 6.00341 8.78329 5.95321 8.75291C5.90301 8.72253 5.84434 8.70915 5.78594 8.71477C5.60057 8.71477 5.51446 8.76978 5.51446 8.89416C5.51446 8.97429 5.58861 9.02452 5.66515 9.04006C5.71717 9.05157 5.76991 9.05956 5.82301 9.06398C5.92215 9.06898 6.02003 9.08831 6.11362 9.12139C6.16035 9.13605 6.2038 9.15961 6.24159 9.19075C6.28087 9.23127 6.31168 9.27922 6.33221 9.33179C6.35275 9.38436 6.3626 9.44049 6.36118 9.49691C6.36118 9.7361 6.20212 9.89635 5.91988 9.93701V10.0566C5.91988 10.1068 5.90433 10.1248 5.8553 10.1248H5.73571C5.68548 10.1248 5.66874 10.1068 5.66874 10.0566V9.94538C5.57075 9.93882 5.47691 9.90341 5.39902 9.84361C5.32112 9.7838 5.26267 9.70229 5.23102 9.60933C5.22647 9.59954 5.22419 9.58885 5.22434 9.57805C5.2245 9.56726 5.22708 9.55664 5.23191 9.54698C5.23674 9.53733 5.24368 9.52889 5.25223 9.52229C5.26077 9.51569 5.27069 9.5111 5.28125 9.50887L5.38889 9.4694C5.4427 9.45027 5.46782 9.4694 5.49174 9.51724C5.51343 9.57621 5.5541 9.62629 5.60735 9.65963C5.6606 9.69297 5.72342 9.70766 5.78594 9.70142C5.98685 9.70142 6.08731 9.63803 6.08731 9.50887C6.08876 9.47923 6.08041 9.44993 6.06355 9.42551C6.04669 9.40108 6.02226 9.38289 5.99403 9.37373C5.92423 9.34958 5.85134 9.33548 5.77757 9.33187C5.67717 9.32627 5.57829 9.30488 5.48456 9.26849C5.43828 9.25252 5.39531 9.2282 5.35779 9.19673C5.31833 9.15833 5.28731 9.11212 5.26671 9.06105C5.24612 9.00998 5.23641 8.95518 5.2382 8.90014C5.2382 8.66095 5.38649 8.50668 5.66634 8.4696V8.36316C5.66634 8.31294 5.68309 8.295 5.73332 8.295L5.85171 8.28902Z" fill="white"/>
<path d="M12.9819 12.6362C12.9294 12.4389 12.8321 12.2563 12.6974 12.1029C12.5627 11.9494 12.3943 11.8292 12.2054 11.7516C12.0165 11.674 11.8123 11.6411 11.6086 11.6556C11.4049 11.6701 11.2073 11.7315 11.0313 11.835C10.291 12.2739 9.30437 13.0847 8.18498 14.5856C5.90075 17.6424 4.88181 11.5778 4.88181 11.5778L3.68588 11.817C3.68588 11.817 3.3558 18.293 7.29521 17.6113C10.7443 17.0146 13.7532 15.5902 12.9819 12.6362Z" fill="#68E1FD"/>
<path opacity="0.46" d="M12.9819 12.6362C12.9294 12.4389 12.8321 12.2563 12.6974 12.1029C12.5627 11.9494 12.3943 11.8292 12.2054 11.7516C12.0165 11.674 11.8123 11.6411 11.6086 11.6556C11.4049 11.6701 11.2073 11.7315 11.0313 11.835C10.291 12.2739 9.30437 13.0847 8.18498 14.5856C5.90075 17.6424 4.88181 11.5778 4.88181 11.5778L3.68588 11.817C3.68588 11.817 3.3558 18.293 7.29521 17.6113C10.7443 17.0146 13.7532 15.5902 12.9819 12.6362Z" fill="white"/>
<path opacity="0.45" d="M16.0399 30C24.8984 30 32.0797 29.3195 32.0797 28.48C32.0797 27.6405 24.8984 26.9599 16.0399 26.9599C7.18129 26.9599 0 27.6405 0 28.48C0 29.3195 7.18129 30 16.0399 30Z" fill="#E6E6E6"/>
<path opacity="0.58" d="M4.95236 26.9109C4.95236 26.9109 4.04584 26.6633 3.84851 25.819C3.84851 25.819 5.25373 25.5344 5.2932 26.985L4.95236 26.9109Z" fill="#68E1FD"/>
<path opacity="0.73" d="M5.06359 26.8212C5.06359 26.8212 4.42974 25.819 4.98705 24.8826C4.98705 24.8826 6.05621 25.5607 5.58501 26.8224L5.06359 26.8212Z" fill="#68E1FD"/>
<path d="M5.22742 26.8212C5.22742 26.8212 5.56228 25.7628 6.57404 25.5631C6.57404 25.5631 6.76419 26.2495 5.91867 26.8248L5.22742 26.8212Z" fill="#68E1FD"/>
<path d="M4.56848 26.7973L4.75266 28.0554L5.91152 28.0602L6.08134 26.8033L4.56848 26.7973Z" fill="#24285B"/>
<path d="M18.1638 27.7624L18.7355 28.2085C18.7568 28.2261 18.7721 28.2498 18.7795 28.2764C18.7869 28.3029 18.786 28.3312 18.7768 28.3572C18.7677 28.3832 18.7509 28.4059 18.7285 28.422C18.7061 28.4382 18.6794 28.4472 18.6518 28.4477H17.9282C17.8258 28.4477 17.7275 28.407 17.6551 28.3345C17.5827 28.2621 17.542 28.1638 17.542 28.0614V27.76L18.1638 27.7624Z" fill="#68E1FD"/>
<path d="M12.061 27.7624L11.4893 28.2085C11.4681 28.2261 11.4527 28.2498 11.4453 28.2764C11.4379 28.3029 11.4389 28.3312 11.448 28.3572C11.4571 28.3832 11.474 28.4059 11.4963 28.422C11.5187 28.4382 11.5455 28.4472 11.573 28.4477H12.2906C12.3931 28.4477 12.4913 28.407 12.5637 28.3345C12.6362 28.2621 12.6769 28.1638 12.6769 28.0614V27.76L12.061 27.7624Z" fill="#68E1FD"/>
<path d="M26.9169 20.6622L27.4228 17.8027H23.8361L23.5252 20.24L21.8808 20.2627V20.6622H26.9169Z" fill="#FFD200"/>
<path d="M14.3835 11.3159L14.7805 9.58063C14.7805 9.58063 14.7937 8.76859 15.3163 8.95636C15.8389 9.14412 15.9944 10.0877 15.7134 10.407C15.4323 10.7263 15.2434 10.2874 15.2434 10.2874V11.2442L14.3835 11.3159Z" fill="#F4A28C"/>
<path d="M13.8633 11.237C13.8633 11.237 10.6139 10.9476 10.1894 13.1421C9.76479 15.3367 12.7893 19.4806 12.7893 19.4806L17.0038 19.3167C17.0038 19.3167 23.5527 10.1164 13.8633 11.237Z" fill="#68E1FD"/>
<path d="M24.1387 18.1339L23.8947 20.2017H26.5641L26.8762 18.1339H24.1387Z" fill="white"/>
<path d="M14.5055 10.1487L14.5127 9.73849C14.5157 9.64392 14.4996 9.54971 14.4653 9.46153C14.431 9.37335 14.3791 9.29304 14.3129 9.22544C14.2857 9.20417 14.2629 9.17774 14.2458 9.14765C14.2288 9.11756 14.2178 9.08441 14.2136 9.05009C14.2094 9.01576 14.212 8.98095 14.2212 8.94763C14.2305 8.9143 14.2462 8.88313 14.2675 8.85589C14.4828 8.54734 14.6645 8.74706 14.8822 8.47439C15.0999 8.20172 15.2625 8.1479 15.516 8.47439C15.7696 8.80088 15.9693 8.42057 16.114 8.82001C16.2587 9.21946 16.1319 9.41798 15.5699 9.45386C15.0915 9.48495 15.241 10.0267 14.7973 10.3113C14.7684 10.3296 14.7351 10.3398 14.7009 10.3407C14.6667 10.3417 14.6329 10.3334 14.603 10.3167C14.5732 10.3001 14.5483 10.2757 14.5312 10.2461C14.514 10.2166 14.5051 10.1829 14.5055 10.1487Z" fill="#FFD200"/>
<path opacity="0.08" d="M26.051 19.1684C26.051 19.1684 26.3201 19.5691 25.8525 19.7078C25.3849 19.8465 24.4473 19.3095 24.2571 19.7783C24.067 20.2472 24.3277 20.2017 24.3277 20.2017L23.5252 20.24L23.6795 19.0106L24.3648 18.4963L25.0727 18.5752L26.051 19.1684Z" fill="black"/>
<path opacity="0.08" d="M15.4479 12.7762C15.4479 12.7762 14.7399 14.4313 15.4479 15.9609C16.1559 17.4905 14.2101 19.4232 14.2101 19.4232L17.0038 19.3143C17.0038 19.3143 18.0275 17.7967 18.2308 17.2071C18.4341 16.6175 15.4479 12.7762 15.4479 12.7762Z" fill="black"/>
<path d="M15.6524 14.0175C14.7267 12.1674 17.1629 10.4812 18.5609 12.006C19.1031 12.6216 19.5105 13.3439 19.7568 14.1264C20.8332 17.3111 24.8144 18.0144 24.8144 18.0144V18.9867C24.8144 18.9867 18.586 19.5655 16.01 14.5976C15.8726 14.4161 15.7528 14.2218 15.6524 14.0175Z" fill="#68E1FD"/>
<path opacity="0.46" d="M15.6524 14.0175C14.7267 12.1674 17.1629 10.4812 18.5609 12.006C19.1031 12.6216 19.5105 13.3439 19.7568 14.1264C20.8332 17.3111 24.8144 18.0144 24.8144 18.0144V18.9867C24.8144 18.9867 18.586 19.5655 16.01 14.5976C15.8726 14.4161 15.7528 14.2218 15.6524 14.0175Z" fill="white"/>
<path d="M12.7893 19.4782L11.8326 27.7624L12.769 27.7636L14.8607 21.113L17.2179 27.7648H18.2894L17.0038 19.3143L12.7893 19.4782Z" fill="#24285B"/>
<path d="M20.8033 20.5665H28.8268V28.4501H20.8033V20.5665Z" fill="#C9C9C9"/>
<path d="M24.8156 18.8336C24.8156 18.8336 25.5069 19.5021 25.9757 19.3119C26.4445 19.1218 26.0558 18.1985 24.8156 18.1292V18.8336Z" fill="#F4A28C"/>
<path opacity="0.08" d="M23.4403 20.5653C23.4403 20.5653 21.2745 26.8033 25.5212 28.4465H20.7841V20.5653H23.4403Z" fill="black"/>
<path d="M4.8818 11.5743C4.8818 11.5743 4.76221 10.0447 4.2934 9.96692C3.82459 9.88919 4.10444 10.7706 4.10444 10.7706C3.91788 11.0098 3.16085 11.249 3.67989 11.8087L4.8818 11.5743Z" fill="#F4A28C"/>
<path d="M1.98046 4.10444C2.27108 4.10444 2.50668 3.86885 2.50668 3.57823C2.50668 3.28761 2.27108 3.05202 1.98046 3.05202C1.68985 3.05202 1.45425 3.28761 1.45425 3.57823C1.45425 3.86885 1.68985 4.10444 1.98046 4.10444Z" fill="white"/>
<path d="M3.54596 4.10444C3.83657 4.10444 4.07217 3.86885 4.07217 3.57823C4.07217 3.28761 3.83657 3.05202 3.54596 3.05202C3.25534 3.05202 3.01974 3.28761 3.01974 3.57823C3.01974 3.86885 3.25534 4.10444 3.54596 4.10444Z" fill="#68E1FD"/>
<path d="M5.02053 4.10444C5.31115 4.10444 5.54674 3.86885 5.54674 3.57823C5.54674 3.28761 5.31115 3.05202 5.02053 3.05202C4.72992 3.05202 4.49432 3.28761 4.49432 3.57823C4.49432 3.86885 4.72992 4.10444 5.02053 4.10444Z" fill="#FFD200"/>
<path d="M27.601 0H34.0638V4.1188H27.601V0Z" fill="#FFD200"/>
<path d="M28.8758 2.40862H29.7524V3.28523H28.8758V2.40862Z" fill="#24285B"/>
<path d="M30.354 1.46622H31.2306V3.28523H30.354V1.46622Z" fill="#24285B"/>
<path d="M31.9123 0.833572H32.7889V3.28524H31.9123V0.833572Z" fill="#24285B"/>
<path d="M24.1722 12.9364H27.4395V13.4865H24.1722V12.9364Z" fill="white"/>
<path d="M24.1722 14.3859H27.4395V14.936H24.1722V14.3859Z" fill="white"/>
<path d="M22.1906 12.9364H23.1545V13.4865H22.1906V12.9364Z" fill="#68E1FD"/>
<path d="M22.1906 14.3859H23.1545V14.936H22.1906V14.3859Z" fill="#FFD200"/>
<path d="M24.531 11.1425C26.3474 11.1425 27.8198 9.67006 27.8198 7.8537C27.8198 6.03733 26.3474 4.56488 24.531 4.56488C22.7146 4.56488 21.2422 6.03733 21.2422 7.8537C21.2422 9.67006 22.7146 11.1425 24.531 11.1425Z" fill="white"/>
<path d="M24.531 4.56488V7.85369L27.7517 7.18397C27.7517 7.18397 27.302 4.53976 24.531 4.56488Z" fill="#FFD200"/>
<path d="M24.531 7.8537L22.7036 10.5876C22.7036 10.5876 24.5465 11.9904 26.6813 10.3412C26.6813 10.3412 28.1427 9.28284 27.7516 7.18398L24.531 7.8537Z" fill="#68E1FD"/>
</svg>
