<svg width="33" height="30" viewBox="0 0 33 30" fill="none" xmlns="http://www.w3.org/2000/svg">
<path d="M0 0V30H24.2678V0H0ZM23.8374 29.5695H0.430468V0.430404H23.8374L23.8374 29.5695Z" fill="#4A555F"/>
<path d="M0.94989 0.950134V28.9674H23.2351V0.950134H0.94989ZM9.58449 5.39655H3.84101V2.86272H9.58449V5.39655Z" fill="#DFDFDF"/>
<path d="M7.94165 8.84457H20.8139V9.27504H7.94165V8.84457Z" fill="#4A555F"/>
<path d="M3.88123 11.3281H20.8139V11.7585H3.88123V11.3281Z" fill="#4A555F"/>
<path d="M3.88123 13.8115H20.8139V14.242H3.88123V13.8115Z" fill="#4A555F"/>
<path d="M3.88123 16.295H20.8139V16.7255H3.88123V16.295Z" fill="#4A555F"/>
<path d="M3.88123 18.7785H20.8139V19.2089H3.88123V18.7785Z" fill="#4A555F"/>
<path d="M3.88123 21.262H20.8139V21.6924H3.88123V21.262Z" fill="#4A555F"/>
<path d="M3.88123 26.4268H9.6249V26.8573H3.88123V26.4268Z" fill="#4A555F"/>
<path d="M15.0703 26.4268H20.8139V26.8573H15.0703V26.4268Z" fill="#4A555F"/>
<path d="M3.88123 2.90341H9.6249V5.43808H3.88123V2.90341Z" fill="#71CCE0"/>
<path d="M3.66599 2.68817V5.65331H9.84013V2.68817H3.66599ZM9.40966 5.22284H4.09645V3.11858H9.40966V5.22284Z" fill="#4A555F"/>
<path d="M27.5139 1.55344V11.3731H30.8611V1.55344H27.5139ZM30.4306 10.9427H27.9443V1.9839H30.4306V10.9427Z" fill="#4A555F"/>
<path d="M28.5053 2.54483H29.8697V10.3818H28.5053V2.54483Z" fill="#F58E6F"/>
<path d="M27.5139 10.9427V11.1579C27.5139 24.5117 28.6786 28.2617 28.7282 28.4148L28.7764 28.5638H29.6074L29.6501 28.4043C29.6622 28.359 30.8611 23.738 30.8611 11.158V10.9428L27.5139 10.9427ZM29.2722 28.1333H29.0963C28.8871 27.3253 27.9559 23.0698 27.9445 11.3732H30.4306C30.4186 22.4487 29.4747 27.2339 29.2722 28.1333Z" fill="#4A555F"/>
<path d="M28.5067 11.934C28.5308 18.6735 28.8664 22.8456 29.1711 25.2602C29.485 22.7602 29.8419 18.4964 29.8682 11.934H28.5067Z" fill="#F58E6F"/>
<path d="M27.5139 0.486145V1.76867H27.9443V0.916613H31.632V11.1579H32.0624V0.486145H27.5139Z" fill="#4A555F"/>
<path d="M31.632 9.97305V12.0059H32.9545V9.97305H31.632ZM32.524 11.5755H32.0624V10.4035H32.524V11.5755Z" fill="#4A555F"/>
<path d="M28.7177 28.1333V29.4795H29.6062V28.1333H28.7177ZM29.1757 29.0491H29.1481V28.5637H29.1757V29.0491Z" fill="#4A555F"/>
</svg>
