<svg width="32" height="30" viewBox="0 0 32 30" fill="none" xmlns="http://www.w3.org/2000/svg">
<path d="M11.5231 19.0992C11.1622 19.4112 10.8801 19.804 10.6997 20.2456C10.383 21.0374 10.4067 21.9701 9.93958 22.6874C9.55162 23.2828 8.88022 23.6375 8.19773 23.856C7.51524 24.0745 6.81533 24.2012 6.16135 24.4768C5.5215 24.7495 4.94902 25.1588 4.48401 25.6761C4.019 26.1933 3.67271 26.806 3.4694 27.4711C3.43959 27.5374 3.42418 27.6091 3.42418 27.6818C3.42418 27.7544 3.43959 27.8261 3.4694 27.8924C3.59449 28.0792 3.99987 27.8924 4.17406 27.8734C5.12416 27.7878 5.81456 28.0776 6.46221 28.7253C6.94835 29.213 7.82244 29.9636 8.58885 29.6168C8.90555 29.4743 9.15733 28.9961 9.48828 28.8029C9.86609 28.5819 10.2938 28.4604 10.7313 28.4498C11.5231 28.4355 12.2578 28.776 12.9799 29.0832C13.8492 29.4489 14.7534 29.7736 15.6956 29.8147C16.6199 29.8611 17.5267 29.5511 18.2292 28.9486C18.7913 28.4878 18.6124 28.1916 18.8499 27.4997C19.0257 26.9913 19.325 26.6224 19.5799 26.1711C20.0898 25.2527 20.055 24.2614 20.2672 23.2179L21.0684 19.237C21.051 19.3288 16.6473 18.9393 16.3417 18.9203C15.1224 18.8379 13.8904 18.697 12.6743 18.6495C12.2481 18.6518 11.838 18.8121 11.5231 19.0992Z" fill="#F56132"/>
<path d="M15.8872 29.9731H15.7035C14.7233 29.9303 13.7938 29.5899 12.9356 29.2288L12.7772 29.1623C12.1216 28.8852 11.4455 28.5954 10.7503 28.6113C10.3401 28.6208 9.93896 28.7347 9.58488 28.9422C9.43396 29.0474 9.29903 29.1738 9.18426 29.3175C9.04425 29.4986 8.8699 29.6504 8.6712 29.7641C8.0378 30.0507 7.26506 29.7387 6.36563 28.8409C5.73223 28.2075 5.06399 27.9557 4.20415 28.0333C4.15069 28.0423 4.09781 28.0544 4.0458 28.0697C3.83045 28.1267 3.50583 28.2138 3.35223 27.9826C3.3072 27.8982 3.28144 27.8049 3.27678 27.7093C3.27213 27.6138 3.2887 27.5184 3.32531 27.43C3.53357 26.7415 3.89058 26.1072 4.37108 25.572C4.85158 25.0368 5.44384 24.6137 6.10593 24.3327C6.51113 24.1744 6.92639 24.0432 7.34898 23.9399C7.61659 23.8703 7.89212 23.7958 8.15498 23.7088C8.94673 23.4459 9.49304 23.0833 9.80499 22.6003C10.0631 22.2028 10.1613 21.7341 10.2642 21.2385C10.3287 20.8792 10.4246 20.5263 10.5508 20.1839C10.7413 19.7191 11.0386 19.3057 11.4186 18.9773C11.7643 18.6603 12.2163 18.4846 12.6854 18.4848C13.4375 18.5149 14.204 18.5798 14.9466 18.6431C15.4106 18.6827 15.8967 18.7239 16.3591 18.7556L16.9181 18.8015C17.8587 18.8807 20.6868 19.1182 21.013 19.0865C21.0425 19.074 21.075 19.0707 21.1064 19.077C21.1268 19.0812 21.1462 19.0893 21.1634 19.1009C21.1806 19.1126 21.1954 19.1275 21.2069 19.1449C21.2184 19.1622 21.2263 19.1816 21.2303 19.2021C21.2342 19.2225 21.2341 19.2435 21.2299 19.2639L20.4319 23.248C20.3685 23.5552 20.3289 23.8639 20.2878 24.1616C20.1912 24.89 20.0993 25.5773 19.7272 26.2455C19.6433 26.4039 19.5546 26.5385 19.4675 26.6746C19.2804 26.9471 19.1267 27.2411 19.0099 27.5503C18.9499 27.7289 18.9049 27.9122 18.8753 28.0982C18.8596 28.2886 18.8038 28.4735 18.7116 28.6408C18.6193 28.8081 18.4927 28.954 18.3401 29.0689C17.6572 29.6544 16.7867 29.9753 15.8872 29.9731ZM10.7947 28.2914C11.5373 28.2914 12.2293 28.5843 12.9007 28.8678L13.0591 28.9343C13.8904 29.2843 14.7883 29.6136 15.7194 29.6532C16.604 29.6981 17.4721 29.401 18.1437 28.8235C18.4762 28.5495 18.5111 28.3579 18.5681 28.0317C18.6007 27.8297 18.6494 27.6306 18.7138 27.4363C18.8394 27.1044 19.0042 26.7886 19.2046 26.4957C19.2886 26.3627 19.3757 26.2249 19.4548 26.0824C19.7985 25.4664 19.8855 24.8156 19.979 24.1094C20.0201 23.8069 20.0613 23.4934 20.1247 23.1751L20.8879 19.3937C20.4382 19.3937 19.3931 19.3193 16.8991 19.1103L16.3448 19.0659C15.8698 19.0343 15.3947 18.9931 14.9197 18.9535C14.1802 18.8902 13.417 18.8237 12.6743 18.7952C12.2832 18.7995 11.9075 18.9484 11.6197 19.2132C11.278 19.5075 11.0109 19.8787 10.8406 20.2963C10.7206 20.6206 10.63 20.955 10.5698 21.2955C10.4653 21.7991 10.356 22.3184 10.0647 22.7666C9.71156 23.3081 9.11458 23.7167 8.24999 23.9985C7.97763 24.0888 7.69735 24.1569 7.42657 24.2361C7.01718 24.3344 6.61508 24.4608 6.22311 24.6145C5.6042 24.8797 5.05118 25.2777 4.60322 25.7804C4.15525 26.2831 3.82332 26.8781 3.63093 27.5234C3.59091 27.6145 3.58639 27.7173 3.61826 27.8116C3.63092 27.8306 3.7006 27.8369 3.96663 27.7673C4.03443 27.7464 4.1038 27.731 4.17407 27.7213C5.13683 27.6358 5.88266 27.9114 6.59048 28.6192C7.38223 29.4109 8.04097 29.7055 8.53977 29.479C8.69731 29.382 8.83578 29.2569 8.94832 29.1101C9.0836 28.9407 9.24377 28.7928 9.42337 28.6714C9.82485 28.4371 10.2793 28.3085 10.744 28.2977L10.7947 28.2914Z" fill="#093F68"/>
<path d="M27.575 22.4562C27.5497 23.6438 26.731 24.7349 25.1443 25.6961C24.5177 26.0714 23.8603 26.393 23.1792 26.6572L22.1959 24.0191C23.4104 23.5631 24.7374 22.4166 24.7374 22.4166C24.7374 22.4166 24.047 21.6676 21.9615 21.0026C21.6543 20.906 21.3519 20.8189 21.0621 20.7397V27.1307H12.28V20.7318C11.9902 20.811 11.6894 20.8901 11.3822 20.9946C9.29352 21.6613 8.60469 22.4087 8.60469 22.4087C8.60469 22.4087 10.0568 23.6058 11.1462 24.0112L10.1644 26.6493C9.14625 26.2709 5.81774 24.8457 5.77023 22.4483C5.71797 19.9464 9.05282 18.8062 10.147 18.4389C10.668 18.2615 12.4415 17.9939 14.527 17.8767C15.1604 17.8387 15.8413 17.8181 16.5143 17.8166C17.2918 17.8166 18.0724 17.8403 18.8135 17.8831C20.9006 18.0034 22.6757 18.2615 23.1951 18.4389C24.2908 18.8142 27.6241 19.9464 27.575 22.4562Z" fill="#68E1FD"/>
<path d="M21.0653 27.2811H12.28C12.238 27.2811 12.1977 27.2644 12.168 27.2347C12.1383 27.2051 12.1216 27.1648 12.1216 27.1228V20.9471C11.8873 21.0121 11.6561 21.0817 11.4297 21.153C9.89525 21.6423 9.12883 22.1791 8.84856 22.4087C9.23968 22.7143 10.345 23.5504 11.2016 23.8703C11.2408 23.8849 11.2726 23.9144 11.2901 23.9524C11.3076 23.9903 11.3094 24.0337 11.2951 24.073L10.3117 26.7095C10.2971 26.7487 10.2676 26.7805 10.2296 26.798C10.1916 26.8155 10.1483 26.8173 10.109 26.8029C9.06708 26.4165 5.66097 24.9565 5.61188 22.4578C5.55804 19.845 8.9689 18.6796 10.09 18.2964C10.6522 18.1063 12.4653 17.8403 14.5238 17.7247C15.1936 17.6867 15.8666 17.6661 16.5206 17.6645C17.2332 17.6645 18.017 17.6851 18.8294 17.731C20.9164 17.8514 22.7168 18.1127 23.2521 18.2948C24.3795 18.6796 27.7904 19.8434 27.7397 22.4578C27.7128 23.704 26.8688 24.833 25.233 25.8306C24.597 26.2106 23.9301 26.5364 23.2394 26.8045C23.2003 26.8184 23.1574 26.8163 23.1198 26.7989C23.0822 26.7814 23.0529 26.7499 23.0383 26.7111L22.0549 24.073C22.0405 24.0339 22.0421 23.9907 22.0593 23.9528C22.0764 23.9148 22.1079 23.8852 22.1468 23.8703C23.0969 23.5124 24.1341 22.7096 24.5014 22.4103C24.2243 22.1823 23.4579 21.6423 21.9203 21.153C21.6971 21.0817 21.4659 21.0136 21.2268 20.9471V27.1228C21.2268 27.1438 21.2226 27.1647 21.2144 27.1841C21.2063 27.2035 21.1943 27.2211 21.1793 27.2359C21.1642 27.2506 21.1464 27.2622 21.1268 27.27C21.1072 27.2778 21.0863 27.2815 21.0653 27.2811ZM12.4415 26.9644H20.9069V20.7334C20.9067 20.7089 20.9122 20.6847 20.9229 20.6628C20.9336 20.6408 20.9493 20.6216 20.9687 20.6067C20.988 20.5919 21.0105 20.5818 21.0344 20.5771C21.0583 20.5724 21.0829 20.5734 21.1064 20.5798C21.4231 20.6637 21.724 20.7539 22.0122 20.8442C24.1151 21.514 24.8276 22.2694 24.8625 22.301C24.8908 22.3333 24.9056 22.3753 24.9037 22.4182C24.9023 22.4395 24.8968 22.4602 24.8872 22.4793C24.8777 22.4983 24.8644 22.5152 24.8482 22.529C24.796 22.575 23.5814 23.6106 22.4065 24.1015L23.2806 26.4435C23.8986 26.1924 24.4968 25.895 25.0699 25.5535C26.6075 24.6208 27.4008 23.5757 27.4246 22.4451C27.4721 20.062 24.2243 18.9614 23.1586 18.5909C22.6361 18.4119 20.8721 18.1602 18.8119 18.0414C18.0075 17.9955 17.2284 17.9733 16.5222 17.9749C15.8745 17.9749 15.2079 17.9955 14.5444 18.0351C12.5381 18.1475 10.7313 18.4104 10.2056 18.5877C9.13358 18.9551 5.88741 20.0635 5.93016 22.4451C5.9745 24.6398 8.93881 26.0032 10.0726 26.4435L10.9451 24.1015C9.86674 23.6486 8.56986 22.5781 8.50493 22.5306C8.48854 22.517 8.47508 22.5001 8.46536 22.4811C8.45564 22.4621 8.44987 22.4413 8.44839 22.42C8.44691 22.3987 8.44976 22.3773 8.45675 22.3571C8.46375 22.337 8.47475 22.3184 8.4891 22.3026C8.51919 22.2694 9.23018 21.5109 11.3394 20.8442C11.6339 20.7508 11.938 20.6621 12.2436 20.5798C12.2671 20.5734 12.2917 20.5724 12.3156 20.5771C12.3395 20.5818 12.362 20.5919 12.3813 20.6067C12.4007 20.6216 12.4164 20.6408 12.4271 20.6628C12.4378 20.6847 12.4433 20.7089 12.4431 20.7334L12.4415 26.9644Z" fill="#093F68"/>
<path d="M18.8135 17.8831L16.671 26.1331L14.527 17.8767C15.1604 17.8387 15.8413 17.8181 16.5143 17.8166C17.2918 17.815 18.0724 17.8403 18.8135 17.8831Z" fill="white"/>
<path d="M16.6711 26.2914C16.6351 26.2926 16.5998 26.2814 16.571 26.2599C16.5423 26.2383 16.5217 26.2075 16.5127 26.1727L14.3686 17.9163C14.3628 17.8936 14.362 17.87 14.3664 17.847C14.3708 17.824 14.3802 17.8022 14.394 17.7833C14.4078 17.7644 14.4255 17.7487 14.4461 17.7375C14.4666 17.7263 14.4894 17.7197 14.5127 17.7184C15.1826 17.6804 15.8556 17.6598 16.5095 17.6582C17.2269 17.6582 18.0059 17.6788 18.8183 17.7247C18.8416 17.7261 18.8644 17.7326 18.885 17.7438C18.9055 17.7551 18.9233 17.7707 18.937 17.7896C18.9508 17.8086 18.9603 17.8303 18.9646 17.8533C18.969 17.8763 18.9683 17.9 18.9624 17.9226L16.8199 26.1727C16.8113 26.2059 16.7922 26.2355 16.7653 26.2569C16.7385 26.2784 16.7054 26.2905 16.6711 26.2914ZM14.7313 18.0224L16.6726 25.5013L18.6124 18.0287C17.8777 17.9907 17.1746 17.9733 16.5159 17.9733C15.9284 17.9765 15.3282 17.9923 14.7313 18.0224Z" fill="#093F68"/>
<path d="M15.8679 17.1609L17.6698 17.1747L17.6619 18.2119C17.6617 18.3127 17.6416 18.4125 17.6028 18.5056C17.5639 18.5986 17.507 18.683 17.4354 18.754C17.3638 18.825 17.2788 18.8811 17.1854 18.9191C17.092 18.9571 16.992 18.9763 16.8912 18.9755L16.622 18.9735C16.4191 18.9719 16.2252 18.8898 16.0829 18.7453C15.9406 18.6008 15.8615 18.4056 15.863 18.2028L15.871 17.1656L15.8679 17.1609Z" fill="#FFC9B0"/>
<path d="M16.8991 19.1309H16.6204C16.3754 19.1288 16.1412 19.0296 15.9693 18.855C15.7974 18.6804 15.7018 18.4448 15.7035 18.1998L15.7114 17.1626C15.7114 17.1206 15.7281 17.0803 15.7578 17.0506C15.7875 17.0209 15.8278 17.0042 15.8698 17.0042L17.6718 17.0185C17.7138 17.0185 17.7541 17.0352 17.7838 17.0649C17.8135 17.0946 17.8302 17.1348 17.8302 17.1768V18.214C17.8281 18.4576 17.7299 18.6906 17.5571 18.8623C17.3842 19.0339 17.1506 19.1305 16.907 19.1309H16.8991ZM16.8991 18.8142C17.059 18.8138 17.2123 18.7504 17.3258 18.6378C17.4393 18.5251 17.5039 18.3723 17.5056 18.2124V17.3336L16.0202 17.3225V18.2014C16.0193 18.2811 16.0342 18.3603 16.0641 18.4342C16.094 18.5081 16.1383 18.5754 16.1944 18.6321C16.3077 18.7461 16.4613 18.811 16.622 18.8126L16.8991 18.8142Z" fill="#093F68"/>
<path d="M10.5856 12.1176C10.1711 11.9663 9.79326 11.7288 9.47719 11.4208C8.9008 10.8413 8.56826 10.0701 8.2484 9.31792C8.54615 9.38754 8.85625 9.38477 9.15271 9.30983C9.44917 9.23488 9.72334 9.08996 9.95224 8.88721C8.92591 9.00589 7.89166 8.74451 7.04494 8.15247C7.89369 8.08121 8.49067 7.27996 8.81054 6.49138C9.13041 5.7028 9.30776 4.82712 9.85723 4.1763C10.5746 3.32596 11.4201 3.31963 12.4146 3.40989C12.3924 1.7678 13.3884 0.242889 15.1335 0.15738C17.9283 0.0291165 19.5118 3.04252 21.0779 2.83033C22.644 2.61814 23.0652 1.92773 23.0652 1.92773C23.3255 2.43182 23.4304 3.00179 23.3667 3.56553C23.303 4.12927 23.0736 4.66145 22.7073 5.09473C22.7073 5.09473 23.9409 4.74478 24.0771 6.38528C24.2132 8.02579 23.1998 12.3725 23.1998 12.3725L22.0898 12.1635C21.6226 12.078 21.0352 12.1872 20.5617 12.1983L17.0685 12.2822C15.3187 12.3218 12.4811 12.8523 10.5856 12.1176Z" fill="#725858"/>
<path d="M13.2095 12.6607C12.2594 12.6607 11.3093 12.5688 10.5287 12.2664C10.0959 12.1054 9.70159 11.8557 9.37111 11.5332C8.76621 10.9236 8.42101 10.1081 8.10431 9.38125C8.09406 9.35499 8.091 9.32647 8.09545 9.29863C8.09991 9.2708 8.11171 9.24465 8.12965 9.2229C8.14857 9.20033 8.17341 9.18348 8.20139 9.17424C8.22936 9.16501 8.25935 9.16377 8.288 9.17065C8.64859 9.25566 9.02689 9.22349 9.36795 9.0788C8.50367 9.05787 7.66478 8.78246 6.95627 8.28705C6.92995 8.26828 6.91001 8.2419 6.89912 8.21146C6.88824 8.18101 6.88693 8.14797 6.89538 8.11676C6.90383 8.08555 6.92163 8.05768 6.94638 8.03689C6.97114 8.01609 7.00167 8.00337 7.03387 8.00044C7.96655 7.92127 8.48594 6.88091 8.66487 6.43594C8.75196 6.22217 8.83114 5.99415 8.90715 5.77563C9.10983 5.1834 9.32202 4.57217 9.7369 4.0797C10.4653 3.21511 11.3125 3.1676 12.2594 3.24203C12.3069 1.66803 13.2824 0.087695 15.1287 0.00376951C16.7486 -0.067488 17.9933 0.885779 18.9925 1.65536C19.7652 2.24917 20.4334 2.76381 21.0589 2.6783C22.5157 2.48195 22.929 1.85488 22.9322 1.84855C22.9465 1.82573 22.9663 1.80692 22.9899 1.7939C23.0134 1.78087 23.0399 1.77407 23.0668 1.77412C23.094 1.7744 23.1207 1.78169 23.1443 1.79528C23.1678 1.80887 23.1875 1.8283 23.2014 1.85171C23.2109 1.86755 24.0517 3.37504 23.043 4.90312C23.2578 4.91123 23.4658 4.97984 23.6432 5.10105C23.9852 5.337 24.1847 5.76454 24.2354 6.36785C24.3716 8.01469 23.3962 12.2268 23.355 12.4042C23.3459 12.4441 23.3217 12.4789 23.2874 12.5013C23.2532 12.5238 23.2115 12.5321 23.1713 12.5245L22.0613 12.3218C21.7306 12.2799 21.3959 12.2799 21.0653 12.3218C20.8895 12.3361 20.7248 12.3503 20.5665 12.3535L17.0717 12.4374C16.6362 12.4469 16.1216 12.4881 15.5816 12.5324C14.8437 12.5942 14.0234 12.6607 13.2095 12.6607ZM8.51444 9.5206C8.78363 10.154 9.1035 10.8143 9.59597 11.31C9.89458 11.6012 10.2512 11.8262 10.6427 11.9703C12.0266 12.5071 13.9838 12.3471 15.5515 12.2189C16.0978 12.1745 16.614 12.1318 17.0606 12.1223L20.5538 12.0384C20.7026 12.0384 20.8626 12.0225 21.0288 12.0067C21.3874 11.9608 21.7503 11.9608 22.1088 12.0067L23.0763 12.184C23.2505 11.4129 24.0343 7.82151 23.9156 6.39319C23.8744 5.88964 23.7208 5.54127 23.4627 5.36075C23.2488 5.22762 22.9907 5.1849 22.7453 5.24199C22.713 5.25075 22.6787 5.24904 22.6474 5.23709C22.6161 5.22514 22.5894 5.20357 22.5712 5.17548C22.5527 5.14736 22.5437 5.1141 22.5454 5.0805C22.5471 5.0469 22.5594 5.01472 22.5807 4.98863C22.9045 4.61276 23.1174 4.15417 23.1954 3.6642C23.2734 3.17423 23.2136 2.6722 23.0225 2.21433C22.7675 2.45503 22.2022 2.84773 21.0969 2.98867C20.34 3.09001 19.6243 2.54054 18.7945 1.90238C17.7858 1.12647 16.6425 0.247629 15.1382 0.318886C13.4249 0.396478 12.5492 1.93247 12.5698 3.40988C12.5702 3.43212 12.5658 3.45419 12.5571 3.47466C12.5484 3.49512 12.5354 3.51351 12.5191 3.52864C12.5028 3.54365 12.4835 3.55508 12.4625 3.56217C12.4415 3.56926 12.4193 3.57187 12.3972 3.56981C11.4376 3.4843 10.6553 3.48114 9.97443 4.28239C9.59755 4.73052 9.40437 5.28632 9.20168 5.87697C9.12409 6.10024 9.04333 6.33143 8.95465 6.55471C8.7773 6.98859 8.307 7.93394 7.45349 8.23005C8.20501 8.65554 9.07208 8.83184 9.93009 8.7336C9.96274 8.73063 9.99551 8.73787 10.0239 8.75432C10.0522 8.77077 10.0748 8.79563 10.0884 8.82544C10.1025 8.85612 10.1064 8.89048 10.0996 8.92352C10.0927 8.95656 10.0755 8.98656 10.0504 9.00913C9.84167 9.19284 9.59815 9.33278 9.3343 9.42063C9.07046 9.50849 8.79166 9.54249 8.51444 9.5206Z" fill="#093F68"/>
<path d="M13.4084 12.4592C13.4148 11.6257 12.6359 10.9441 11.6686 10.9367C10.7014 10.9292 9.91215 11.5988 9.90575 12.4323C9.89935 13.2657 10.6782 13.9473 11.6455 13.9547C12.6127 13.9622 13.4019 13.2926 13.4084 12.4592Z" fill="#FFC9B0"/>
<path d="M11.6593 14.1128H11.6434C11.1532 14.1137 10.6787 13.9396 10.3054 13.6219C10.129 13.4777 9.98711 13.2957 9.89025 13.0895C9.79339 12.8833 9.74398 12.6579 9.74565 12.4301C9.74732 12.2022 9.80003 11.9776 9.8999 11.7728C9.99978 11.568 10.1443 11.3882 10.3228 11.2466C10.6952 10.9355 11.1661 10.7671 11.6513 10.7716H11.6688C12.1585 10.771 12.6323 10.9451 13.0052 11.2625C13.1816 11.4067 13.3235 11.5886 13.4204 11.7948C13.5172 12.0011 13.5666 12.2264 13.565 12.4542C13.5633 12.6821 13.5106 12.9067 13.4107 13.1115C13.3108 13.3163 13.1663 13.4961 12.9878 13.6377C12.6154 13.9488 12.1445 14.1172 11.6593 14.1128ZM11.6593 11.0946C11.2494 11.0889 10.8508 11.2292 10.535 11.4905C10.3905 11.6026 10.2733 11.7461 10.1922 11.91C10.1112 12.074 10.0683 12.2542 10.067 12.4371C10.0656 12.62 10.1057 12.8009 10.1843 12.966C10.2629 13.1312 10.3779 13.2764 10.5207 13.3907C10.8397 13.6539 11.2395 13.7993 11.653 13.8025C12.0665 13.8057 12.4685 13.6664 12.7915 13.4081C12.9336 13.2934 13.0489 13.1488 13.1291 12.9846C13.2092 12.8204 13.2524 12.6407 13.2554 12.458C13.2541 12.2765 13.2132 12.0974 13.1355 11.9333C13.0578 11.7692 12.9453 11.624 12.8057 11.5079C12.4893 11.2404 12.0879 11.0944 11.6735 11.0962L11.6593 11.0946Z" fill="#093F68"/>
<path d="M23.618 12.5376C23.6244 11.7042 22.8455 11.0226 21.8783 11.0151C20.911 11.0077 20.1218 11.6773 20.1154 12.5107C20.109 13.3441 20.8879 14.0258 21.8551 14.0332C22.8223 14.0406 23.6116 13.371 23.618 12.5376Z" fill="#FFC9B0"/>
<path d="M21.8681 14.1903H21.857C20.8056 14.1824 19.9568 13.4271 19.9568 12.5087C19.9568 11.5902 20.8246 10.8444 21.8776 10.8555C22.9306 10.8666 23.7778 11.6187 23.7778 12.5372C23.7738 12.7644 23.7201 12.9881 23.6206 13.1924C23.521 13.3968 23.3779 13.5768 23.2014 13.72C22.8271 14.0305 22.3543 14.1973 21.8681 14.1903ZM21.8681 11.1722C20.9956 11.1722 20.2846 11.7707 20.2846 12.5102C20.2846 13.2497 20.9877 13.8673 21.8681 13.8736C22.2824 13.8801 22.6857 13.7399 23.0066 13.4778C23.1491 13.3633 23.2646 13.2188 23.3448 13.0546C23.425 12.8903 23.468 12.7104 23.4706 12.5277C23.4706 11.7818 22.7675 11.1706 21.8871 11.1643L21.8681 11.1722Z" fill="#093F68"/>
<path d="M16.7692 17.4033C15.3685 17.3924 14.0294 16.8256 13.0465 15.8275C12.0635 14.8295 11.5173 13.4819 11.5278 12.0811L11.5563 8.24588C11.8619 8.75577 12.8881 8.56258 14.4066 5.99573C20.0122 8.88878 22.1246 7.26253 22.1246 7.26253L22.0898 12.1635C22.0789 13.5638 21.5123 14.9025 20.5145 15.8851C19.5167 16.8677 18.1696 17.4138 16.7692 17.4033Z" fill="#FFC9B0"/>
<path d="M16.8088 17.5616H16.7676C16.0533 17.5562 15.3471 17.4102 14.6892 17.1318C14.0313 16.8535 13.4347 16.4483 12.9335 15.9394C12.4322 15.4305 12.0361 14.8278 11.7677 14.1658C11.4994 13.5038 11.3641 12.7954 11.3695 12.0811L11.398 8.24746C11.398 8.21277 11.4094 8.17904 11.4305 8.15146C11.4515 8.12387 11.481 8.10397 11.5145 8.09479C11.5479 8.08562 11.5835 8.08769 11.6156 8.10068C11.6478 8.11367 11.6748 8.13687 11.6925 8.1667C11.7197 8.21428 11.7596 8.25339 11.8076 8.27967C11.8557 8.30595 11.9102 8.31837 11.9649 8.31555C12.1739 8.31555 12.9546 8.14136 14.2736 5.91655C14.2942 5.88172 14.3273 5.85608 14.3662 5.84489C14.405 5.83371 14.4467 5.83781 14.4827 5.85637C19.9346 8.67025 22.0106 7.16276 22.0312 7.14693C22.0548 7.12875 22.0831 7.11762 22.1128 7.11481C22.1425 7.11201 22.1724 7.11765 22.199 7.13109C22.2254 7.14437 22.2475 7.16475 22.2629 7.18993C22.2783 7.21511 22.2863 7.2441 22.2861 7.27361L22.2481 12.1635C22.2356 13.5984 21.6572 14.9704 20.6387 15.9812C19.6202 16.992 18.2438 17.56 16.8088 17.5616ZM16.7708 17.2449H16.8088C18.1598 17.2433 19.4556 16.7087 20.4148 15.7573C21.3739 14.8058 21.9189 13.5144 21.9314 12.1635L21.9679 7.54755C21.2521 7.88642 19.0004 8.5119 14.47 6.20791C13.5199 7.77241 12.6363 8.63225 11.9665 8.63383C11.8802 8.63492 11.7946 8.61877 11.7147 8.58633L11.6878 12.0859C11.6824 12.7587 11.8096 13.426 12.0623 14.0496C12.315 14.6732 12.6881 15.2409 13.1603 15.7202C13.6325 16.1995 14.1946 16.581 14.8144 16.8429C15.4342 17.1048 16.0996 17.2419 16.7724 17.2465L16.7708 17.2449Z" fill="#093F68"/>
<path d="M15.0606 12.0146C15.3309 12.0146 15.5499 11.7955 15.5499 11.5253C15.5499 11.2551 15.3309 11.036 15.0606 11.036C14.7904 11.036 14.5713 11.2551 14.5713 11.5253C14.5713 11.7955 14.7904 12.0146 15.0606 12.0146Z" fill="#093F68"/>
<path d="M18.9244 12.0669C19.1946 12.0669 19.4137 11.8478 19.4137 11.5776C19.4137 11.3073 19.1946 11.0883 18.9244 11.0883C18.6541 11.0883 18.4351 11.3073 18.4351 11.5776C18.4351 11.8478 18.6541 12.0669 18.9244 12.0669Z" fill="#093F68"/>
<path d="M17.2443 13.5364C17.0782 13.535 16.9125 13.5207 16.7486 13.4936C16.7066 13.486 16.6694 13.4621 16.645 13.4271C16.6207 13.392 16.6112 13.3487 16.6188 13.3067C16.6263 13.2648 16.6503 13.2275 16.6853 13.2031C16.7204 13.1788 16.7636 13.1693 16.8056 13.1769C17.0431 13.2188 17.2856 13.2236 17.5245 13.1912C17.5515 13.0455 17.3662 12.5261 17.1208 12.0399C17.1112 12.0214 17.1054 12.0011 17.1038 11.9802C17.1021 11.9594 17.1046 11.9384 17.1111 11.9186C17.1175 11.8987 17.1279 11.8803 17.1415 11.8644C17.1551 11.8486 17.1718 11.8356 17.1904 11.8262C17.2276 11.8073 17.2708 11.8038 17.3105 11.8166C17.3503 11.8293 17.3834 11.8572 17.4026 11.8943C17.5721 12.2252 17.9505 13.0281 17.8064 13.34C17.7909 13.379 17.7663 13.4138 17.7346 13.4413C17.7029 13.4689 17.6651 13.4884 17.6243 13.4984C17.4996 13.5262 17.372 13.5389 17.2443 13.5364Z" fill="#093F68"/>
<path d="M16.0297 10.0226H15.9981L13.683 9.74387C13.6414 9.73888 13.6012 9.72575 13.5647 9.70522C13.5282 9.68469 13.496 9.65718 13.4702 9.62424C13.4443 9.5913 13.4251 9.55359 13.4138 9.51326C13.4025 9.47292 13.3993 9.43076 13.4043 9.38917C13.4093 9.34758 13.4224 9.30738 13.4429 9.27087C13.4635 9.23435 13.491 9.20224 13.5239 9.17636C13.5568 9.15048 13.5946 9.13134 13.6349 9.12004C13.6752 9.10873 13.7174 9.10548 13.759 9.11047L16.0741 9.38917C16.1581 9.39421 16.2366 9.43241 16.2924 9.49536C16.3483 9.55832 16.3768 9.64088 16.3718 9.72487C16.3667 9.80886 16.3285 9.88742 16.2656 9.94324C16.2026 9.99907 16.1201 10.0276 16.0361 10.0226H16.0297Z" fill="#093F68"/>
<path d="M18.4224 10.1999C18.3808 10.2026 18.3391 10.1971 18.2996 10.1837C18.2602 10.1703 18.2237 10.1492 18.1924 10.1217C18.1292 10.0662 18.0906 9.9878 18.0851 9.90381C18.0797 9.81981 18.1078 9.73709 18.1633 9.67384C18.2188 9.61058 18.2972 9.57198 18.3812 9.56652L20.6947 9.26566C20.7363 9.26035 20.7785 9.26329 20.819 9.27431C20.8594 9.28533 20.8973 9.3042 20.9305 9.32986C20.9636 9.35552 20.9914 9.38746 21.0122 9.42385C21.0331 9.46025 21.0465 9.50039 21.0518 9.54198C21.0571 9.58357 21.0542 9.62579 21.0431 9.66625C21.0321 9.7067 21.0132 9.74459 20.9876 9.77774C20.9619 9.8109 20.93 9.83868 20.8936 9.8595C20.8572 9.88031 20.8171 9.89375 20.7755 9.89906L18.4636 10.1999H18.4224Z" fill="#093F68"/>
<path d="M16.2815 12.7335L13.9316 12.7161C13.8422 12.7155 13.7538 12.6973 13.6714 12.6625C13.589 12.6277 13.5143 12.577 13.4515 12.5133C13.3887 12.4497 13.3391 12.3742 13.3054 12.2914C13.2718 12.2085 13.2548 12.1199 13.2554 12.0305L13.2665 10.5736C13.2665 10.5316 13.2832 10.4914 13.3129 10.4617C13.3426 10.432 13.3829 10.4153 13.4249 10.4153L16.8183 10.4406C16.8603 10.4406 16.9006 10.4573 16.9303 10.487C16.96 10.5167 16.9767 10.557 16.9767 10.599L16.9656 12.0558C16.9643 12.2362 16.8916 12.4089 16.7634 12.5359C16.6352 12.6629 16.462 12.734 16.2815 12.7335ZM16.2815 12.4168C16.3775 12.4168 16.4697 12.3789 16.5379 12.3113C16.6061 12.2437 16.6449 12.1518 16.6457 12.0558L16.6552 10.7589L13.5785 10.7383L13.5674 12.0352C13.567 12.083 13.576 12.1305 13.5939 12.1748C13.6118 12.2192 13.6383 12.2596 13.6718 12.2937C13.7053 12.3278 13.7453 12.355 13.7893 12.3736C13.8333 12.3923 13.8806 12.4022 13.9284 12.4026L16.2815 12.4168Z" fill="#093F68"/>
<path d="M20.4968 12.7652L18.1469 12.7478C17.9664 12.7461 17.794 12.673 17.6672 12.5445C17.5405 12.416 17.4699 12.2426 17.4707 12.0621L17.4818 10.6069C17.4818 10.5649 17.4985 10.5246 17.5282 10.4949C17.5579 10.4652 17.5981 10.4485 17.6401 10.4485L21.0336 10.4755C21.0544 10.4753 21.0751 10.4793 21.0944 10.4872C21.1137 10.4951 21.1312 10.5067 21.146 10.5214C21.1749 10.5517 21.1914 10.5919 21.1919 10.6338L21.1808 12.0906C21.1792 12.2707 21.1063 12.4427 20.9781 12.5691C20.8499 12.6955 20.6768 12.766 20.4968 12.7652ZM20.4968 12.4485C20.5446 12.4489 20.592 12.4399 20.6364 12.422C20.6807 12.4041 20.7211 12.3776 20.7552 12.3441C20.7894 12.3105 20.8165 12.2706 20.8352 12.2266C20.8539 12.1826 20.8637 12.1353 20.8641 12.0875L20.8736 10.7906L17.7969 10.7668L17.7858 12.0653C17.7855 12.1128 17.7946 12.1599 17.8125 12.204C17.8304 12.248 17.8569 12.288 17.8903 12.3218C17.9238 12.356 17.9637 12.3832 18.0077 12.402C18.0517 12.4207 18.099 12.4306 18.1469 12.4311L20.4968 12.4485Z" fill="#093F68"/>
<path d="M13.4169 11.2925L11.1177 11.2751C11.0757 11.2751 11.0354 11.2584 11.0057 11.2287C10.976 11.199 10.9594 11.1588 10.9594 11.1168C10.9594 11.0748 10.976 11.0345 11.0057 11.0048C11.0354 10.9751 11.0757 10.9584 11.1177 10.9584L13.4185 10.9758C13.4605 10.9758 13.5008 10.9925 13.5305 11.0222C13.5602 11.0519 13.5769 11.0922 13.5769 11.1342C13.5769 11.1551 13.5727 11.1758 13.5647 11.1952C13.5566 11.2145 13.5448 11.232 13.5299 11.2467C13.5151 11.2614 13.4974 11.2731 13.478 11.2809C13.4586 11.2888 13.4379 11.2927 13.4169 11.2925Z" fill="#093F68"/>
<path d="M21.8744 11.3559H21.0368C20.9948 11.3559 20.9545 11.3392 20.9248 11.3095C20.8951 11.2798 20.8784 11.2395 20.8784 11.1975C20.8784 11.1555 20.8951 11.1153 20.9248 11.0856C20.9545 11.0559 20.9948 11.0392 21.0368 11.0392H21.876C21.918 11.0392 21.9583 11.0559 21.988 11.0856C22.0177 11.1153 22.0344 11.1555 22.0344 11.1975C22.0344 11.2395 22.0177 11.2798 21.988 11.3095C21.9583 11.3392 21.918 11.3559 21.876 11.3559H21.8744Z" fill="#093F68"/>
<path d="M14.4146 5.99574C14.7659 6.37408 15.1627 6.70756 15.5958 6.98859C15.8682 7.15961 16.1437 7.36388 16.2657 7.66158C16.5301 8.29498 15.949 9.63303 16.926 9.89589C16.7185 9.63303 16.8215 9.22607 17.0542 8.98538C17.287 8.74469 17.6132 8.62434 17.922 8.49291C18.5126 8.23955 19.1255 7.85951 19.2886 7.22611C19.4374 6.66081 19.154 6.05116 18.7248 5.6537C18.2957 5.25624 17.7431 5.0203 17.2015 4.80336" fill="#725858"/>
<path d="M16.9212 10.0542C16.9076 10.0564 16.8937 10.0564 16.8801 10.0542C16.1231 9.85156 16.1516 9.10415 16.1722 8.5135C16.2036 8.24836 16.1842 7.97967 16.1152 7.72175C16.0091 7.46522 15.7605 7.28154 15.5072 7.12319C15.0626 6.83547 14.6557 6.49344 14.2958 6.105C14.2796 6.09043 14.2666 6.07268 14.2575 6.05285C14.2485 6.03303 14.2437 6.01155 14.2433 5.98977C14.243 5.96799 14.2471 5.94637 14.2555 5.92626C14.2639 5.90616 14.2764 5.888 14.2921 5.87293C14.3078 5.85786 14.3265 5.84619 14.3469 5.83867C14.3674 5.83114 14.3892 5.82791 14.4109 5.82918C14.4327 5.83045 14.4539 5.8362 14.4733 5.84605C14.4928 5.85591 14.5099 5.86967 14.5238 5.88648C14.8678 6.25604 15.2566 6.58107 15.6813 6.85399C15.9648 7.03293 16.2736 7.26095 16.4145 7.60141C16.5206 7.85793 16.5079 8.17938 16.4953 8.51984C16.4778 8.99489 16.4826 9.34801 16.6536 9.55703C16.6596 9.30181 16.7613 9.05818 16.9386 8.87454C17.1752 8.65908 17.4532 8.4942 17.7557 8.38999L17.8571 8.34723C18.595 8.03053 19.013 7.65208 19.1334 7.1897C19.2537 6.72731 19.051 6.17626 18.6156 5.76455C18.2039 5.38134 17.6655 5.15965 17.1397 4.94588C17.1009 4.92992 17.07 4.89918 17.0538 4.86043C17.0376 4.82167 17.0375 4.77808 17.0534 4.73923C17.0694 4.70038 17.1001 4.66947 17.1389 4.65328C17.1776 4.6371 17.2212 4.63697 17.2601 4.65293C17.7826 4.8667 18.3765 5.11056 18.8325 5.53336C19.3503 6.00841 19.5894 6.69406 19.4406 7.26254C19.2917 7.83101 18.8151 8.27281 17.9822 8.63068L17.8792 8.67344C17.6167 8.76268 17.3745 8.90316 17.1667 9.08673C16.9877 9.272 16.8927 9.59187 17.0495 9.7898C17.068 9.8132 17.0795 9.84134 17.0827 9.87099C17.0859 9.90064 17.0806 9.93059 17.0676 9.95739C17.0545 9.98419 17.0341 10.0068 17.0088 10.0225C16.9835 10.0382 16.9542 10.0465 16.9244 10.0463L16.9212 10.0542Z" fill="#093F68"/>
<path d="M17.0352 15.6757C16.9294 15.6757 16.8236 15.6694 16.7185 15.6567C15.3298 15.4983 14.4779 14.3693 14.4431 14.3218C14.4287 14.3053 14.4179 14.2861 14.4114 14.2652C14.4048 14.2444 14.4027 14.2225 14.405 14.2008C14.4073 14.1791 14.4141 14.1581 14.425 14.1391C14.4358 14.1202 14.4504 14.1037 14.4679 14.0907C14.4854 14.0776 14.5055 14.0684 14.5267 14.0635C14.548 14.0585 14.57 14.0581 14.5915 14.0621C14.613 14.0661 14.6334 14.0745 14.6514 14.0867C14.6695 14.099 14.6848 14.1149 14.6964 14.1333C14.7043 14.1444 15.5072 15.2038 16.755 15.3431C17.5657 15.4334 18.3955 15.1214 19.2173 14.4152C19.2492 14.3877 19.2908 14.374 19.3328 14.3771C19.3748 14.3802 19.4139 14.3999 19.4414 14.4318C19.4689 14.4637 19.4826 14.5053 19.4795 14.5473C19.4763 14.5893 19.4567 14.6284 19.4247 14.6559C18.6377 15.3305 17.8349 15.6757 17.0352 15.6757Z" fill="#093F68"/>
<path d="M16.9798 19.0343H16.4113C16.1997 19.0343 16.0281 19.2058 16.0281 19.4175V19.6756C16.0281 19.8872 16.1997 20.0588 16.4113 20.0588H16.9798C17.1915 20.0588 17.363 19.8872 17.363 19.6756V19.4175C17.363 19.2058 17.1915 19.0343 16.9798 19.0343Z" fill="#FFBC0E"/>
<path d="M16.9798 20.2171H16.4113C16.2677 20.2171 16.13 20.1601 16.0284 20.0585C15.9268 19.957 15.8698 19.8192 15.8698 19.6756V19.4175C15.8698 19.2738 15.9268 19.1361 16.0284 19.0345C16.13 18.933 16.2677 18.8759 16.4113 18.8759H16.9798C17.1234 18.8759 17.2612 18.933 17.3628 19.0345C17.4643 19.1361 17.5214 19.2738 17.5214 19.4175V19.6756C17.5214 19.8192 17.4643 19.957 17.3628 20.0585C17.2612 20.1601 17.1234 20.2171 16.9798 20.2171ZM16.4113 19.1926C16.3517 19.1926 16.2945 19.2163 16.2523 19.2585C16.2102 19.3006 16.1865 19.3578 16.1865 19.4175V19.6756C16.1865 19.7352 16.2102 19.7924 16.2523 19.8346C16.2945 19.8767 16.3517 19.9004 16.4113 19.9004H16.9798C17.0394 19.9004 17.0966 19.8767 17.1388 19.8346C17.181 19.7924 17.2047 19.7352 17.2047 19.6756V19.4175C17.2047 19.3578 17.181 19.3006 17.1388 19.2585C17.0966 19.2163 17.0394 19.1926 16.9798 19.1926H16.4113Z" fill="#093F68"/>
<path d="M17.4897 22.9819L16.671 26.1331L15.7716 22.6716L16.3132 20.0588H17.078L17.4897 22.9819Z" fill="#FFBC0E"/>
<path d="M16.671 26.2914C16.6351 26.2926 16.5998 26.2814 16.571 26.2599C16.5422 26.2383 16.5217 26.2075 16.5127 26.1727L15.6149 22.7111C15.6085 22.6878 15.6085 22.6632 15.6149 22.6399L16.1548 20.0271C16.1622 19.9908 16.1821 19.9583 16.2111 19.9351C16.24 19.912 16.2761 19.8997 16.3132 19.9004H17.078C17.1164 19.9001 17.1537 19.9137 17.1828 19.9387C17.2119 19.9638 17.231 19.9986 17.2364 20.0366L17.6481 22.9598C17.6521 22.9801 17.6521 23.0011 17.6481 23.0215L16.8294 26.1727C16.8204 26.2075 16.7998 26.2383 16.7711 26.2599C16.7423 26.2814 16.707 26.2926 16.671 26.2914ZM15.9347 22.6684L16.671 25.5029L17.3282 22.9693L16.9482 20.2171H16.4414L15.9347 22.6684Z" fill="#093F68"/>
<path d="M10.9705 24.4831L12.28 25.3017V27.1228C11.955 27.3961 11.597 27.6275 11.2143 27.8116C10.5112 28.0903 10.4368 27.3571 10.6569 27.24C10.9641 27.0816 11.2903 26.8647 11.2903 26.8647C11.2903 26.8647 10.4226 27.0927 10.3893 26.0254L10.9705 24.4831Z" fill="#FFC9B0"/>
<path d="M10.9309 28.0317C10.8297 28.0358 10.7295 28.0097 10.6432 27.9567C10.5569 27.9037 10.4884 27.8262 10.4463 27.734C10.3355 27.4949 10.4004 27.1988 10.5857 27.1006C10.6537 27.0658 10.7234 27.0262 10.7899 26.9882C10.7226 26.9636 10.6591 26.9294 10.6015 26.8869C10.375 26.7174 10.2531 26.4292 10.2404 26.0318C10.2405 26.0113 10.2437 25.991 10.2499 25.9716L10.8248 24.4293C10.833 24.4071 10.8461 24.3871 10.8631 24.3706C10.8801 24.3542 10.9005 24.3418 10.9229 24.3343C10.9451 24.3268 10.9687 24.3243 10.992 24.327C11.0153 24.3298 11.0377 24.3377 11.0575 24.3501L12.3671 25.1688C12.3899 25.183 12.4087 25.2029 12.4217 25.2264C12.4348 25.25 12.4416 25.2764 12.4415 25.3034V27.1244C12.4415 27.1476 12.4365 27.1706 12.4266 27.1917C12.4168 27.2128 12.4024 27.2314 12.3845 27.2463C12.0467 27.5302 11.6742 27.7702 11.2761 27.9605C11.1664 28.0055 11.0494 28.0297 10.9309 28.0317ZM11.2998 26.7063C11.3307 26.7062 11.361 26.7152 11.3869 26.732C11.4127 26.7489 11.4331 26.773 11.4455 26.8013C11.4604 26.8359 11.4626 26.8746 11.4516 26.9106C11.4405 26.9466 11.417 26.9775 11.3853 26.9977C11.3711 27.0072 11.0449 27.2146 10.7345 27.3793C10.7156 27.4172 10.7065 27.4593 10.7082 27.5017C10.7098 27.544 10.7222 27.5853 10.744 27.6216C10.8263 27.7594 11.0164 27.7214 11.1589 27.6644C11.5054 27.4997 11.8299 27.2922 12.1248 27.0468V25.3889L11.0544 24.7206L10.5587 26.0508C10.5714 26.3295 10.649 26.5258 10.7883 26.6287C10.8581 26.6733 10.936 26.7035 11.0176 26.7177C11.0991 26.7318 11.1827 26.7296 11.2634 26.7111C11.2743 26.7083 11.2854 26.7067 11.2966 26.7063H11.2998Z" fill="#093F68"/>
<path d="M22.3906 24.4831L21.0827 25.3065V27.1275C21.4069 27.4011 21.7645 27.6325 22.1468 27.8163C22.8499 28.095 22.9243 27.3619 22.7042 27.2447C22.397 27.0864 22.0708 26.8694 22.0708 26.8694C22.0708 26.8694 22.9369 27.0974 22.9702 26.0302L22.3906 24.4831Z" fill="#FFC9B0"/>
<path d="M22.4334 28.0317C22.3148 28.029 22.1978 28.0043 22.0882 27.9589C21.69 27.7686 21.3176 27.5286 20.9797 27.2447C20.9622 27.2297 20.9481 27.211 20.9385 27.1899C20.9289 27.1688 20.9241 27.1459 20.9243 27.1228V25.3065C20.9243 25.2796 20.9311 25.2531 20.9441 25.2296C20.9571 25.206 20.9759 25.1862 20.9987 25.1719L22.3067 24.3532C22.3267 24.3407 22.3492 24.3328 22.3725 24.33C22.3959 24.3273 22.4197 24.3298 22.442 24.3374C22.4643 24.345 22.4846 24.3574 22.5015 24.3739C22.5183 24.3903 22.5313 24.4103 22.5395 24.4324L23.1143 25.9747C23.1221 25.9938 23.1253 26.0144 23.1238 26.0349C23.1111 26.4324 22.9908 26.7206 22.7644 26.89C22.7063 26.932 22.6429 26.966 22.5759 26.9913C22.6424 27.0293 22.7105 27.0689 22.7786 27.1038C22.9639 27.2035 23.0288 27.4996 22.9179 27.7372C22.8754 27.8287 22.8067 27.9056 22.7204 27.958C22.6341 28.0104 22.5342 28.0361 22.4334 28.0317ZM21.241 27.0484C21.5353 27.2938 21.8593 27.5013 22.2054 27.6659C22.3495 27.7229 22.5379 27.7609 22.6203 27.6232C22.6427 27.5867 22.6553 27.5451 22.6567 27.5023C22.658 27.4595 22.6482 27.4171 22.6282 27.3793C22.321 27.221 21.9948 27.0088 21.9805 26.9993C21.9488 26.979 21.9253 26.9481 21.9143 26.9122C21.9033 26.8762 21.9054 26.8374 21.9203 26.8029C21.9354 26.7682 21.9623 26.7401 21.9963 26.7235C22.0303 26.707 22.069 26.7031 22.1056 26.7127C22.1862 26.7318 22.2697 26.7345 22.3514 26.7207C22.433 26.7068 22.511 26.6766 22.5807 26.6319C22.6583 26.5572 22.7187 26.4666 22.7578 26.3662C22.7969 26.2659 22.8138 26.1582 22.8071 26.0507L22.3115 24.7206L21.241 25.3888V27.0484Z" fill="#093F68"/>
<path d="M12.28 21.4459C12.238 21.4459 12.1977 21.4293 12.168 21.3996C12.1383 21.3699 12.1216 21.3296 12.1216 21.2876V19.229C12.1216 19.187 12.1383 19.1468 12.168 19.1171C12.1977 19.0874 12.238 19.0707 12.28 19.0707C12.322 19.0707 12.3623 19.0874 12.392 19.1171C12.4217 19.1468 12.4383 19.187 12.4383 19.229V21.2876C12.4383 21.3296 12.4217 21.3699 12.392 21.3996C12.3623 21.4293 12.322 21.4459 12.28 21.4459Z" fill="#093F68"/>
<path d="M21.0827 21.4459C21.0407 21.4459 21.0004 21.4293 20.9707 21.3996C20.941 21.3699 20.9243 21.3296 20.9243 21.2876V19.229C20.9243 19.187 20.941 19.1468 20.9707 19.1171C21.0004 19.0874 21.0407 19.0707 21.0827 19.0707C21.1247 19.0707 21.1649 19.0874 21.1946 19.1171C21.2243 19.1468 21.241 19.187 21.241 19.229V21.2876C21.241 21.3296 21.2243 21.3699 21.1946 21.3996C21.1649 21.4293 21.1247 21.4459 21.0827 21.4459Z" fill="#093F68"/>
<path d="M11.6561 18.0668C11.6561 18.0668 12.5951 20.1712 13.7146 20.2599C14.8342 20.3486 15.1097 17.8166 15.1097 17.8166L11.6561 18.0668Z" fill="#F56132"/>
<path d="M13.7812 20.4198H13.7099C12.5112 20.3248 11.5595 18.2235 11.5183 18.1333C11.5081 18.11 11.5036 18.0846 11.5053 18.0593C11.5069 18.0339 11.5147 18.0093 11.5278 17.9876C11.5409 17.966 11.5589 17.9478 11.5804 17.9346C11.6019 17.9214 11.6262 17.9135 11.6513 17.9116L15.1065 17.6598C15.1296 17.6581 15.1527 17.6615 15.1744 17.6697C15.196 17.6779 15.2155 17.6907 15.2316 17.7073C15.2479 17.7239 15.2602 17.7438 15.2679 17.7657C15.2756 17.7876 15.2783 17.8109 15.276 17.834C15.2554 17.9401 14.9704 20.4198 13.7812 20.4198ZM11.9079 18.2029C12.1707 18.7191 12.9181 20.0335 13.7352 20.1031C14.4557 20.1601 14.8231 18.7381 14.9355 17.9892L11.9079 18.2029Z" fill="#093F68"/>
<path d="M13.7162 19.2322C13.9008 19.2322 14.0504 19.0826 14.0504 18.8981C14.0504 18.7136 13.9008 18.564 13.7162 18.564C13.5317 18.564 13.3821 18.7136 13.3821 18.8981C13.3821 19.0826 13.5317 19.2322 13.7162 19.2322Z" fill="#093F68"/>
<path d="M13.7162 19.3905C13.6188 19.3905 13.5236 19.3617 13.4426 19.3076C13.3617 19.2534 13.2985 19.1765 13.2613 19.0865C13.224 18.9965 13.2142 18.8975 13.2332 18.802C13.2522 18.7065 13.2991 18.6187 13.368 18.5499C13.4369 18.481 13.5246 18.4341 13.6202 18.4151C13.7157 18.3961 13.8147 18.4058 13.9047 18.4431C13.9947 18.4804 14.0716 18.5435 14.1257 18.6245C14.1798 18.7055 14.2087 18.8007 14.2087 18.8981C14.2087 18.9627 14.196 19.0268 14.1712 19.0865C14.1465 19.1463 14.1102 19.2006 14.0645 19.2463C14.0187 19.292 13.9644 19.3283 13.9047 19.3531C13.8449 19.3778 13.7809 19.3905 13.7162 19.3905ZM13.7162 18.7223C13.6815 18.7223 13.6475 18.7326 13.6186 18.7519C13.5897 18.7712 13.5672 18.7987 13.5538 18.8308C13.5405 18.8629 13.5371 18.8983 13.5438 18.9324C13.5506 18.9665 13.5674 18.9978 13.592 19.0224C13.6165 19.0469 13.6479 19.0637 13.6819 19.0705C13.716 19.0773 13.7514 19.0738 13.7835 19.0605C13.8156 19.0472 13.8431 19.0246 13.8624 18.9957C13.8817 18.9668 13.892 18.9328 13.892 18.8981C13.892 18.8515 13.8735 18.8068 13.8405 18.7738C13.8076 18.7408 13.7629 18.7223 13.7162 18.7223Z" fill="#093F68"/>
<path d="M21.9552 18.0668C21.9552 18.0668 21.0146 20.1712 19.8966 20.2599C18.7787 20.3486 18.5016 17.8166 18.5016 17.8166L21.9552 18.0668Z" fill="#F56132"/>
<path d="M19.838 20.4198C18.6393 20.4198 18.3543 17.9401 18.3432 17.8324C18.3408 17.8093 18.3435 17.786 18.3511 17.7641C18.3587 17.7423 18.3711 17.7223 18.3872 17.7057C18.4034 17.6891 18.423 17.6762 18.4447 17.668C18.4663 17.6598 18.4895 17.6564 18.5127 17.6582L21.9663 17.91C21.9917 17.9116 22.0163 17.9194 22.038 17.9326C22.0598 17.9458 22.078 17.9641 22.0912 17.9858C22.1044 18.0076 22.1122 18.0322 22.1139 18.0576C22.1156 18.0829 22.1111 18.1084 22.1009 18.1317C22.0597 18.2219 21.108 20.3232 19.9093 20.4182L19.838 20.4198ZM18.69 17.9876C18.8008 18.7366 19.1651 20.1601 19.8903 20.1015C20.7074 20.0382 21.4532 18.7239 21.7177 18.2013L18.69 17.9876Z" fill="#093F68"/>
<path d="M19.8935 19.2322C20.078 19.2322 20.2276 19.0826 20.2276 18.8981C20.2276 18.7136 20.078 18.564 19.8935 18.564C19.7089 18.564 19.5593 18.7136 19.5593 18.8981C19.5593 19.0826 19.7089 19.2322 19.8935 19.2322Z" fill="#093F68"/>
<path d="M19.8935 19.3905C19.7961 19.3905 19.7008 19.3617 19.6199 19.3076C19.5389 19.2534 19.4758 19.1765 19.4385 19.0865C19.4012 18.9965 19.3915 18.8975 19.4105 18.802C19.4295 18.7065 19.4764 18.6187 19.5452 18.5499C19.6141 18.481 19.7019 18.4341 19.7974 18.4151C19.8929 18.3961 19.9919 18.4058 20.0819 18.4431C20.1719 18.4804 20.2488 18.5435 20.3029 18.6245C20.357 18.7055 20.3859 18.8007 20.3859 18.8981C20.3861 18.9628 20.3735 19.0269 20.3489 19.0868C20.3242 19.1466 20.2879 19.201 20.2422 19.2468C20.1964 19.2925 20.142 19.3288 20.0822 19.3535C20.0223 19.3782 19.9582 19.3908 19.8935 19.3905ZM19.8935 18.7223C19.8587 18.7223 19.8247 18.7326 19.7958 18.7519C19.7669 18.7712 19.7444 18.7987 19.7311 18.8308C19.7178 18.8629 19.7143 18.8983 19.7211 18.9324C19.7279 18.9665 19.7446 18.9978 19.7692 19.0224C19.7938 19.0469 19.8251 19.0637 19.8592 19.0705C19.8933 19.0773 19.9286 19.0738 19.9607 19.0605C19.9928 19.0472 20.0203 19.0246 20.0396 18.9957C20.0589 18.9668 20.0692 18.9328 20.0692 18.8981C20.0692 18.8515 20.0507 18.8068 20.0177 18.7738C19.9848 18.7408 19.9401 18.7223 19.8935 18.7223Z" fill="#093F68"/>
<path d="M12.28 26.8647H21.0827V29.8416H12.28V26.8647Z" fill="#093F68"/>
<path d="M21.0827 30H12.28C12.238 30 12.1977 29.9833 12.168 29.9536C12.1383 29.9239 12.1216 29.8837 12.1216 29.8417V26.8647C12.1216 26.8227 12.1383 26.7824 12.168 26.7527C12.1977 26.723 12.238 26.7063 12.28 26.7063H21.0827C21.1247 26.7063 21.1649 26.723 21.1946 26.7527C21.2243 26.7824 21.241 26.8227 21.241 26.8647V29.8417C21.241 29.8837 21.2243 29.9239 21.1946 29.9536C21.1649 29.9833 21.1247 30 21.0827 30ZM12.4383 29.6833H20.9243V27.023H12.4383V29.6833Z" fill="#093F68"/>
<path d="M6.08852 14.3804H6.06476L0.137725 13.5284C0.0957278 13.5226 0.0577869 13.5003 0.032248 13.4664C0.00670914 13.4325 -0.00433457 13.3899 0.00154501 13.3479C0.00742459 13.3059 0.0297459 13.268 0.0635998 13.2425C0.0974537 13.2169 0.140067 13.2059 0.182064 13.2117L6.11069 14.0637C6.15268 14.0666 6.19179 14.0861 6.21941 14.1179C6.24703 14.1497 6.26089 14.1911 6.25795 14.2331C6.25501 14.2751 6.23551 14.3142 6.20373 14.3418C6.17196 14.3694 6.13051 14.3833 6.08852 14.3804Z" fill="#DFEAEF"/>
<path d="M5.45669 10.3789C5.42561 10.3788 5.39522 10.3697 5.36931 10.3525C5.34341 10.3353 5.32313 10.3109 5.31101 10.2823C5.17483 10.0701 3.46623 8.68134 1.91915 7.4763C1.88604 7.45063 1.86445 7.41289 1.85911 7.37134C1.85377 7.32979 1.86511 7.28782 1.89065 7.25461C1.90337 7.23799 1.91926 7.22405 1.93741 7.21361C1.95555 7.20317 1.97558 7.19643 1.99634 7.19378C2.0171 7.19113 2.03819 7.19262 2.05837 7.19817C2.07855 7.20372 2.09743 7.21321 2.11392 7.22611C3.38072 8.20946 5.51053 9.89905 5.60554 10.1682C5.61923 10.2077 5.61677 10.251 5.59867 10.2887C5.58058 10.3264 5.54833 10.3554 5.50895 10.3694C5.49219 10.3754 5.47452 10.3787 5.45669 10.3789Z" fill="#DFEAEF"/>
<path d="M1.31111 20.2171C1.27487 20.2173 1.23967 20.2051 1.21137 20.1825C1.18306 20.1598 1.16338 20.1282 1.1556 20.0928C1.14781 20.0574 1.1524 20.0204 1.1686 19.988C1.1848 19.9556 1.21163 19.9297 1.2446 19.9147L6.02202 17.6725C6.0409 17.6632 6.06144 17.6577 6.08245 17.6564C6.10345 17.6552 6.1245 17.6581 6.14436 17.6651C6.16422 17.672 6.1825 17.6829 6.19812 17.697C6.21374 17.7111 6.22639 17.7281 6.23533 17.7472C6.24428 17.7662 6.24934 17.7869 6.25021 17.8079C6.25109 17.8289 6.24777 17.8499 6.24044 17.8697C6.23311 17.8894 6.22192 17.9074 6.20753 17.9228C6.19314 17.9382 6.17583 17.9505 6.15662 17.9591L1.38078 20.2013C1.35919 20.2122 1.33528 20.2176 1.31111 20.2171Z" fill="#DFEAEF"/>
<path d="M26.0184 14.5894C25.9976 14.5906 25.9768 14.5878 25.9571 14.581C25.9374 14.5742 25.9193 14.5635 25.9037 14.5497C25.8881 14.5359 25.8754 14.5191 25.8663 14.5004C25.8572 14.4817 25.8518 14.4613 25.8506 14.4405C25.8493 14.4197 25.8522 14.3989 25.859 14.3792C25.8658 14.3595 25.8764 14.3414 25.8902 14.3258C25.9041 14.3102 25.9208 14.2975 25.9396 14.2884C25.9583 14.2793 25.9786 14.2739 25.9994 14.2727L31.2677 13.6393C31.3093 13.6344 31.3511 13.6461 31.384 13.6719C31.417 13.6977 31.4384 13.7355 31.4435 13.777C31.4462 13.7977 31.4447 13.8188 31.4392 13.8389C31.4337 13.859 31.4243 13.8779 31.4115 13.8944C31.3987 13.9109 31.3828 13.9246 31.3646 13.9349C31.3465 13.9452 31.3265 13.9519 31.3057 13.9544L26.0374 14.5878L26.0184 14.5894Z" fill="#DFEAEF"/>
<path d="M26.6439 10.3789C26.6105 10.3792 26.5779 10.369 26.5507 10.3497C26.5235 10.3304 26.5031 10.3029 26.4923 10.2713C26.4816 10.2397 26.4812 10.2056 26.4911 10.1737C26.5009 10.1418 26.5206 10.1138 26.5473 10.0938L30.3351 7.22453C30.3687 7.19933 30.4109 7.18851 30.4525 7.19445C30.494 7.20039 30.5315 7.2226 30.5567 7.2562C30.5819 7.28979 30.5928 7.33203 30.5868 7.3736C30.5809 7.41518 30.5587 7.45269 30.5251 7.47789L26.7389 10.3472C26.7115 10.3677 26.6782 10.3789 26.6439 10.3789Z" fill="#DFEAEF"/>
<path d="M31.6747 20.8189C31.6451 20.819 31.616 20.8107 31.5908 20.7951L27.0113 17.9448C26.9756 17.9226 26.9502 17.887 26.9407 17.846C26.9312 17.8051 26.9384 17.762 26.9606 17.7263C26.9829 17.6906 27.0184 17.6652 27.0594 17.6557C27.1004 17.6462 27.1434 17.6534 27.1791 17.6756L31.7586 20.5259C31.7763 20.5369 31.7917 20.5513 31.8038 20.5682C31.816 20.5852 31.8246 20.6044 31.8293 20.6247C31.834 20.645 31.8347 20.666 31.8313 20.6865C31.8278 20.7071 31.8204 20.7268 31.8093 20.7444C31.795 20.7673 31.7752 20.7861 31.7516 20.7991C31.7281 20.8121 31.7016 20.8189 31.6747 20.8189Z" fill="#DFEAEF"/>
</svg>
