<svg width="26" height="30" viewBox="0 0 26 30" fill="none" xmlns="http://www.w3.org/2000/svg">
<path d="M21.7556 0.171722H5.95878C4.70026 0.171722 3.68002 1.19196 3.68002 2.45048V27.5512C3.68002 28.8097 4.70026 29.83 5.95878 29.83H21.7556C23.0141 29.83 24.0343 28.8097 24.0343 27.5512V2.45048C24.0343 1.19196 23.0141 0.171722 21.7556 0.171722Z" fill="#68E1FD"/>
<path d="M21.7573 30H5.95878C5.30931 29.9995 4.68655 29.7415 4.22714 29.2824C3.76773 28.8233 3.50921 28.2007 3.5083 27.5512V2.44877C3.50921 1.7993 3.76773 1.17672 4.22714 0.71763C4.68655 0.258545 5.30931 0.000459595 5.95878 5.4195e-06H21.7573C22.0795 -0.00067182 22.3988 0.0621301 22.6968 0.184826C22.9947 0.307522 23.2656 0.487708 23.494 0.715098C23.7223 0.942487 23.9037 1.21263 24.0276 1.51009C24.1515 1.80756 24.2157 2.12652 24.2164 2.44877V27.5512C24.2157 27.8735 24.1515 28.1924 24.0276 28.4899C23.9037 28.7874 23.7223 29.0575 23.494 29.2849C23.2656 29.5123 22.9947 29.6925 22.6968 29.8152C22.3988 29.9379 22.0795 30.0007 21.7573 30ZM5.95878 0.343451C5.4004 0.343905 4.86499 0.565806 4.46999 0.960483C4.07499 1.35516 3.85266 1.89039 3.85175 2.44877V27.5512C3.85266 28.1096 4.07499 28.6448 4.46999 29.0395C4.86499 29.4342 5.4004 29.6561 5.95878 29.6566H21.7573C22.0345 29.6575 22.3092 29.6037 22.5656 29.4983C22.822 29.393 23.0551 29.2381 23.2516 29.0426C23.4481 28.847 23.6042 28.6146 23.7108 28.3587C23.8174 28.1028 23.8725 27.8284 23.8729 27.5512V2.44877C23.872 1.89039 23.6497 1.35516 23.2547 0.960483C22.8597 0.565806 22.3243 0.343905 21.7659 0.343451H5.95878Z" fill="#093F68"/>
<path d="M3.68002 2.68918H24.0343V26.4797H3.68002V2.68918Z" fill="#093F68"/>
<path d="M24.0446 26.6531H3.68002C3.63448 26.6531 3.5908 26.635 3.5586 26.6028C3.52639 26.5706 3.5083 26.5269 3.5083 26.4814V2.68918C3.5083 2.64364 3.52639 2.59996 3.5586 2.56775C3.5908 2.53555 3.63448 2.51746 3.68002 2.51746H24.0446C24.0902 2.51746 24.1339 2.53555 24.1661 2.56775C24.1983 2.59996 24.2164 2.64364 24.2164 2.68918V26.4814C24.2164 26.5269 24.1983 26.5706 24.1661 26.6028C24.1339 26.635 24.0902 26.6531 24.0446 26.6531ZM3.86033 26.3097H23.8729V2.8609H3.85175L3.86033 26.3097Z" fill="#093F68"/>
<path d="M20.7476 5.86951H0.978819C0.533072 5.86951 0.171722 6.23086 0.171722 6.6766V21.2765C0.171722 21.7222 0.533072 22.0836 0.978819 22.0836H20.7476C21.1933 22.0836 21.5547 21.7222 21.5547 21.2765V6.6766C21.5547 6.23086 21.1933 5.86951 20.7476 5.86951Z" fill="white"/>
<path d="M20.7493 22.2553H0.97882C0.71936 22.2548 0.470657 22.1516 0.287191 21.9681C0.103725 21.7846 0.000453999 21.5359 0 21.2765V6.68002C0.000453999 6.42056 0.103725 6.17186 0.287191 5.98839C0.470657 5.80493 0.71936 5.70166 0.97882 5.7012H20.7493C21.0087 5.70166 21.2574 5.80493 21.4409 5.98839C21.6244 6.17186 21.7276 6.42056 21.7281 6.68002V21.2765C21.7276 21.5359 21.6244 21.7846 21.4409 21.9681C21.2574 22.1516 21.0087 22.2548 20.7493 22.2553ZM0.97882 6.04121C0.810308 6.04121 0.648698 6.10815 0.529542 6.22731C0.410386 6.34647 0.343446 6.50808 0.343446 6.67659V21.273C0.343446 21.4415 0.410386 21.6032 0.529542 21.7223C0.648698 21.8415 0.810308 21.9084 0.97882 21.9084H20.7493C20.9178 21.9084 21.0794 21.8415 21.1986 21.7223C21.3177 21.6032 21.3846 21.4415 21.3846 21.273V6.67659C21.3846 6.50808 21.3177 6.34647 21.1986 6.22731C21.0794 6.10815 20.9178 6.04121 20.7493 6.04121H0.97882Z" fill="#093F68"/>
<path d="M9.39325 11.0864C9.35331 11.0873 9.31432 11.0743 9.28298 11.0495C9.25163 11.0247 9.2299 10.9898 9.22152 10.9508L8.85232 9.24727C8.75627 8.75553 8.85681 8.24572 9.13235 7.82725C9.40789 7.40878 9.83649 7.11499 10.3262 7.00892C10.8159 6.90285 11.3276 6.99295 11.7516 7.25988C12.1756 7.52682 12.4781 7.94933 12.5942 8.43674C12.5989 8.45929 12.5991 8.48255 12.5949 8.5052C12.5906 8.52785 12.582 8.54943 12.5694 8.56873C12.5568 8.58802 12.5405 8.60465 12.5215 8.61765C12.5024 8.63066 12.4811 8.63979 12.4585 8.64453C12.4359 8.64926 12.4127 8.64951 12.39 8.64525C12.3674 8.641 12.3458 8.63233 12.3265 8.61973C12.3072 8.60713 12.2906 8.59086 12.2776 8.57183C12.2646 8.55281 12.2555 8.53141 12.2507 8.50886C12.1848 8.20552 12.0303 7.92855 11.807 7.71298C11.5836 7.49741 11.3013 7.35291 10.9958 7.29777C10.6903 7.24262 10.3753 7.27931 10.0907 7.40318C9.80605 7.52706 9.56453 7.73256 9.39668 7.9937C9.2841 8.16676 9.20714 8.36053 9.17028 8.56368C9.13343 8.76683 9.13742 8.97528 9.18203 9.17687L9.55123 10.8804C9.5604 10.9247 9.55164 10.971 9.52687 11.0089C9.5021 11.0469 9.46333 11.0735 9.41901 11.083C9.41055 11.085 9.40192 11.0861 9.39325 11.0864Z" fill="#093F68"/>
<path d="M8.40241 10.585H13.3566V13.3326C13.3566 13.5396 13.3158 13.7446 13.2366 13.9358C13.1574 14.1271 13.0413 14.3009 12.8949 14.4473C12.7485 14.5936 12.5747 14.7098 12.3835 14.789C12.1922 14.8682 11.9872 14.909 11.7802 14.909H9.97711C9.7701 14.909 9.56511 14.8682 9.37385 14.789C9.18259 14.7098 9.0088 14.5936 8.86242 14.4473C8.71603 14.3009 8.59992 14.1271 8.52069 13.9358C8.44147 13.7446 8.4007 13.5396 8.4007 13.3326V10.585H8.40241Z" fill="#68E1FD"/>
<path d="M11.7819 15.079H9.97882C9.51546 15.0781 9.07135 14.8936 8.7437 14.566C8.41606 14.2383 8.23159 13.7942 8.23068 13.3308V10.5833C8.23068 10.5377 8.24877 10.4941 8.28098 10.4619C8.31318 10.4297 8.35686 10.4116 8.40241 10.4116H13.3583C13.4039 10.4116 13.4476 10.4297 13.4798 10.4619C13.512 10.4941 13.5301 10.5377 13.5301 10.5833V13.3308C13.5291 13.7942 13.3447 14.2383 13.017 14.566C12.6894 14.8936 12.2453 15.0781 11.7819 15.079ZM8.57413 10.7567V13.3326C8.57458 13.705 8.72272 14.062 8.98606 14.3253C9.24939 14.5887 9.60641 14.7368 9.97882 14.7373H11.7819C12.1543 14.7368 12.5113 14.5887 12.7747 14.3253C13.038 14.062 13.1862 13.705 13.1866 13.3326V10.7567H8.57413Z" fill="#093F68"/>
<path d="M10.9095 12.5907C11.1903 12.5907 11.4178 12.3632 11.4178 12.0824C11.4178 11.8017 11.1903 11.5741 10.9095 11.5741C10.6288 11.5741 10.4012 11.8017 10.4012 12.0824C10.4012 12.3632 10.6288 12.5907 10.9095 12.5907Z" fill="#093F68"/>
<path d="M10.9095 12.7676C10.7737 12.7676 10.6409 12.7273 10.5279 12.6519C10.415 12.5764 10.3269 12.4691 10.2749 12.3436C10.223 12.2181 10.2094 12.08 10.2359 11.9467C10.2624 11.8135 10.3278 11.6911 10.4238 11.595C10.5199 11.499 10.6423 11.4335 10.7755 11.407C10.9088 11.3805 11.0469 11.3941 11.1724 11.4461C11.2979 11.4981 11.4052 11.5861 11.4807 11.6991C11.5562 11.8121 11.5964 11.9449 11.5964 12.0807C11.5964 12.2629 11.5241 12.4376 11.3953 12.5664C11.2664 12.6952 11.0917 12.7676 10.9095 12.7676ZM10.9095 11.7527C10.8416 11.7527 10.7752 11.7729 10.7187 11.8106C10.6623 11.8483 10.6182 11.902 10.5922 11.9647C10.5663 12.0275 10.5595 12.0966 10.5727 12.1632C10.586 12.2298 10.6187 12.291 10.6667 12.339C10.7147 12.3871 10.7759 12.4198 10.8425 12.433C10.9092 12.4463 10.9782 12.4395 11.041 12.4135C11.1037 12.3875 11.1574 12.3435 11.1951 12.287C11.2329 12.2305 11.253 12.1641 11.253 12.0962C11.2539 12.0505 11.2457 12.0051 11.2289 11.9626C11.212 11.9202 11.1868 11.8815 11.1549 11.8489C11.1229 11.8162 11.0847 11.7903 11.0426 11.7726C11.0005 11.755 10.9552 11.7459 10.9095 11.7459V11.7527Z" fill="#093F68"/>
<path d="M10.9095 13.9697C10.864 13.9697 10.8203 13.9516 10.7881 13.9194C10.7559 13.8872 10.7378 13.8435 10.7378 13.7979V12.2748C10.7378 12.2292 10.7559 12.1855 10.7881 12.1533C10.8203 12.1211 10.864 12.103 10.9095 12.103C10.9551 12.103 10.9988 12.1211 11.031 12.1533C11.0632 12.1855 11.0813 12.2292 11.0813 12.2748V13.7979C11.0813 13.8435 11.0632 13.8872 11.031 13.9194C10.9988 13.9516 10.9551 13.9697 10.9095 13.9697Z" fill="#093F68"/>
<path d="M22.8426 10.3102C23.2922 10.3359 23.7287 10.4717 24.1135 10.7057C24.4984 10.9398 24.8198 11.2648 25.0495 11.6522C25.2791 12.0397 25.41 12.4776 25.4307 12.9275C25.4513 13.3775 25.361 13.8256 25.1677 14.2324C24.9309 14.7404 24.5413 15.1617 24.0532 15.4373C23.5652 15.7128 23.0032 15.8289 22.4459 15.7693C21.9694 15.7329 21.5116 15.5682 21.121 15.2928C20.7304 15.0174 20.4216 14.6415 20.2272 14.2049C20.186 14.1208 20.1379 14.0727 20.0418 14.0864C19.6639 14.1322 19.2822 14.0401 18.9668 13.8271L18.9462 13.8151C18.9204 13.7976 18.8896 13.7891 18.8586 13.791C18.8275 13.7928 18.7979 13.805 18.7745 13.8254C18.6027 13.9405 18.431 14.0452 18.2747 14.1689C18.2429 14.1988 18.2008 14.2155 18.1571 14.2155C18.1134 14.2155 18.0713 14.1988 18.0395 14.1689C17.8832 14.0555 17.7184 13.9559 17.5604 13.846C17.5363 13.8259 17.5059 13.8149 17.4745 13.8149C17.4431 13.8149 17.4127 13.8259 17.3887 13.846C17.2169 13.9628 17.0452 14.0693 16.8735 14.1895C16.8594 14.2049 16.8419 14.2168 16.8223 14.2242C16.8027 14.2316 16.7817 14.2342 16.7609 14.2318C16.7401 14.2295 16.7202 14.2222 16.7027 14.2107C16.6853 14.1992 16.6708 14.1836 16.6606 14.1654C16.573 14.0641 16.4699 13.9748 16.3772 13.8769C16.3686 13.8643 16.3572 13.8538 16.3441 13.846C16.3309 13.8382 16.3162 13.8334 16.301 13.832C16.2857 13.8305 16.2704 13.8324 16.256 13.8375C16.2416 13.8426 16.2284 13.8508 16.2175 13.8615C16.0595 13.9714 15.8964 14.0744 15.7384 14.1843C15.7133 14.2078 15.6801 14.2209 15.6457 14.2209C15.6112 14.2209 15.5781 14.2078 15.5529 14.1843C15.1958 13.9141 14.8369 13.6468 14.4762 13.3824C14.399 13.3257 14.3904 13.2862 14.4642 13.2106C14.7928 12.8889 15.1168 12.5644 15.4362 12.237C15.472 12.1974 15.5161 12.1662 15.5654 12.1457C15.6147 12.1252 15.6679 12.1159 15.7212 12.1185H19.9662C20.0148 12.124 20.0638 12.1124 20.1048 12.0858C20.1459 12.0592 20.1764 12.0191 20.1912 11.9725C20.6806 10.901 21.5323 10.3635 22.6966 10.2982L22.8426 10.3102ZM22.9284 12.1442C22.8069 12.1389 22.6854 12.1583 22.5715 12.2012C22.4576 12.244 22.3536 12.3095 22.2657 12.3937C22.1778 12.4778 22.1078 12.5789 22.06 12.6908C22.0122 12.8028 21.9876 12.9232 21.9876 13.0449C21.9876 13.1666 22.0122 13.2871 22.06 13.399C22.1078 13.5109 22.1778 13.612 22.2657 13.6962C22.3536 13.7803 22.4576 13.8458 22.5715 13.8887C22.6854 13.9316 22.8069 13.9509 22.9284 13.9456C23.1605 13.9355 23.3797 13.8362 23.5404 13.6684C23.701 13.5005 23.7907 13.2772 23.7907 13.0449C23.7907 12.8126 23.701 12.5893 23.5404 12.4215C23.3797 12.2537 23.1605 12.1544 22.9284 12.1442Z" fill="#FFBC0E"/>
<path d="M22.7189 15.9565C22.6197 15.9564 22.5206 15.9513 22.4219 15.941C21.9159 15.9023 21.4299 15.7276 21.0151 15.4353C20.6004 15.1429 20.2724 14.7439 20.0658 14.2805C20.0658 14.2702 20.0572 14.2616 20.0538 14.2564C19.6369 14.3064 19.2159 14.2053 18.8672 13.9714C18.7831 14.0298 18.7092 14.0779 18.6354 14.1259C18.5615 14.174 18.4637 14.2444 18.3709 14.3062C18.3092 14.3576 18.2314 14.3858 18.1511 14.3858C18.0708 14.3858 17.993 14.3576 17.9313 14.3062C17.8472 14.2444 17.7596 14.186 17.6703 14.1345L17.4677 13.9989C17.3921 14.0521 17.3217 14.0967 17.253 14.1431C17.1586 14.2049 17.0641 14.2667 16.9714 14.3337C16.9399 14.3615 16.9029 14.3825 16.8629 14.3951C16.8228 14.4078 16.7806 14.4119 16.7388 14.4072C16.6971 14.4025 16.6568 14.3891 16.6205 14.3679C16.5843 14.3466 16.5529 14.318 16.5283 14.2839C16.4803 14.2307 16.4287 14.1792 16.3772 14.1294L16.2793 14.0315C16.2055 14.0813 16.1368 14.1277 16.0664 14.1723C15.996 14.2169 15.9101 14.2771 15.8329 14.3303C15.7782 14.3752 15.7096 14.3998 15.6388 14.3998C15.568 14.3998 15.4995 14.3752 15.4448 14.3303C15.0899 14.0613 14.7321 13.7945 14.3715 13.5301C14.3355 13.5077 14.305 13.4776 14.2821 13.4419C14.2593 13.4063 14.2446 13.366 14.2393 13.324C14.2381 13.2815 14.2466 13.2394 14.2642 13.2007C14.2817 13.162 14.3079 13.1278 14.3406 13.1008C14.6978 12.7573 15.0155 12.4327 15.3108 12.1305C15.3623 12.0747 15.4251 12.0306 15.4949 12.001C15.5648 11.9714 15.6402 11.957 15.7161 11.9588H17.7579H19.9645C19.9787 11.9609 19.9932 11.9609 20.0074 11.9588C20.0178 11.9472 20.026 11.9338 20.0315 11.9193C20.5381 10.81 21.431 10.2141 22.6846 10.1437C22.6914 10.1428 22.6984 10.1428 22.7052 10.1437H22.7602H22.8512C23.2679 10.1541 23.6769 10.2593 24.047 10.4512C24.4171 10.6431 24.7387 10.9167 24.9874 11.2513C25.334 11.6744 25.5497 12.1895 25.6079 12.7333C25.6662 13.2772 25.5645 13.8262 25.3154 14.3131C25.0834 14.8054 24.716 15.2214 24.2562 15.5125C23.7964 15.8035 23.2631 15.9575 22.7189 15.9565ZM20.0658 13.9113C20.133 13.9134 20.1982 13.9352 20.2531 13.9739C20.3081 14.0127 20.3504 14.0667 20.3749 14.1294C20.557 14.5393 20.8466 14.8924 21.213 15.1512C21.5794 15.41 22.009 15.5648 22.4562 15.5993C22.9779 15.6544 23.5038 15.5454 23.9606 15.2875C24.4174 15.0295 24.7823 14.6355 25.0046 14.1603C25.2272 13.7304 25.3177 13.2443 25.2649 12.7631C25.212 12.2818 25.0181 11.827 24.7075 11.4556C24.4871 11.1607 24.2026 10.9197 23.8753 10.751C23.548 10.5823 23.1866 10.4903 22.8185 10.482H22.7207H22.6777C21.5512 10.5472 20.7888 11.0624 20.3268 12.0567C20.2991 12.1331 20.2472 12.1984 20.179 12.2427C20.1109 12.287 20.0301 12.3079 19.9491 12.3022H17.7441H15.7075C15.6776 12.2998 15.6476 12.3044 15.6198 12.3158C15.5921 12.3271 15.5674 12.3448 15.5478 12.3675C15.2662 12.6577 14.9639 12.9599 14.6239 13.2931C14.9674 13.5427 15.304 13.7939 15.6337 14.0469C15.7178 13.9886 15.7934 13.9388 15.8689 13.8907L16.1076 13.7293C16.1637 13.6839 16.2355 13.6626 16.3072 13.67C16.379 13.6774 16.4449 13.7129 16.4906 13.7688L16.609 13.8872C16.664 13.9405 16.7189 13.9954 16.7705 14.059C16.8632 13.9903 16.9594 13.9285 17.0555 13.8649L17.2719 13.719C17.3251 13.6773 17.3907 13.6547 17.4582 13.6547C17.5258 13.6547 17.5914 13.6773 17.6445 13.719L17.8506 13.8563C17.9433 13.9182 18.0378 13.9783 18.1271 14.0452C18.1271 14.0452 18.1391 14.0452 18.1408 14.0555L18.1614 14.0418C18.2524 13.9765 18.3452 13.9147 18.4379 13.8529C18.5306 13.7911 18.5873 13.755 18.6611 13.7035C18.7127 13.6628 18.7757 13.6392 18.8413 13.6361C18.9069 13.6331 18.9718 13.6506 19.0269 13.6863L19.0527 13.7001C19.3338 13.893 19.676 13.9761 20.0143 13.9336L20.0658 13.9113ZM22.925 14.1173C22.6364 14.1171 22.3597 14.0022 22.1557 13.7979C22.056 13.6995 21.9769 13.5821 21.9233 13.4526C21.8696 13.3231 21.8424 13.1842 21.8432 13.0441C21.8459 12.7607 21.96 12.4899 22.1608 12.29C22.3616 12.0901 22.6331 11.9773 22.9164 11.976C23.0565 11.9745 23.1954 12.0009 23.3251 12.0536C23.4549 12.1064 23.5728 12.1845 23.672 12.2833C23.8209 12.4336 23.9224 12.6244 23.9637 12.8318C24.005 13.0393 23.9844 13.2544 23.9044 13.4502C23.8244 13.6461 23.6886 13.8141 23.5138 13.9333C23.3391 14.0525 23.1331 14.1177 22.9216 14.1208L22.925 14.1173ZM22.925 12.316C22.7322 12.3173 22.5476 12.3944 22.411 12.5306C22.2745 12.6668 22.197 12.8512 22.1952 13.0441C22.194 13.1399 22.2123 13.2349 22.2489 13.3235C22.2855 13.412 22.3397 13.4922 22.4081 13.5593C22.5467 13.6993 22.7349 13.7789 22.9319 13.7808C23.0272 13.7812 23.1217 13.7627 23.2098 13.7261C23.2979 13.6896 23.3777 13.6359 23.4448 13.568C23.5118 13.5002 23.5646 13.4197 23.6001 13.3312C23.6355 13.2427 23.653 13.148 23.6514 13.0527C23.652 12.8597 23.5761 12.6745 23.4402 12.5375C23.3724 12.4705 23.2919 12.4176 23.2035 12.3819C23.115 12.3462 23.0204 12.3285 22.925 12.3297V12.316Z" fill="#093F68"/>
<path d="M17.3887 20.6514H4.33773C3.90141 20.6505 3.48323 20.4766 3.17486 20.1679C2.86649 19.8593 2.69308 19.4409 2.69263 19.0046V17.7098C2.69308 17.2735 2.86649 16.8551 3.17486 16.5464C3.48323 16.2377 3.90141 16.0639 4.33773 16.063H17.3887C17.825 16.0639 18.2432 16.2377 18.5515 16.5464C18.8599 16.8551 19.0333 17.2735 19.0338 17.7098V19.0046C19.0333 19.4409 18.8599 19.8593 18.5515 20.1679C18.2432 20.4766 17.825 20.6505 17.3887 20.6514ZM4.33773 16.4064C3.99235 16.4069 3.66127 16.5444 3.41721 16.7888C3.17315 17.0331 3.03607 17.3644 3.03607 17.7098V19.0046C3.03653 19.3498 3.17376 19.6808 3.41772 19.9251C3.66168 20.1694 3.99249 20.307 4.33773 20.3079H17.3887C17.7339 20.307 18.0647 20.1694 18.3087 19.9251C18.5526 19.6808 18.6899 19.3498 18.6903 19.0046V17.7098C18.6903 17.3644 18.5532 17.0331 18.3092 16.7888C18.0651 16.5444 17.7341 16.4069 17.3887 16.4064H4.33773Z" fill="#DFEAEF"/>
<path d="M5.41098 19.6365C5.36544 19.6365 5.32176 19.6184 5.28955 19.5862C5.25735 19.554 5.23926 19.5103 5.23926 19.4648V17.2513C5.23926 17.2057 5.25735 17.1621 5.28955 17.1299C5.32176 17.0977 5.36544 17.0796 5.41098 17.0796C5.45652 17.0796 5.5002 17.0977 5.53241 17.1299C5.56461 17.1621 5.5827 17.2057 5.5827 17.2513V19.4648C5.5827 19.5103 5.56461 19.554 5.53241 19.5862C5.5002 19.6184 5.45652 19.6365 5.41098 19.6365Z" fill="#093F68"/>
<path d="M4.44933 19.0716C4.41907 19.0717 4.38932 19.0638 4.36308 19.0487C4.33685 19.0336 4.31506 19.0119 4.29993 18.9857C4.28865 18.966 4.28138 18.9442 4.27856 18.9217C4.27573 18.8992 4.2774 18.8763 4.28347 18.8544C4.28954 18.8326 4.29988 18.8121 4.31391 18.7943C4.32794 18.7764 4.34537 18.7615 4.36519 18.7504L6.28849 17.6634C6.32834 17.6407 6.3756 17.6346 6.41988 17.6467C6.46416 17.6588 6.50183 17.688 6.5246 17.7278C6.54738 17.7677 6.55338 17.8149 6.54131 17.8592C6.52923 17.9035 6.50006 17.9412 6.46021 17.9639L4.53519 19.0492C4.50902 19.0641 4.47941 19.0718 4.44933 19.0716Z" fill="#093F68"/>
<path d="M6.37263 19.0716C6.34313 19.0715 6.31415 19.0638 6.28849 19.0492L4.36519 17.9639C4.34537 17.9529 4.32794 17.938 4.31391 17.9201C4.29988 17.9023 4.28954 17.8818 4.28347 17.8599C4.2774 17.838 4.27573 17.8152 4.27856 17.7927C4.28138 17.7701 4.28865 17.7484 4.29993 17.7287C4.3223 17.6891 4.35944 17.66 4.40322 17.6478C4.447 17.6356 4.49384 17.6412 4.53348 17.6634L6.45849 18.7504C6.49157 18.7692 6.5175 18.7984 6.5322 18.8334C6.5469 18.8685 6.54955 18.9075 6.53972 18.9442C6.5299 18.9809 6.50817 19.0134 6.47793 19.0364C6.44769 19.0595 6.41065 19.0718 6.37263 19.0716Z" fill="#093F68"/>
<path d="M9.04636 19.6365C9.00081 19.6365 8.95713 19.6184 8.92493 19.5862C8.89273 19.554 8.87463 19.5103 8.87463 19.4648V17.2513C8.87463 17.2057 8.89273 17.1621 8.92493 17.1299C8.95713 17.0977 9.00081 17.0796 9.04636 17.0796C9.0919 17.0796 9.13558 17.0977 9.16778 17.1299C9.19999 17.1621 9.21808 17.2057 9.21808 17.2513V19.4648C9.21808 19.5103 9.19999 19.554 9.16778 19.5862C9.13558 19.6184 9.0919 19.6365 9.04636 19.6365Z" fill="#093F68"/>
<path d="M8.08473 19.0716C8.0467 19.0718 8.00967 19.0595 7.97943 19.0364C7.94919 19.0134 7.92745 18.9809 7.91763 18.9442C7.90781 18.9075 7.91046 18.8685 7.92516 18.8334C7.93986 18.7984 7.96578 18.7692 7.99887 18.7504L9.92388 17.6634C9.96373 17.6407 10.011 17.6346 10.0553 17.6467C10.0996 17.6588 10.1372 17.688 10.16 17.7278C10.1828 17.7677 10.1888 17.8149 10.1767 17.8592C10.1646 17.9035 10.1355 17.9412 10.0956 17.9639L8.17231 19.0492C8.14563 19.0644 8.11539 19.0721 8.08473 19.0716Z" fill="#093F68"/>
<path d="M10.008 19.0716C9.97851 19.0715 9.94953 19.0638 9.92386 19.0492L7.99885 17.9639C7.959 17.9412 7.92983 17.9035 7.91775 17.8592C7.90567 17.8149 7.91168 17.7677 7.93445 17.7278C7.95723 17.688 7.9949 17.6588 8.03918 17.6467C8.08346 17.6346 8.13072 17.6407 8.17057 17.6634L10.0939 18.7504C10.1268 18.7691 10.1527 18.7982 10.1674 18.833C10.1821 18.8679 10.1849 18.9067 10.1753 18.9434C10.1657 18.98 10.1443 19.0124 10.1143 19.0356C10.0844 19.0588 10.0476 19.0714 10.0097 19.0716H10.008Z" fill="#093F68"/>
<path d="M12.6817 19.6365C12.6362 19.6365 12.5925 19.6184 12.5603 19.5862C12.5281 19.554 12.51 19.5103 12.51 19.4648V17.2513C12.51 17.2057 12.5281 17.1621 12.5603 17.1299C12.5925 17.0977 12.6362 17.0796 12.6817 17.0796C12.7273 17.0796 12.771 17.0977 12.8032 17.1299C12.8354 17.1621 12.8535 17.2057 12.8535 17.2513V19.4648C12.8535 19.5103 12.8354 19.554 12.8032 19.5862C12.771 19.6184 12.7273 19.6365 12.6817 19.6365Z" fill="#093F68"/>
<path d="M11.7201 19.0716C11.6894 19.0718 11.6591 19.0638 11.6326 19.0484C11.606 19.033 11.584 19.0108 11.569 18.984C11.5467 18.9443 11.5411 18.8975 11.5533 18.8537C11.5656 18.8099 11.5947 18.7728 11.6342 18.7504L13.5592 17.6634C13.5991 17.6407 13.6464 17.6346 13.6906 17.6467C13.7349 17.6588 13.7726 17.688 13.7954 17.7278C13.8181 17.7677 13.8241 17.8149 13.8121 17.8592C13.8 17.9035 13.7708 17.9412 13.731 17.9639L11.8077 19.0492C11.781 19.0644 11.7507 19.0721 11.7201 19.0716Z" fill="#093F68"/>
<path d="M13.6434 19.0716C13.6139 19.0715 13.5849 19.0638 13.5592 19.0492L11.6342 17.9639C11.6145 17.9527 11.5972 17.9376 11.5833 17.9196C11.5693 17.9017 11.5591 17.8811 11.5531 17.8592C11.5471 17.8373 11.5455 17.8144 11.5484 17.7919C11.5513 17.7693 11.5586 17.7476 11.5698 17.7278C11.5811 17.7081 11.5962 17.6908 11.6141 17.6769C11.6321 17.6629 11.6526 17.6527 11.6746 17.6467C11.6965 17.6407 11.7194 17.6391 11.7419 17.642C11.7645 17.6449 11.7862 17.6521 11.8059 17.6634L13.7292 18.7504C13.7622 18.7691 13.7881 18.7982 13.8028 18.833C13.8175 18.8679 13.8203 18.9067 13.8107 18.9434C13.8011 18.98 13.7796 19.0124 13.7497 19.0356C13.7198 19.0588 13.683 19.0714 13.6451 19.0716H13.6434Z" fill="#093F68"/>
<path d="M16.3171 19.6365C16.2716 19.6365 16.2279 19.6184 16.1957 19.5862C16.1635 19.554 16.1454 19.5103 16.1454 19.4648V17.2513C16.1454 17.2057 16.1635 17.1621 16.1957 17.1299C16.2279 17.0977 16.2716 17.0796 16.3171 17.0796C16.3627 17.0796 16.4063 17.0977 16.4385 17.1299C16.4707 17.1621 16.4888 17.2057 16.4888 17.2513V19.4648C16.4888 19.5103 16.4707 19.554 16.4385 19.5862C16.4063 19.6184 16.3627 19.6365 16.3171 19.6365Z" fill="#093F68"/>
<path d="M15.3555 19.0716C15.3247 19.0718 15.2945 19.0638 15.2679 19.0484C15.2414 19.033 15.2194 19.0108 15.2043 18.984C15.1821 18.9443 15.1765 18.8975 15.1887 18.8537C15.2009 18.8099 15.23 18.7728 15.2696 18.7504L17.1946 17.6634C17.2343 17.6412 17.2811 17.6356 17.3249 17.6478C17.3687 17.66 17.4058 17.6891 17.4282 17.7287C17.4394 17.7484 17.4467 17.7701 17.4495 17.7927C17.4524 17.8152 17.4507 17.838 17.4446 17.8599C17.4386 17.8818 17.4282 17.9023 17.4142 17.9201C17.4002 17.938 17.3827 17.9529 17.3629 17.9639L15.4396 19.0492C15.4139 19.0638 15.385 19.0715 15.3555 19.0716Z" fill="#093F68"/>
<path d="M17.2788 19.0716C17.2493 19.0715 17.2203 19.0638 17.1946 19.0492L15.2696 17.9639C15.2297 17.9412 15.2006 17.9035 15.1885 17.8592C15.1764 17.8149 15.1824 17.7677 15.2052 17.7278C15.228 17.688 15.2656 17.6588 15.3099 17.6467C15.3542 17.6346 15.4015 17.6407 15.4413 17.6634L17.3646 18.7504C17.4042 18.7728 17.4333 18.8099 17.4455 18.8537C17.4577 18.8975 17.4521 18.9443 17.4299 18.984C17.4148 19.0108 17.3929 19.033 17.3663 19.0484C17.3397 19.0638 17.3095 19.0718 17.2788 19.0716Z" fill="#093F68"/>
<path d="M13.858 28.9576C13.6858 28.9576 13.5175 28.9066 13.3743 28.8109C13.2312 28.7152 13.1196 28.5793 13.0537 28.4202C12.9878 28.2611 12.9705 28.086 13.0041 27.9172C13.0377 27.7483 13.1206 27.5931 13.2424 27.4714C13.3642 27.3496 13.5193 27.2667 13.6882 27.2331C13.8571 27.1995 14.0321 27.2167 14.1912 27.2826C14.3503 27.3485 14.4863 27.4601 14.5819 27.6033C14.6776 27.7465 14.7287 27.9148 14.7287 28.087C14.7282 28.3178 14.6363 28.539 14.4732 28.7021C14.31 28.8653 14.0888 28.9572 13.858 28.9576ZM13.858 27.5615C13.7537 27.5615 13.6517 27.5925 13.565 27.6505C13.4782 27.7085 13.4107 27.7909 13.3708 27.8874C13.331 27.9838 13.3206 28.0899 13.3411 28.1922C13.3616 28.2945 13.412 28.3885 13.4859 28.4621C13.5598 28.5358 13.6539 28.5858 13.7562 28.606C13.8586 28.6261 13.9647 28.6155 14.061 28.5753C14.1573 28.5351 14.2395 28.4673 14.2972 28.3804C14.3549 28.2934 14.3856 28.1913 14.3852 28.087C14.3848 27.9475 14.329 27.8138 14.2302 27.7153C14.1314 27.6168 13.9976 27.5615 13.858 27.5615Z" fill="#093F68"/>
<path d="M15.7178 1.63138H13.0441C12.9985 1.63138 12.9548 1.61329 12.9226 1.58108C12.8904 1.54888 12.8723 1.5052 12.8723 1.45966C12.8723 1.41411 12.8904 1.37043 12.9226 1.33823C12.9548 1.30603 12.9985 1.28793 13.0441 1.28793H15.7178C15.7633 1.28793 15.807 1.30603 15.8392 1.33823C15.8714 1.37043 15.8895 1.41411 15.8895 1.45966C15.8895 1.5052 15.8714 1.54888 15.8392 1.58108C15.807 1.61329 15.7633 1.63138 15.7178 1.63138Z" fill="#093F68"/>
<path d="M12.4155 1.63138H11.9983C11.9527 1.63138 11.909 1.61329 11.8768 1.58108C11.8446 1.54888 11.8265 1.5052 11.8265 1.45966C11.8265 1.41411 11.8446 1.37043 11.8768 1.33823C11.909 1.30603 11.9527 1.28793 11.9983 1.28793H12.4155C12.4611 1.28793 12.5048 1.30603 12.537 1.33823C12.5692 1.37043 12.5873 1.41411 12.5873 1.45966C12.5873 1.5052 12.5692 1.54888 12.537 1.58108C12.5048 1.61329 12.4611 1.63138 12.4155 1.63138Z" fill="#093F68"/>
<path d="M7.19174 9.68691C7.15242 9.68707 7.11423 9.67374 7.08356 9.64913L6.10474 8.86092C6.0871 8.84675 6.07243 8.82923 6.06158 8.80937C6.05073 8.78952 6.04392 8.76771 6.04152 8.74521C6.03913 8.72271 6.0412 8.69996 6.04763 8.67826C6.05406 8.65657 6.06471 8.63635 6.07898 8.61879C6.10756 8.58367 6.14886 8.56125 6.19388 8.55643C6.23891 8.5516 6.28402 8.56476 6.31939 8.59303L7.29821 9.38124C7.31598 9.39529 7.33079 9.41271 7.3418 9.43251C7.3528 9.4523 7.35978 9.47408 7.36234 9.49659C7.36489 9.51909 7.36297 9.54188 7.35668 9.56364C7.35039 9.5854 7.33985 9.6057 7.32569 9.62337C7.30952 9.64329 7.2891 9.65934 7.26592 9.67034C7.24274 9.68133 7.2174 9.68699 7.19174 9.68691Z" fill="#DFEAEF"/>
<path d="M6.70064 10.7567C6.6881 10.7584 6.6754 10.7584 6.66286 10.7567L5.37323 10.4734C5.35067 10.4685 5.3293 10.4593 5.31032 10.4462C5.29134 10.4331 5.27513 10.4163 5.26261 10.397C5.25009 10.3776 5.24151 10.3559 5.23736 10.3333C5.23321 10.3106 5.23357 10.2873 5.23842 10.2647C5.24327 10.2422 5.25251 10.2208 5.26562 10.2018C5.27873 10.1829 5.29545 10.1666 5.31482 10.1541C5.3342 10.1416 5.35585 10.133 5.37854 10.1289C5.40123 10.1247 5.42451 10.1251 5.44706 10.1299L6.73671 10.4133C6.78225 10.4181 6.82403 10.4407 6.85285 10.4763C6.88167 10.5119 6.89518 10.5575 6.8904 10.603C6.88561 10.6486 6.86293 10.6903 6.82735 10.7192C6.79176 10.748 6.74619 10.7615 6.70064 10.7567Z" fill="#DFEAEF"/>
<path d="M5.58615 12.4533C5.54061 12.4602 5.49422 12.4486 5.45718 12.4213C5.42015 12.3939 5.3955 12.3529 5.38867 12.3074C5.38184 12.2618 5.39338 12.2154 5.42075 12.1784C5.44813 12.1414 5.48909 12.1167 5.53464 12.1099L6.65084 11.7664C6.69433 11.753 6.74137 11.7574 6.78162 11.7787C6.82187 11.7999 6.85203 11.8363 6.86549 11.8798C6.8789 11.9233 6.8745 11.9703 6.85324 12.0106C6.83199 12.0508 6.79563 12.081 6.75215 12.0944L5.63767 12.4379C5.62141 12.4457 5.60403 12.4509 5.58615 12.4533Z" fill="#DFEAEF"/>
</svg>
