<svg width="32" height="19" viewBox="0 0 32 19" fill="none" xmlns="http://www.w3.org/2000/svg">
<path fill-rule="evenodd" clip-rule="evenodd" d="M8.74738 11.3706L18.712 0.348271C19.1318 -0.11609 19.8125 -0.11609 20.2323 0.348271L22.5423 2.90352C22.9621 3.36788 22.9621 4.12076 22.5423 4.58512L10.0504 18.403C9.33078 19.199 8.16398 19.199 7.44433 18.403L0.31485 10.5167C-0.10495 10.0523 -0.10495 9.29946 0.31485 8.8351L2.62489 6.27986C3.04469 5.8155 3.72532 5.8155 4.14512 6.27986L8.74738 11.3706ZM27.4286 3.36207e-07H29.7143C30.9767 3.36207e-07 32 1.06332 32 2.375C32 3.68668 30.9767 4.75 29.7143 4.75H27.4286C26.1662 4.75 25.1429 3.68668 25.1429 2.375C25.1429 1.06332 26.1662 3.36207e-07 27.4286 3.36207e-07ZM27.4286 7.125H29.7143C30.9767 7.125 32 8.18832 32 9.5C32 10.8117 30.9767 11.875 29.7143 11.875H27.4286C26.1662 11.875 25.1429 10.8117 25.1429 9.5C25.1429 8.18832 26.1662 7.125 27.4286 7.125ZM27.4286 14.25H29.7143C30.9767 14.25 32 15.3133 32 16.625C32 17.9367 30.9767 19 29.7143 19H27.4286C26.1662 19 25.1429 17.9367 25.1429 16.625C25.1429 15.3133 26.1662 14.25 27.4286 14.25Z" fill="#ABA62D"/>
</svg>
