<svg width="25" height="30" viewBox="0 0 25 30" fill="none" xmlns="http://www.w3.org/2000/svg">
<path d="M11.4923 0.0394336L23.9893 2.53881C24.5734 2.65566 24.9938 3.16853 24.9938 3.76423V26.2509C24.9938 26.8465 24.5734 27.3594 23.9893 27.4763L11.4923 29.9757C11.1252 30.0492 10.7445 29.954 10.4549 29.7168C10.1654 29.4793 9.99751 29.1247 9.99751 28.7503V1.26485C10.0453 0.842158 10.1978 0.520014 10.4549 0.298419C10.8407 -0.0339736 11.1252 -0.0339731 11.4923 0.0394336ZM7.49813 2.51454V27.5006H1.24969C0.636197 27.5006 0.125949 27.0584 0.0201342 26.4755L0 26.2509V3.76423C0 3.15074 0.442083 2.64049 1.02506 2.53468L1.24969 2.51454H7.49813ZM16.246 13.7578C15.5558 13.7578 14.9963 14.3173 14.9963 15.0075C14.9963 15.6977 15.5558 16.2571 16.246 16.2571C16.9361 16.2571 17.4956 15.6977 17.4956 15.0075C17.4956 14.3173 16.9361 13.7578 16.246 13.7578Z" fill="#2ED048"/>
</svg>
