<svg width="30" height="20" viewBox="0 0 30 20" fill="none" xmlns="http://www.w3.org/2000/svg">
<path d="M29.1303 0.130981H0.869717C0.461725 0.130981 0.130981 0.461725 0.130981 0.869717V18.6347C0.130981 19.0427 0.461725 19.3735 0.869717 19.3735H29.1303C29.5383 19.3735 29.869 19.0427 29.869 18.6347V0.869717C29.869 0.461725 29.5383 0.130981 29.1303 0.130981Z" fill="#68E1FD"/>
<path d="M29.1303 19.5031H0.869717C0.63916 19.5028 0.418145 19.4111 0.255117 19.248C0.0920882 19.085 0.000346442 18.864 0 18.6334V0.869717C0.000346442 0.63916 0.0920882 0.418145 0.255117 0.255117C0.418145 0.0920882 0.63916 0.000346442 0.869717 0H29.1303C29.3608 0.000346442 29.5819 0.0920882 29.7449 0.255117C29.9079 0.418145 29.9997 0.63916 30 0.869717V18.6334C29.9997 18.864 29.9079 19.085 29.7449 19.248C29.5819 19.4111 29.3608 19.5028 29.1303 19.5031ZM0.869717 0.261963C0.708531 0.261963 0.553946 0.325994 0.43997 0.43997C0.325994 0.553946 0.261963 0.708531 0.261963 0.869717V18.6334C0.261963 18.7946 0.325994 18.9492 0.43997 19.0632C0.553946 19.1772 0.708531 19.2412 0.869717 19.2412H29.1303C29.2915 19.2412 29.4461 19.1772 29.56 19.0632C29.674 18.9492 29.738 18.7946 29.738 18.6334V0.869717C29.738 0.708531 29.674 0.553946 29.56 0.43997C29.4461 0.325994 29.2915 0.261963 29.1303 0.261963H0.869717Z" fill="#093F68"/>
<path d="M0.130981 3.74347H29.8638V18.6334C29.8638 18.8294 29.786 19.0173 29.6474 19.1558C29.5089 19.2944 29.321 19.3722 29.125 19.3722H0.869717C0.673792 19.3722 0.485892 19.2944 0.347352 19.1558C0.208812 19.0173 0.130981 18.8294 0.130981 18.6334V3.74347Z" fill="white"/>
<path d="M29.1303 19.5032H0.869717C0.63916 19.5028 0.418145 19.4111 0.255117 19.248C0.0920882 19.085 0.000346442 18.864 0 18.6334V3.74347C0 3.70873 0.0137997 3.67542 0.0383635 3.65085C0.0629273 3.62629 0.096243 3.61249 0.130982 3.61249H29.8638C29.8985 3.61249 29.9318 3.62629 29.9564 3.65085C29.981 3.67542 29.9948 3.70873 29.9948 3.74347V18.6334C29.9944 18.8631 29.9034 19.0833 29.7415 19.2462C29.5796 19.4091 29.3599 19.5014 29.1303 19.5032ZM0.261963 3.87445V18.6334C0.261963 18.7946 0.325994 18.9492 0.43997 19.0632C0.553946 19.1772 0.708531 19.2412 0.869717 19.2412H29.1303C29.2915 19.2412 29.4461 19.1772 29.56 19.0632C29.674 18.9492 29.738 18.7946 29.738 18.6334V3.87445H0.261963Z" fill="#093F68"/>
<path d="M7.1136 19.5031C7.07886 19.5031 7.04555 19.4893 7.02098 19.4648C6.99642 19.4402 6.98262 19.4069 6.98262 19.3722V0.130982C6.98262 0.096243 6.99642 0.0629273 7.02098 0.0383635C7.04555 0.0137997 7.07886 0 7.1136 0C7.14834 0 7.18166 0.0137997 7.20622 0.0383635C7.23078 0.0629273 7.24458 0.096243 7.24458 0.130982V19.3722C7.24458 19.4069 7.23078 19.4402 7.20622 19.4648C7.18166 19.4893 7.14834 19.5031 7.1136 19.5031Z" fill="#093F68"/>
<path d="M15 19.5031C14.9653 19.5031 14.9319 19.4893 14.9074 19.4648C14.8828 19.4402 14.869 19.4069 14.869 19.3722V0.130982C14.869 0.096243 14.8828 0.0629273 14.9074 0.0383635C14.9319 0.0137997 14.9653 0 15 0C15.0347 0 15.0681 0.0137997 15.0926 0.0383635C15.1172 0.0629273 15.131 0.096243 15.131 0.130982V19.3722C15.131 19.4069 15.1172 19.4402 15.0926 19.4648C15.0681 19.4893 15.0347 19.5031 15 19.5031Z" fill="#093F68"/>
<path d="M22.8864 19.5031C22.8517 19.5031 22.8183 19.4893 22.7938 19.4648C22.7692 19.4402 22.7554 19.4069 22.7554 19.3722V0.130982C22.7554 0.096243 22.7692 0.0629273 22.7938 0.0383635C22.8183 0.0137997 22.8517 0 22.8864 0C22.9211 0 22.9545 0.0137997 22.979 0.0383635C23.0036 0.0629273 23.0174 0.096243 23.0174 0.130982V19.3722C23.0174 19.4069 23.0036 19.4402 22.979 19.4648C22.9545 19.4893 22.9211 19.5031 22.8864 19.5031Z" fill="#093F68"/>
<path d="M1.61761 5.36761H5.44882V8.91852H1.61761V5.36761Z" fill="#FFBC0E"/>
<path d="M5.44884 9.05081H1.61763C1.58289 9.05081 1.54958 9.03701 1.52501 9.01245C1.50045 8.98789 1.48665 8.95457 1.48665 8.91983V5.36761C1.48665 5.33288 1.50045 5.29956 1.52501 5.275C1.54958 5.25043 1.58289 5.23663 1.61763 5.23663H5.44884C5.48358 5.23663 5.51689 5.25043 5.54146 5.275C5.56602 5.29956 5.57982 5.33288 5.57982 5.36761V8.91983C5.57982 8.95457 5.56602 8.98789 5.54146 9.01245C5.51689 9.03701 5.48358 9.05081 5.44884 9.05081ZM1.74861 8.78885H5.31786V5.4986H1.74861V8.78885Z" fill="#093F68"/>
<path d="M9.24599 5.36761H13.0772V8.91852H9.24599V5.36761Z" fill="#FFBC0E"/>
<path d="M13.0772 9.05081H9.24599C9.21125 9.05081 9.17793 9.03701 9.15337 9.01245C9.12881 8.98789 9.11501 8.95457 9.11501 8.91983V5.36761C9.11501 5.33288 9.12881 5.29956 9.15337 5.275C9.17793 5.25043 9.21125 5.23663 9.24599 5.23663H13.0772C13.1119 5.23663 13.1452 5.25043 13.1698 5.275C13.1944 5.29956 13.2082 5.33288 13.2082 5.36761V8.91983C13.2082 8.95457 13.1944 8.98789 13.1698 9.01245C13.1452 9.03701 13.1119 9.05081 13.0772 9.05081ZM9.37697 8.78885H12.9462V5.4986H9.37697V8.78885Z" fill="#093F68"/>
<path d="M9.24599 9.78302H13.0772V13.3339H9.24599V9.78302Z" fill="#F56132"/>
<path d="M13.0772 13.4649H9.24599C9.21125 13.4649 9.17793 13.4511 9.15337 13.4265C9.12881 13.402 9.11501 13.3687 9.11501 13.3339V9.78302C9.11501 9.74828 9.12881 9.71497 9.15337 9.6904C9.17793 9.66584 9.21125 9.65204 9.24599 9.65204H13.0772C13.1119 9.65204 13.1452 9.66584 13.1698 9.6904C13.1944 9.71497 13.2082 9.74828 13.2082 9.78302V13.3339C13.2082 13.3687 13.1944 13.402 13.1698 13.4265C13.1452 13.4511 13.1119 13.4649 13.0772 13.4649ZM9.37697 13.2029H12.9462V9.914H9.37697V13.2029Z" fill="#093F68"/>
<path d="M17.0328 5.36761H20.864V8.91852H17.0328V5.36761Z" fill="#FFBC0E"/>
<path d="M20.8654 9.05081H17.0328C16.9981 9.05081 16.9648 9.03701 16.9402 9.01245C16.9157 8.98789 16.9019 8.95457 16.9019 8.91983V5.36761C16.9019 5.33288 16.9157 5.29956 16.9402 5.275C16.9648 5.25043 16.9981 5.23663 17.0328 5.23663H20.8654C20.9001 5.23663 20.9334 5.25043 20.958 5.275C20.9825 5.29956 20.9963 5.33288 20.9963 5.36761V8.91983C20.9963 8.95457 20.9825 8.98789 20.958 9.01245C20.9334 9.03701 20.9001 9.05081 20.8654 9.05081ZM17.1638 8.78885H20.7344V5.4986H17.1638V8.78885Z" fill="#093F68"/>
<path d="M17.0328 9.78302H20.864V13.3339H17.0328V9.78302Z" fill="#F56132"/>
<path d="M20.8654 13.4649H17.0328C16.9981 13.4649 16.9648 13.4511 16.9402 13.4265C16.9157 13.402 16.9019 13.3687 16.9019 13.3339V9.78302C16.9019 9.74828 16.9157 9.71497 16.9402 9.6904C16.9648 9.66584 16.9981 9.65204 17.0328 9.65204H20.8654C20.9001 9.65204 20.9334 9.66584 20.958 9.6904C20.9825 9.71497 20.9963 9.74828 20.9963 9.78302V13.3339C20.9963 13.3687 20.9825 13.402 20.958 13.4265C20.9334 13.4511 20.9001 13.4649 20.8654 13.4649ZM17.1638 13.2029H20.7344V9.914H17.1638V13.2029Z" fill="#093F68"/>
<path d="M24.432 5.36761H28.2632V8.91852H24.432V5.36761Z" fill="#70CC40"/>
<path d="M28.2632 9.05081H24.4307C24.3959 9.05081 24.3626 9.03701 24.3381 9.01245C24.3135 8.98789 24.2997 8.95457 24.2997 8.91983V5.36761C24.2997 5.33288 24.3135 5.29956 24.3381 5.275C24.3626 5.25043 24.3959 5.23663 24.4307 5.23663H28.2619C28.2966 5.23663 28.3299 5.25043 28.3545 5.275C28.3791 5.29956 28.3929 5.33288 28.3929 5.36761V8.91983C28.3929 8.95435 28.3793 8.98746 28.355 9.01199C28.3307 9.03652 28.2977 9.05047 28.2632 9.05081ZM24.563 8.78885H28.1322V5.4986H24.5617L24.563 8.78885Z" fill="#093F68"/>
<path d="M17.0328 14.1971H20.864V17.748H17.0328V14.1971Z" fill="#70CC40"/>
<path d="M20.8654 17.879H17.0328C16.9981 17.879 16.9648 17.8652 16.9402 17.8406C16.9157 17.816 16.9019 17.7827 16.9019 17.748V14.1971C16.9019 14.1623 16.9157 14.129 16.9402 14.1045C16.9648 14.0799 16.9981 14.0661 17.0328 14.0661H20.8654C20.9001 14.0661 20.9334 14.0799 20.958 14.1045C20.9825 14.129 20.9963 14.1623 20.9963 14.1971V17.748C20.9963 17.7827 20.9825 17.816 20.958 17.8406C20.9334 17.8652 20.9001 17.879 20.8654 17.879ZM17.1638 17.617H20.7344V14.3281H17.1638V17.617Z" fill="#093F68"/>
<path d="M4.78345 6.38666H2.30266C2.26792 6.38666 2.2346 6.37286 2.21004 6.34829C2.18548 6.32373 2.17168 6.29041 2.17168 6.25568C2.17168 6.22094 2.18548 6.18762 2.21004 6.16306C2.2346 6.13849 2.26792 6.12469 2.30266 6.12469H4.78345C4.81819 6.12469 4.8515 6.13849 4.87607 6.16306C4.90063 6.18762 4.91443 6.22094 4.91443 6.25568C4.91443 6.29041 4.90063 6.32373 4.87607 6.34829C4.8515 6.37286 4.81819 6.38666 4.78345 6.38666Z" fill="#093F68"/>
<path d="M4.78345 7.16992H2.30266C2.26792 7.16992 2.2346 7.15612 2.21004 7.13156C2.18548 7.10699 2.17168 7.07368 2.17168 7.03894C2.17168 7.0042 2.18548 6.97089 2.21004 6.94632C2.2346 6.92176 2.26792 6.90796 2.30266 6.90796H4.78345C4.81819 6.90796 4.8515 6.92176 4.87607 6.94632C4.90063 6.97089 4.91443 7.0042 4.91443 7.03894C4.91443 7.07368 4.90063 7.10699 4.87607 7.13156C4.8515 7.15612 4.81819 7.16992 4.78345 7.16992Z" fill="#093F68"/>
<path d="M4.23071 7.95184H2.30266C2.26792 7.95184 2.2346 7.93804 2.21004 7.91348C2.18548 7.88892 2.17168 7.8556 2.17168 7.82086C2.17168 7.78612 2.18548 7.75281 2.21004 7.72824C2.2346 7.70368 2.26792 7.68988 2.30266 7.68988H4.23071C4.26544 7.68988 4.29876 7.70368 4.32332 7.72824C4.34789 7.75281 4.36169 7.78612 4.36169 7.82086C4.36169 7.8556 4.34789 7.88892 4.32332 7.91348C4.29876 7.93804 4.26544 7.95184 4.23071 7.95184Z" fill="#093F68"/>
<path d="M12.4 10.9068H9.92316C9.88842 10.9068 9.8551 10.893 9.83054 10.8684C9.80597 10.8439 9.79218 10.8106 9.79218 10.7758C9.79218 10.7411 9.80597 10.7078 9.83054 10.6832C9.8551 10.6586 9.88842 10.6448 9.92316 10.6448H12.4C12.4348 10.6448 12.4681 10.6586 12.4926 10.6832C12.5172 10.7078 12.531 10.7411 12.531 10.7758C12.531 10.8106 12.5172 10.8439 12.4926 10.8684C12.4681 10.893 12.4348 10.9068 12.4 10.9068Z" fill="#093F68"/>
<path d="M12.4 11.6888H9.92316C9.88842 11.6888 9.8551 11.675 9.83054 11.6504C9.80597 11.6259 9.79218 11.5925 9.79218 11.5578C9.79218 11.5231 9.80597 11.4897 9.83054 11.4652C9.8551 11.4406 9.88842 11.4268 9.92316 11.4268H12.4C12.4348 11.4268 12.4681 11.4406 12.4926 11.4652C12.5172 11.4897 12.531 11.5231 12.531 11.5578C12.531 11.5925 12.5172 11.6259 12.4926 11.6504C12.4681 11.675 12.4348 11.6888 12.4 11.6888Z" fill="#093F68"/>
<path d="M11.8564 12.472H9.92316C9.88842 12.472 9.8551 12.4582 9.83054 12.4337C9.80597 12.4091 9.79218 12.3758 9.79218 12.3411C9.79218 12.3063 9.80597 12.273 9.83054 12.2484C9.8551 12.2239 9.88842 12.2101 9.92316 12.2101H11.8564C11.8912 12.2101 11.9245 12.2239 11.9491 12.2484C11.9736 12.273 11.9874 12.3063 11.9874 12.3411C11.9874 12.3758 11.9736 12.4091 11.9491 12.4337C11.9245 12.4582 11.8912 12.472 11.8564 12.472Z" fill="#093F68"/>
<path d="M20.1869 6.49146H17.7113C17.6766 6.49146 17.6433 6.47766 17.6187 6.45309C17.5941 6.42853 17.5803 6.39521 17.5803 6.36047C17.5803 6.32574 17.5941 6.29242 17.6187 6.26786C17.6433 6.24329 17.6766 6.22949 17.7113 6.22949H20.1869C20.2216 6.22949 20.2549 6.24329 20.2795 6.26786C20.3041 6.29242 20.3179 6.32574 20.3179 6.36047C20.3179 6.39521 20.3041 6.42853 20.2795 6.45309C20.2549 6.47766 20.2216 6.49146 20.1869 6.49146Z" fill="#093F68"/>
<path d="M20.1869 7.27472H17.7113C17.6766 7.27472 17.6433 7.26092 17.6187 7.23636C17.5941 7.21179 17.5803 7.17848 17.5803 7.14374C17.5803 7.109 17.5941 7.07568 17.6187 7.05112C17.6433 7.02656 17.6766 7.01276 17.7113 7.01276H20.1869C20.2216 7.01276 20.2549 7.02656 20.2795 7.05112C20.3041 7.07568 20.3179 7.109 20.3179 7.14374C20.3179 7.17848 20.3041 7.21179 20.2795 7.23636C20.2549 7.26092 20.2216 7.27472 20.1869 7.27472Z" fill="#093F68"/>
<path d="M19.6381 8.05798H17.7113C17.6766 8.05798 17.6433 8.04418 17.6187 8.01962C17.5941 7.99505 17.5803 7.96174 17.5803 7.927C17.5803 7.89226 17.5941 7.85895 17.6187 7.83438C17.6433 7.80982 17.6766 7.79602 17.7113 7.79602H19.6381C19.6728 7.79602 19.7061 7.80982 19.7307 7.83438C19.7552 7.85895 19.769 7.89226 19.769 7.927C19.769 7.96174 19.7552 7.99505 19.7307 8.01962C19.7061 8.04418 19.6728 8.05798 19.6381 8.05798Z" fill="#093F68"/>
<path d="M20.1869 15.3209H17.7113C17.6766 15.3209 17.6433 15.3071 17.6187 15.2826C17.5941 15.258 17.5803 15.2247 17.5803 15.1899C17.5803 15.1552 17.5941 15.1219 17.6187 15.0973C17.6433 15.0728 17.6766 15.059 17.7113 15.059H20.1869C20.2216 15.059 20.2549 15.0728 20.2795 15.0973C20.3041 15.1219 20.3179 15.1552 20.3179 15.1899C20.3179 15.2247 20.3041 15.258 20.2795 15.2826C20.2549 15.3071 20.2216 15.3209 20.1869 15.3209Z" fill="#093F68"/>
<path d="M20.1869 16.1042H17.7113C17.6766 16.1042 17.6433 16.0904 17.6187 16.0658C17.5941 16.0413 17.5803 16.0079 17.5803 15.9732C17.5803 15.9385 17.5941 15.9052 17.6187 15.8806C17.6433 15.856 17.6766 15.8422 17.7113 15.8422H20.1869C20.2216 15.8422 20.2549 15.856 20.2795 15.8806C20.3041 15.9052 20.3179 15.9385 20.3179 15.9732C20.3179 16.0079 20.3041 16.0413 20.2795 16.0658C20.2549 16.0904 20.2216 16.1042 20.1869 16.1042Z" fill="#093F68"/>
<path d="M19.6381 16.8862H17.7113C17.6766 16.8862 17.6433 16.8724 17.6187 16.8478C17.5941 16.8232 17.5803 16.7899 17.5803 16.7552C17.5803 16.7204 17.5941 16.6871 17.6187 16.6626C17.6433 16.638 17.6766 16.6242 17.7113 16.6242H19.6381C19.6728 16.6242 19.7061 16.638 19.7307 16.6626C19.7552 16.6871 19.769 16.7204 19.769 16.7552C19.769 16.7899 19.7552 16.8232 19.7307 16.8478C19.7061 16.8724 19.6728 16.8862 19.6381 16.8862Z" fill="#093F68"/>
<path d="M12.4 6.88306H9.92316C9.88842 6.88306 9.8551 6.86926 9.83054 6.84469C9.80597 6.82013 9.79218 6.78681 9.79218 6.75208C9.79218 6.71734 9.80597 6.68402 9.83054 6.65946C9.8551 6.63489 9.88842 6.62109 9.92316 6.62109H12.4C12.4348 6.62109 12.4681 6.63489 12.4926 6.65946C12.5172 6.68402 12.531 6.71734 12.531 6.75208C12.531 6.78681 12.5172 6.82013 12.4926 6.84469C12.4681 6.86926 12.4348 6.88306 12.4 6.88306Z" fill="#093F68"/>
<path d="M11.6482 7.66632H9.92316C9.88842 7.66632 9.8551 7.65252 9.83054 7.62796C9.80597 7.60339 9.79218 7.57008 9.79218 7.53534C9.79218 7.5006 9.80597 7.46729 9.83054 7.44272C9.8551 7.41816 9.88842 7.40436 9.92316 7.40436H11.6482C11.6829 7.40436 11.7162 7.41816 11.7408 7.44272C11.7654 7.46729 11.7792 7.5006 11.7792 7.53534C11.7792 7.57008 11.7654 7.60339 11.7408 7.62796C11.7162 7.65252 11.6829 7.66632 11.6482 7.66632Z" fill="#093F68"/>
<path d="M27.586 6.88306H25.1091C25.0744 6.88306 25.0411 6.86926 25.0165 6.84469C24.992 6.82013 24.9782 6.78681 24.9782 6.75208C24.9782 6.71734 24.992 6.68402 25.0165 6.65946C25.0411 6.63489 25.0744 6.62109 25.1091 6.62109H27.586C27.6207 6.62109 27.6541 6.63489 27.6786 6.65946C27.7032 6.68402 27.717 6.71734 27.717 6.75208C27.717 6.78681 27.7032 6.82013 27.6786 6.84469C27.6541 6.86926 27.6207 6.88306 27.586 6.88306Z" fill="#093F68"/>
<path d="M26.8329 7.66632H25.1091C25.0744 7.66632 25.0411 7.65252 25.0165 7.62796C24.992 7.60339 24.9782 7.57008 24.9782 7.53534C24.9782 7.5006 24.992 7.46729 25.0165 7.44272C25.0411 7.41816 25.0744 7.40436 25.1091 7.40436H26.8329C26.8676 7.40436 26.9009 7.41816 26.9255 7.44272C26.95 7.46729 26.9638 7.5006 26.9638 7.53534C26.9638 7.57008 26.95 7.60339 26.9255 7.62796C26.9009 7.65252 26.8676 7.66632 26.8329 7.66632Z" fill="#093F68"/>
<path d="M20.1869 11.2985H17.7113C17.6766 11.2985 17.6433 11.2847 17.6187 11.2601C17.5941 11.2355 17.5803 11.2022 17.5803 11.1675C17.5803 11.1327 17.5941 11.0994 17.6187 11.0749C17.6433 11.0503 17.6766 11.0365 17.7113 11.0365H20.1869C20.2216 11.0365 20.2549 11.0503 20.2795 11.0749C20.3041 11.0994 20.3179 11.1327 20.3179 11.1675C20.3179 11.2022 20.3041 11.2355 20.2795 11.2601C20.2549 11.2847 20.2216 11.2985 20.1869 11.2985Z" fill="#093F68"/>
<path d="M19.435 12.0804H17.7113C17.6766 12.0804 17.6433 12.0666 17.6187 12.0421C17.5941 12.0175 17.5803 11.9842 17.5803 11.9495C17.5803 11.9147 17.5941 11.8814 17.6187 11.8568C17.6433 11.8323 17.6766 11.8185 17.7113 11.8185H19.435C19.4698 11.8185 19.5031 11.8323 19.5277 11.8568C19.5522 11.8814 19.566 11.9147 19.566 11.9495C19.566 11.9842 19.5522 12.0175 19.5277 12.0421C19.5031 12.0666 19.4698 12.0804 19.435 12.0804Z" fill="#093F68"/>
<path d="M5.44883 11.2985H1.8822C1.84746 11.2985 1.81415 11.2847 1.78958 11.2601C1.76502 11.2355 1.75122 11.2022 1.75122 11.1675C1.75122 11.1327 1.76502 11.0994 1.78958 11.0749C1.81415 11.0503 1.84746 11.0365 1.8822 11.0365H5.44883C5.48357 11.0365 5.51688 11.0503 5.54145 11.0749C5.56601 11.0994 5.57981 11.1327 5.57981 11.1675C5.57981 11.2022 5.56601 11.2355 5.54145 11.2601C5.51688 11.2847 5.48357 11.2985 5.44883 11.2985Z" fill="#DFEAEF"/>
<path d="M5.44883 12.472H1.8822C1.84746 12.472 1.81415 12.4582 1.78958 12.4337C1.76502 12.4091 1.75122 12.3758 1.75122 12.3411C1.75122 12.3063 1.76502 12.273 1.78958 12.2484C1.81415 12.2239 1.84746 12.2101 1.8822 12.2101H5.44883C5.48357 12.2101 5.51688 12.2239 5.54145 12.2484C5.56601 12.273 5.57981 12.3063 5.57981 12.3411C5.57981 12.3758 5.56601 12.4091 5.54145 12.4337C5.51688 12.4582 5.48357 12.472 5.44883 12.472Z" fill="#DFEAEF"/>
<path d="M4.2307 13.6457H1.8822C1.84746 13.6457 1.81415 13.6319 1.78958 13.6073C1.76502 13.5828 1.75122 13.5494 1.75122 13.5147C1.75122 13.48 1.76502 13.4467 1.78958 13.4221C1.81415 13.3975 1.84746 13.3837 1.8822 13.3837H4.2307C4.26544 13.3837 4.29875 13.3975 4.32332 13.4221C4.34788 13.4467 4.36168 13.48 4.36168 13.5147C4.36168 13.5494 4.34788 13.5828 4.32332 13.6073C4.29875 13.6319 4.26544 13.6457 4.2307 13.6457Z" fill="#DFEAEF"/>
<path d="M27.0686 17.879H24.8236C24.7889 17.879 24.7556 17.8652 24.731 17.8407C24.7064 17.8161 24.6926 17.7828 24.6926 17.748C24.6926 17.7133 24.7064 17.68 24.731 17.6554C24.7556 17.6309 24.7889 17.6171 24.8236 17.6171H27.066C27.1008 17.6171 27.1341 17.6309 27.1586 17.6554C27.1832 17.68 27.197 17.7133 27.197 17.748C27.197 17.7828 27.1832 17.8161 27.1586 17.8407C27.1341 17.8652 27.1008 17.879 27.066 17.879H27.0686Z" fill="#DFEAEF"/>
<path d="M28.2632 16.6202H24.8236C24.7889 16.6202 24.7556 16.6064 24.731 16.5819C24.7064 16.5573 24.6926 16.524 24.6926 16.4893C24.6926 16.4545 24.7064 16.4212 24.731 16.3966C24.7556 16.3721 24.7889 16.3583 24.8236 16.3583H28.2606C28.2953 16.3583 28.3286 16.3721 28.3532 16.3966C28.3778 16.4212 28.3916 16.4545 28.3916 16.4893C28.3916 16.524 28.3778 16.5573 28.3532 16.5819C28.3286 16.6064 28.2953 16.6202 28.2606 16.6202H28.2632Z" fill="#DFEAEF"/>
<path d="M12.8637 15.0314H9.73192C9.69718 15.0314 9.66386 15.0176 9.6393 14.9931C9.61474 14.9685 9.60094 14.9352 9.60094 14.9005C9.60094 14.8657 9.61474 14.8324 9.6393 14.8078C9.66386 14.7833 9.69718 14.7695 9.73192 14.7695H12.8637C12.8984 14.7695 12.9317 14.7833 12.9563 14.8078C12.9809 14.8324 12.9947 14.8657 12.9947 14.9005C12.9947 14.9352 12.9809 14.9685 12.9563 14.9931C12.9317 15.0176 12.8984 15.0314 12.8637 15.0314Z" fill="#DFEAEF"/>
<path d="M4.65246 1.94769H2.17822C2.14348 1.94769 2.11017 1.93389 2.0856 1.90933C2.06104 1.88477 2.04724 1.85145 2.04724 1.81671C2.04724 1.78197 2.06104 1.74866 2.0856 1.72409C2.11017 1.69953 2.14348 1.68573 2.17822 1.68573H4.65246C4.6872 1.68573 4.72052 1.69953 4.74508 1.72409C4.76965 1.74866 4.78344 1.78197 4.78344 1.81671C4.78344 1.85145 4.76965 1.88477 4.74508 1.90933C4.72052 1.93389 4.6872 1.94769 4.65246 1.94769Z" fill="#093F68"/>
<path d="M11.8564 1.94769H10.0594C10.0246 1.94769 9.99132 1.93389 9.96675 1.90933C9.94219 1.88477 9.92839 1.85145 9.92839 1.81671C9.92839 1.78197 9.94219 1.74866 9.96675 1.72409C9.99132 1.69953 10.0246 1.68573 10.0594 1.68573H11.8564C11.8912 1.68573 11.9245 1.69953 11.9491 1.72409C11.9736 1.74866 11.9874 1.78197 11.9874 1.81671C11.9874 1.85145 11.9736 1.88477 11.9491 1.90933C11.9245 1.93389 11.8912 1.94769 11.8564 1.94769Z" fill="#093F68"/>
<path d="M20.8942 1.94769H17.0027C16.968 1.94769 16.9347 1.93389 16.9101 1.90933C16.8855 1.88477 16.8717 1.85145 16.8717 1.81671C16.8717 1.78197 16.8855 1.74866 16.9101 1.72409C16.9347 1.69953 16.968 1.68573 17.0027 1.68573H20.8942C20.9289 1.68573 20.9622 1.69953 20.9868 1.72409C21.0114 1.74866 21.0252 1.78197 21.0252 1.81671C21.0252 1.85145 21.0114 1.88477 20.9868 1.90933C20.9622 1.93389 20.9289 1.94769 20.8942 1.94769Z" fill="#093F68"/>
<path d="M28.3601 1.94769H27.5926C27.5578 1.94769 27.5245 1.93389 27.4999 1.90933C27.4754 1.88477 27.4616 1.85145 27.4616 1.81671C27.4616 1.78197 27.4754 1.74866 27.4999 1.72409C27.5245 1.69953 27.5578 1.68573 27.5926 1.68573H28.3601C28.3948 1.68573 28.4282 1.69953 28.4527 1.72409C28.4773 1.74866 28.4911 1.78197 28.4911 1.81671C28.4911 1.85145 28.4773 1.88477 28.4527 1.90933C28.4282 1.93389 28.3948 1.94769 28.3601 1.94769Z" fill="#093F68"/>
<path d="M26.8329 1.94769H24.8957C24.8609 1.94769 24.8276 1.93389 24.803 1.90933C24.7785 1.88477 24.7647 1.85145 24.7647 1.81671C24.7647 1.78197 24.7785 1.74866 24.803 1.72409C24.8276 1.69953 24.8609 1.68573 24.8957 1.68573H26.8329C26.8676 1.68573 26.9009 1.69953 26.9255 1.72409C26.9501 1.74866 26.9639 1.78197 26.9639 1.81671C26.9639 1.85145 26.9501 1.88477 26.9255 1.90933C26.9009 1.93389 26.8676 1.94769 26.8329 1.94769Z" fill="#093F68"/>
</svg>
